M48
;DRILL file {kicad (2014-08-29 BZR 5106)-product} date Fri 05 Sep 2014 06:55:15 PM PDT
;FORMAT={-:-/ absolute / inch / decimal}
FMAT,2
INCH,TZ
T1C0.025
T2C0.035
T3C0.040
%
G90
G05
M72
T1
X4.Y-3.365
X4.Y-3.455
X4.1151Y-3.3663
X4.181Y-3.31
X4.19Y-3.41
X4.4Y-3.56
X4.4Y-3.56
X4.53Y-3.57
X4.53Y-3.57
X4.53Y-3.57
X4.53Y-3.57
X4.53Y-3.57
X4.6Y-3.64
X4.6Y-3.64
X4.79Y-3.56
X4.79Y-3.56
X4.9Y-3.55
X4.9Y-3.55
X4.9Y-3.55
X4.9Y-3.55
X4.93Y-4.31
X4.99Y-3.44
X4.9901Y-3.7801
X5.04Y-4.2
X5.045Y-3.705
X5.09Y-3.47
X5.09Y-3.47
X5.09Y-3.47
X5.09Y-3.555
X5.095Y-3.82
X5.14Y-4.1
X5.15Y-3.64
X5.19Y-3.4
X5.23Y-3.35
X5.23Y-3.545
X5.27Y-3.3
X5.335Y-4.06
X5.455Y-4.03
X5.455Y-4.18
X5.6Y-4.26
X5.63Y-3.99
X5.67Y-4.46
X5.76Y-5.13
X5.945Y-3.895
X6.21Y-3.36
X6.22Y-4.89
T2
X4.3948Y-3.3558
X4.4655Y-3.4265
X4.5362Y-3.4972
X4.6069Y-3.5679
X4.6776Y-3.6386
X4.7484Y-3.7094
X4.8191Y-3.7801
X4.8898Y-3.8508
X4.9605Y-3.9215
X5.0312Y-3.9922
X5.2468Y-4.2078
X5.3175Y-4.2785
X5.3882Y-4.3492
X5.4589Y-4.4199
X5.5296Y-4.4906
X5.6004Y-4.5614
X5.6711Y-4.6321
X5.7418Y-4.7028
X5.8125Y-4.7735
X5.8832Y-4.8442
T3
X4.05Y-3.1
X4.05Y-3.2
X4.15Y-3.1
X4.15Y-3.2
X4.25Y-3.1
X4.25Y-3.2
X4.35Y-3.1
X4.35Y-3.2
X4.45Y-3.1
X4.45Y-3.2
X4.55Y-3.1
X4.55Y-3.2
X4.65Y-3.1
X4.65Y-3.2
X4.75Y-3.1
X4.75Y-3.2
X4.85Y-3.1
X4.85Y-3.2
X4.95Y-3.1
X4.95Y-3.2
X5.05Y-3.1
X5.05Y-3.2
X5.15Y-3.1
X5.15Y-3.2
X5.25Y-3.1
X5.25Y-3.2
X5.35Y-3.1
X5.35Y-3.2
X5.45Y-3.1
X5.45Y-3.2
X5.55Y-3.1
X5.55Y-3.2
X5.65Y-3.1
X5.65Y-3.2
X5.75Y-3.1
X5.75Y-3.2
X5.85Y-3.1
X5.85Y-3.2
X5.95Y-3.1
X5.95Y-3.2
T0
M30
