%FSLAX46Y46*%
G04 Gerber Fmt 4.6, Leading zero omitted, Abs format (unit mm)*
G04 Created by KiCad (PCBNEW (2014-08-29 BZR 5106)-product) date Fri 05 Sep 2014 06:56:24 PM PDT*
%MOMM*%
G01*
G04 APERTURE LIST*
%ADD10C,0.100000*%
%ADD11C,0.025400*%
G04 APERTURE END LIST*
D10*
D11*
X97815400Y-76212700D02*
X98044000Y-76200000D01*
X97668080Y-76225400D02*
X97815400Y-76212700D01*
X97299780Y-76278740D02*
X97668080Y-76225400D01*
X96939100Y-76370180D02*
X97299780Y-76278740D01*
X96591120Y-76494640D02*
X96939100Y-76370180D01*
X96248220Y-76657200D02*
X96591120Y-76494640D01*
X95933260Y-76845160D02*
X96248220Y-76657200D01*
X95628460Y-77071220D02*
X95933260Y-76845160D01*
X95351600Y-77322680D02*
X95628460Y-77071220D01*
X95105220Y-77594460D02*
X95351600Y-77322680D01*
X94881700Y-77894180D02*
X95105220Y-77594460D01*
X94688660Y-78216760D02*
X94881700Y-77894180D01*
X94528640Y-78554580D02*
X94688660Y-78216760D01*
X94406720Y-78894940D02*
X94528640Y-78554580D01*
X94312740Y-79268320D02*
X94406720Y-78894940D01*
X94259400Y-79626460D02*
X94312740Y-79268320D01*
X94239080Y-80010000D02*
X94259400Y-79626460D01*
X94256860Y-80383380D02*
X94239080Y-80010000D01*
X94312740Y-80751680D02*
X94256860Y-80383380D01*
X94404180Y-81114900D02*
X94312740Y-80751680D01*
X94528640Y-81465420D02*
X94404180Y-81114900D01*
X94688660Y-81803240D02*
X94528640Y-81465420D01*
X94881700Y-82123280D02*
X94688660Y-81803240D01*
X95102680Y-82423000D02*
X94881700Y-82123280D01*
X95354140Y-82699860D02*
X95102680Y-82423000D01*
X144396460Y-131696460D02*
X95354140Y-82699860D01*
X144701260Y-131978400D02*
X144396460Y-131696460D01*
X145000980Y-132201920D02*
X144701260Y-131978400D01*
X145321020Y-132392420D02*
X145000980Y-132201920D01*
X145658840Y-132552440D02*
X145321020Y-132392420D01*
X146004280Y-132676900D02*
X145658840Y-132552440D01*
X146375120Y-132768340D02*
X146004280Y-132676900D01*
X146735800Y-132821680D02*
X146375120Y-132768340D01*
X147114260Y-132842000D02*
X146735800Y-132821680D01*
X155956000Y-132842000D02*
X147114260Y-132842000D01*
X156326840Y-132824220D02*
X155956000Y-132842000D01*
X156695140Y-132768340D02*
X156326840Y-132824220D01*
X157060900Y-132676900D02*
X156695140Y-132768340D01*
X157411420Y-132552440D02*
X157060900Y-132676900D01*
X157751780Y-132392420D02*
X157411420Y-132552440D01*
X158074360Y-132199380D02*
X157751780Y-132392420D01*
X158371540Y-131978400D02*
X158074360Y-132199380D01*
X158648400Y-131726940D02*
X158371540Y-131978400D01*
X158899860Y-131450080D02*
X158648400Y-131726940D01*
X159123380Y-131150360D02*
X158899860Y-131450080D01*
X159316420Y-130827780D02*
X159123380Y-131150360D01*
X159476440Y-130489960D02*
X159316420Y-130827780D01*
X159600900Y-130139440D02*
X159476440Y-130489960D01*
X159692340Y-129773680D02*
X159600900Y-130139440D01*
X159748220Y-129407920D02*
X159692340Y-129773680D01*
X159766000Y-129032000D02*
X159748220Y-129407920D01*
X159766000Y-80010000D02*
X159766000Y-129032000D01*
X159748220Y-79634080D02*
X159766000Y-80010000D01*
X159692340Y-79268320D02*
X159748220Y-79634080D01*
X159600900Y-78902560D02*
X159692340Y-79268320D01*
X159473900Y-78546960D02*
X159600900Y-78902560D01*
X159318960Y-78219300D02*
X159473900Y-78546960D01*
X159120840Y-77889100D02*
X159318960Y-78219300D01*
X158897320Y-77589380D02*
X159120840Y-77889100D01*
X158645860Y-77312520D02*
X158897320Y-77589380D01*
X158374080Y-77066140D02*
X158645860Y-77312520D01*
X158069280Y-76840080D02*
X158374080Y-77066140D01*
X157749240Y-76649580D02*
X158069280Y-76840080D01*
X157411420Y-76489560D02*
X157749240Y-76649580D01*
X157060900Y-76362560D02*
X157411420Y-76489560D01*
X156692600Y-76273660D02*
X157060900Y-76362560D01*
X156329380Y-76217780D02*
X156692600Y-76273660D01*
X155956000Y-76200000D02*
X156329380Y-76217780D01*
X98044000Y-76200000D02*
X155956000Y-76200000D01*
M02*
