%FSLAX46Y46*%
G04 Gerber Fmt 4.6, Leading zero omitted, Abs format (unit mm)*
G04 Created by KiCad (PCBNEW (2014-08-29 BZR 5106)-product) date Mon 08 Sep 2014 01:13:16 PM PDT*
%MOMM*%
G01*
G04 APERTURE LIST*
%ADD10C,0.100000*%
%ADD11C,6.200000*%
%ADD12R,1.300480X1.498600*%
%ADD13R,0.800100X0.698500*%
%ADD14R,1.727200X1.727200*%
%ADD15O,1.727200X1.727200*%
%ADD16C,1.524000*%
%ADD17C,1.016000*%
%ADD18C,0.508000*%
%ADD19C,0.254000*%
G04 APERTURE END LIST*
D10*
D11*
X98044000Y-80010000D03*
X155956000Y-129032000D03*
D12*
X102679500Y-84074000D03*
X104584500Y-84074000D03*
D13*
X104099360Y-86614000D03*
X105196640Y-86614000D03*
X102656640Y-86614000D03*
X101559360Y-86614000D03*
D11*
X155956000Y-80010000D03*
D14*
X102870000Y-81280000D03*
D15*
X102870000Y-78740000D03*
X105410000Y-81280000D03*
X105410000Y-78740000D03*
X107950000Y-81280000D03*
X107950000Y-78740000D03*
X110490000Y-81280000D03*
X110490000Y-78740000D03*
X113030000Y-81280000D03*
X113030000Y-78740000D03*
X115570000Y-81280000D03*
X115570000Y-78740000D03*
X118110000Y-81280000D03*
X118110000Y-78740000D03*
X120650000Y-81280000D03*
X120650000Y-78740000D03*
X123190000Y-81280000D03*
X123190000Y-78740000D03*
X125730000Y-81280000D03*
X125730000Y-78740000D03*
X128270000Y-81280000D03*
X128270000Y-78740000D03*
X130810000Y-81280000D03*
X130810000Y-78740000D03*
X133350000Y-81280000D03*
X133350000Y-78740000D03*
X135890000Y-81280000D03*
X135890000Y-78740000D03*
X138430000Y-81280000D03*
X138430000Y-78740000D03*
X140970000Y-81280000D03*
X140970000Y-78740000D03*
X143510000Y-81280000D03*
X143510000Y-78740000D03*
X146050000Y-81280000D03*
X146050000Y-78740000D03*
X148590000Y-81280000D03*
X148590000Y-78740000D03*
X151130000Y-81280000D03*
X151130000Y-78740000D03*
D16*
X111627969Y-85237369D03*
X113424021Y-87033421D03*
X115220072Y-88829472D03*
X117016123Y-90625523D03*
X118812174Y-92421574D03*
X120608226Y-94217626D03*
X122404277Y-96013677D03*
X124200328Y-97809728D03*
X125996379Y-99605779D03*
X127792431Y-101401831D03*
X133268769Y-106878169D03*
X135064821Y-108674221D03*
X136860872Y-110470272D03*
X138656923Y-112266323D03*
X140452974Y-114062374D03*
X142249026Y-115858426D03*
X144045077Y-117654477D03*
X145841128Y-119450528D03*
X147637179Y-121246579D03*
X149433231Y-123042631D03*
D17*
X129413000Y-97028000D03*
X135509000Y-103124000D03*
X138557000Y-106172000D03*
X138557000Y-102362000D03*
X141605000Y-99695000D03*
X111760000Y-90805000D03*
X124460000Y-90170000D03*
X124460000Y-90170000D03*
X124460000Y-90170000D03*
X124460000Y-90170000D03*
X104524071Y-85503147D03*
X151003000Y-98933000D03*
X121666000Y-90424000D03*
X121666000Y-90424000D03*
X129286000Y-88138000D03*
X129286000Y-88138000D03*
X129286000Y-88138000D03*
X116840000Y-92456000D03*
X116840000Y-92456000D03*
X115062000Y-90678000D03*
X115062000Y-90678000D03*
X115062000Y-90678000D03*
X115062000Y-90678000D03*
X115062000Y-90678000D03*
X128016000Y-106680000D03*
X130556000Y-104140000D03*
X132842000Y-90043000D03*
X125222000Y-109474000D03*
X106196532Y-84074000D03*
X101600000Y-87757000D03*
X101600000Y-85471000D03*
X106426000Y-86614000D03*
X146304000Y-130302000D03*
X157988000Y-124206000D03*
X157734000Y-85344000D03*
X129286000Y-90297000D03*
X131826000Y-86360000D03*
X126746000Y-87376000D03*
X132842000Y-85090000D03*
X133858000Y-83820000D03*
X144018000Y-113284000D03*
X126747677Y-96013677D03*
X128143000Y-94107000D03*
X142240000Y-108204000D03*
X130810000Y-92456000D03*
D18*
X135064821Y-108674221D02*
X127998539Y-108674221D01*
X127998539Y-108674221D02*
X109890880Y-90566562D01*
X109890880Y-90566562D02*
X110706221Y-89751221D01*
D19*
X121920000Y-80010000D02*
X123190000Y-81280000D01*
X121920000Y-78232000D02*
X121920000Y-80010000D01*
X104902000Y-77470000D02*
X121158000Y-77470000D01*
X104140000Y-78232000D02*
X104902000Y-77470000D01*
X121158000Y-77470000D02*
X121920000Y-78232000D01*
X104140000Y-80010000D02*
X104140000Y-78232000D01*
X102870000Y-81280000D02*
X104140000Y-80010000D01*
D18*
X110706221Y-89751221D02*
X110033442Y-90424000D01*
X110033442Y-90424000D02*
X107061000Y-90424000D01*
X107061000Y-90424000D02*
X104099360Y-87462360D01*
X104099360Y-87462360D02*
X104099360Y-86614000D01*
X102870000Y-83883500D02*
X102679500Y-84074000D01*
X102870000Y-81280000D02*
X102870000Y-83883500D01*
X102656640Y-86614000D02*
X102656640Y-84096860D01*
X104099360Y-86614000D02*
X102656640Y-86614000D01*
X102656640Y-84096860D02*
X102679500Y-84074000D01*
X113424021Y-87033421D02*
X110706221Y-89751221D01*
D19*
X135509000Y-103124000D02*
X129413000Y-97028000D01*
X138557000Y-102362000D02*
X138557000Y-103080420D01*
X138557000Y-103080420D02*
X138557000Y-106172000D01*
X143002000Y-101346000D02*
X143002000Y-99695000D01*
X133350000Y-90043000D02*
X132842000Y-90043000D01*
X143002000Y-99695000D02*
X133350000Y-90043000D01*
X114808000Y-90424000D02*
X111760000Y-90424000D01*
X124460000Y-90170000D02*
X124460000Y-80391000D01*
X124460000Y-80391000D02*
X124841000Y-80010000D01*
X124841000Y-80010000D02*
X125730000Y-80010000D01*
X129539470Y-80010000D02*
X125730000Y-80010000D01*
X125730000Y-80010000D02*
X125730000Y-78740000D01*
X105196640Y-86614000D02*
X105196640Y-86175716D01*
X105196640Y-86175716D02*
X104524071Y-85503147D01*
X151130000Y-81280000D02*
X151130000Y-80137000D01*
X151130000Y-80137000D02*
X151003000Y-80010000D01*
X151003000Y-80010000D02*
X143527191Y-80010000D01*
X143527191Y-80010000D02*
X143501792Y-79984601D01*
X151003000Y-98933000D02*
X151003000Y-98552000D01*
X151003000Y-98552000D02*
X157734000Y-91821000D01*
X157734000Y-91821000D02*
X157734000Y-85344000D01*
X118110000Y-86614000D02*
X120014850Y-88518850D01*
X120014850Y-88518850D02*
X124713980Y-93217980D01*
X121666000Y-90424000D02*
X120014850Y-88772850D01*
X120014850Y-88772850D02*
X120014850Y-88518850D01*
X133350000Y-80010000D02*
X129539470Y-80010000D01*
X129286000Y-83312000D02*
X129539470Y-83058530D01*
X129539470Y-83058530D02*
X129539470Y-80010000D01*
X129286000Y-88138000D02*
X129286000Y-83312000D01*
X116840000Y-92456000D02*
X114808000Y-90424000D01*
X114808000Y-90424000D02*
X115062000Y-90678000D01*
X128016000Y-106680000D02*
X128270000Y-106680000D01*
X128270000Y-106680000D02*
X130556000Y-104394000D01*
X130556000Y-104394000D02*
X130556000Y-104140000D01*
X130556000Y-104140000D02*
X130683000Y-104013000D01*
X130683000Y-104013000D02*
X130683000Y-100838000D01*
X130683000Y-100838000D02*
X131953000Y-99568000D01*
X125222000Y-109474000D02*
X126104617Y-109474000D01*
X126104617Y-109474000D02*
X146304000Y-129673383D01*
X146304000Y-129673383D02*
X146304000Y-130302000D01*
X138430000Y-79965799D02*
X138448802Y-79984601D01*
X138430000Y-78740000D02*
X138430000Y-79965799D01*
X143510000Y-79976393D02*
X143501792Y-79984601D01*
X143510000Y-78740000D02*
X143510000Y-79976393D01*
X106807000Y-84074000D02*
X106807000Y-85852000D01*
X110550339Y-85237369D02*
X110529970Y-85217000D01*
X111627969Y-85237369D02*
X110550339Y-85237369D01*
X110529970Y-85217000D02*
X108331000Y-85217000D01*
X107696000Y-85852000D02*
X106807000Y-85852000D01*
X108331000Y-85217000D02*
X107696000Y-85852000D01*
X138423403Y-80010000D02*
X133350000Y-80010000D01*
X138448802Y-79984601D02*
X138423403Y-80010000D01*
X138474201Y-80010000D02*
X138448802Y-79984601D01*
X143476393Y-80010000D02*
X138474201Y-80010000D01*
X143501792Y-79984601D02*
X143476393Y-80010000D01*
X133350000Y-81280000D02*
X133350000Y-80010000D01*
X105196640Y-86010750D02*
X105156000Y-85970110D01*
X105196640Y-86614000D02*
X105196640Y-86010750D01*
X105156000Y-85970110D02*
X105156000Y-85598000D01*
X105156000Y-85598000D02*
X104521000Y-85598000D01*
X104584500Y-85534500D02*
X104584500Y-84074000D01*
X104521000Y-85598000D02*
X104584500Y-85534500D01*
X104584500Y-84074000D02*
X106196532Y-84074000D01*
X106196532Y-84074000D02*
X106807000Y-84074000D01*
X101559360Y-86614000D02*
X101559360Y-87716360D01*
X101559360Y-87716360D02*
X101600000Y-87757000D01*
X101559360Y-86614000D02*
X101559360Y-85511640D01*
X101559360Y-85511640D02*
X101600000Y-85471000D01*
X105196640Y-86614000D02*
X106426000Y-86614000D01*
X106614811Y-86614000D02*
X106426000Y-86614000D01*
X105283000Y-86614000D02*
X106426000Y-86614000D01*
X106807000Y-85852000D02*
X106870499Y-85915499D01*
X106870499Y-85915499D02*
X106870499Y-86169501D01*
X106870499Y-86169501D02*
X106426000Y-86614000D01*
X112705599Y-85237369D02*
X111627969Y-85237369D01*
X114567022Y-86484780D02*
X113319611Y-85237369D01*
X114567022Y-87582062D02*
X114567022Y-86484780D01*
X114077071Y-88072013D02*
X114567022Y-87582062D01*
X114077071Y-89378113D02*
X114077071Y-88072013D01*
X133197600Y-106807000D02*
X131505958Y-106807000D01*
X113319611Y-85237369D02*
X112705599Y-85237369D01*
X133268769Y-106878169D02*
X133197600Y-106807000D01*
X146304000Y-130302000D02*
X152400000Y-124206000D01*
X152400000Y-124206000D02*
X157988000Y-124206000D01*
X155194000Y-85344000D02*
X153543000Y-83693000D01*
X157734000Y-85344000D02*
X155194000Y-85344000D01*
X153543000Y-83693000D02*
X151130000Y-83693000D01*
X151130000Y-83693000D02*
X151130000Y-81280000D01*
X125343329Y-97296076D02*
X125343329Y-98486383D01*
X125343329Y-98486383D02*
X124264335Y-99565377D01*
X124713980Y-93217980D02*
X124713980Y-96666727D01*
X118110000Y-86360000D02*
X118110000Y-86614000D01*
X113030000Y-81280000D02*
X118110000Y-86360000D01*
X124264335Y-99565377D02*
X114077071Y-89378113D01*
X124713980Y-96666727D02*
X125343329Y-97296076D01*
X131505958Y-106807000D02*
X124264335Y-99565377D01*
X129286000Y-90297000D02*
X129286000Y-92964000D01*
X129286000Y-92964000D02*
X136860872Y-100538872D01*
X136860872Y-100538872D02*
X136860872Y-110470272D01*
X110490000Y-78740000D02*
X111785399Y-80035399D01*
X111785399Y-80035399D02*
X111785399Y-81813399D01*
X111785399Y-81813399D02*
X124200328Y-94228328D01*
X124200328Y-94228328D02*
X124200328Y-97809728D01*
X125996379Y-99605779D02*
X125996379Y-96998490D01*
X125996379Y-96998490D02*
X125221990Y-96224101D01*
X125221990Y-96224101D02*
X125221990Y-92709990D01*
X125221990Y-92709990D02*
X114300000Y-81788000D01*
X114300000Y-81788000D02*
X114300000Y-80010000D01*
X114300000Y-80010000D02*
X113893599Y-79603599D01*
X113893599Y-79603599D02*
X113030000Y-78740000D01*
X145841128Y-100375128D02*
X145841128Y-119450528D01*
X131826000Y-86360000D02*
X145841128Y-100375128D01*
X127792431Y-101401831D02*
X127792431Y-95788431D01*
X127792431Y-95788431D02*
X126365000Y-94361000D01*
X126365000Y-94361000D02*
X126365000Y-88900000D01*
X126365000Y-88900000D02*
X126746000Y-88519000D01*
X126746000Y-88519000D02*
X126746000Y-87376000D01*
X147637179Y-99885179D02*
X147637179Y-121246579D01*
X132842000Y-85090000D02*
X147637179Y-99885179D01*
X149433231Y-99395231D02*
X149433231Y-123042631D01*
X133858000Y-83820000D02*
X149433231Y-99395231D01*
X125730000Y-81280000D02*
X125730000Y-94996000D01*
X125730000Y-94996000D02*
X125984000Y-95250000D01*
X125984000Y-95250000D02*
X126747677Y-96013677D01*
X144045077Y-117654477D02*
X144045077Y-113311077D01*
X144045077Y-113311077D02*
X144018000Y-113284000D01*
X128270000Y-88646000D02*
X128270000Y-81280000D01*
X128143000Y-94107000D02*
X128143000Y-91313000D01*
X128143000Y-91313000D02*
X127635000Y-90805000D01*
X127635000Y-90805000D02*
X127635000Y-89281000D01*
X127635000Y-89281000D02*
X128270000Y-88646000D01*
X142249026Y-115858426D02*
X142249026Y-108213026D01*
X142249026Y-108213026D02*
X142240000Y-108204000D01*
X130810000Y-81280000D02*
X130810000Y-85344000D01*
X130810000Y-88519000D02*
X130810000Y-92456000D01*
X130810000Y-85344000D02*
X130302000Y-85852000D01*
X130302000Y-85852000D02*
X130302000Y-88011000D01*
X130302000Y-88011000D02*
X130810000Y-88519000D01*
X140452974Y-102098974D02*
X130810000Y-92456000D01*
X140452974Y-114062374D02*
X140452974Y-102098974D01*
G36*
X113792000Y-80298406D02*
X113785199Y-80290690D01*
X113349120Y-80076995D01*
X113157000Y-80137135D01*
X113157000Y-81153000D01*
X113177000Y-81153000D01*
X113177000Y-81407000D01*
X113157000Y-81407000D01*
X113157000Y-81427000D01*
X112903000Y-81427000D01*
X112903000Y-81407000D01*
X112883000Y-81407000D01*
X112883000Y-81153000D01*
X112903000Y-81153000D01*
X112903000Y-80137135D01*
X112710880Y-80076995D01*
X112293399Y-80281576D01*
X112293399Y-80035399D01*
X112254730Y-79840996D01*
X112144609Y-79676189D01*
X111667638Y-79199218D01*
X111758983Y-78740000D01*
X111664243Y-78263712D01*
X111473336Y-77978000D01*
X112046663Y-77978000D01*
X111855757Y-78263712D01*
X111761017Y-78740000D01*
X111855757Y-79216288D01*
X112125552Y-79620065D01*
X112529329Y-79889860D01*
X113005617Y-79984600D01*
X113054383Y-79984600D01*
X113472925Y-79901346D01*
X113534388Y-79962809D01*
X113534389Y-79962809D01*
X113534391Y-79962811D01*
X113792000Y-80220420D01*
X113792000Y-80298406D01*
X113792000Y-80298406D01*
G37*
X113792000Y-80298406D02*
X113785199Y-80290690D01*
X113349120Y-80076995D01*
X113157000Y-80137135D01*
X113157000Y-81153000D01*
X113177000Y-81153000D01*
X113177000Y-81407000D01*
X113157000Y-81407000D01*
X113157000Y-81427000D01*
X112903000Y-81427000D01*
X112903000Y-81407000D01*
X112883000Y-81407000D01*
X112883000Y-81153000D01*
X112903000Y-81153000D01*
X112903000Y-80137135D01*
X112710880Y-80076995D01*
X112293399Y-80281576D01*
X112293399Y-80035399D01*
X112254730Y-79840996D01*
X112144609Y-79676189D01*
X111667638Y-79199218D01*
X111758983Y-78740000D01*
X111664243Y-78263712D01*
X111473336Y-77978000D01*
X112046663Y-77978000D01*
X111855757Y-78263712D01*
X111761017Y-78740000D01*
X111855757Y-79216288D01*
X112125552Y-79620065D01*
X112529329Y-79889860D01*
X113005617Y-79984600D01*
X113054383Y-79984600D01*
X113472925Y-79901346D01*
X113534388Y-79962809D01*
X113534389Y-79962809D01*
X113534391Y-79962811D01*
X113792000Y-80220420D01*
X113792000Y-80298406D01*
G36*
X159372300Y-128184578D02*
X158908769Y-127062748D01*
X157930403Y-126082672D01*
X156651451Y-125551605D01*
X155266624Y-125550397D01*
X153986748Y-126079231D01*
X153006672Y-127057597D01*
X152475605Y-128336549D01*
X152474397Y-129721376D01*
X153003231Y-131001252D01*
X153981597Y-131981328D01*
X155106191Y-132448300D01*
X152398983Y-132448300D01*
X152398983Y-78740000D01*
X152304243Y-78263712D01*
X152034448Y-77859935D01*
X151630671Y-77590140D01*
X151154383Y-77495400D01*
X151105617Y-77495400D01*
X150629329Y-77590140D01*
X150225552Y-77859935D01*
X149955757Y-78263712D01*
X149861017Y-78740000D01*
X149955757Y-79216288D01*
X150225552Y-79620065D01*
X150629329Y-79889860D01*
X151105617Y-79984600D01*
X151154383Y-79984600D01*
X151630671Y-79889860D01*
X152034448Y-79620065D01*
X152304243Y-79216288D01*
X152398983Y-78740000D01*
X152398983Y-132448300D01*
X152332993Y-132448300D01*
X152332993Y-81599118D01*
X152332993Y-80960882D01*
X152206305Y-80654999D01*
X151885199Y-80290690D01*
X151449120Y-80076995D01*
X151257000Y-80137135D01*
X151257000Y-81153000D01*
X152272312Y-81153000D01*
X152332993Y-80960882D01*
X152332993Y-81599118D01*
X152272312Y-81407000D01*
X151257000Y-81407000D01*
X151257000Y-82422865D01*
X151449120Y-82483005D01*
X151885199Y-82269310D01*
X152206305Y-81905001D01*
X152332993Y-81599118D01*
X152332993Y-132448300D01*
X151003000Y-132448300D01*
X151003000Y-82422865D01*
X151003000Y-81407000D01*
X151003000Y-81153000D01*
X151003000Y-80137135D01*
X150810880Y-80076995D01*
X150374801Y-80290690D01*
X150053695Y-80654999D01*
X149927007Y-80960882D01*
X149987688Y-81153000D01*
X151003000Y-81153000D01*
X151003000Y-81407000D01*
X149987688Y-81407000D01*
X149927007Y-81599118D01*
X150053695Y-81905001D01*
X150374801Y-82269310D01*
X150810880Y-82483005D01*
X151003000Y-82422865D01*
X151003000Y-132448300D01*
X150576429Y-132448300D01*
X150576429Y-122816272D01*
X150402785Y-122396019D01*
X150081534Y-122074208D01*
X149941231Y-122015949D01*
X149941231Y-99395231D01*
X149902562Y-99200828D01*
X149858983Y-99135607D01*
X149858983Y-81280000D01*
X149858983Y-78740000D01*
X149764243Y-78263712D01*
X149494448Y-77859935D01*
X149090671Y-77590140D01*
X148614383Y-77495400D01*
X148565617Y-77495400D01*
X148089329Y-77590140D01*
X147685552Y-77859935D01*
X147415757Y-78263712D01*
X147321017Y-78740000D01*
X147415757Y-79216288D01*
X147685552Y-79620065D01*
X148089329Y-79889860D01*
X148565617Y-79984600D01*
X148614383Y-79984600D01*
X149090671Y-79889860D01*
X149494448Y-79620065D01*
X149764243Y-79216288D01*
X149858983Y-78740000D01*
X149858983Y-81280000D01*
X149764243Y-80803712D01*
X149494448Y-80399935D01*
X149090671Y-80130140D01*
X148614383Y-80035400D01*
X148565617Y-80035400D01*
X148089329Y-80130140D01*
X147685552Y-80399935D01*
X147415757Y-80803712D01*
X147321017Y-81280000D01*
X147415757Y-81756288D01*
X147685552Y-82160065D01*
X148089329Y-82429860D01*
X148565617Y-82524600D01*
X148614383Y-82524600D01*
X149090671Y-82429860D01*
X149494448Y-82160065D01*
X149764243Y-81756288D01*
X149858983Y-81280000D01*
X149858983Y-99135607D01*
X149792441Y-99036021D01*
X147318983Y-96562563D01*
X147318983Y-81280000D01*
X147318983Y-78740000D01*
X147224243Y-78263712D01*
X146954448Y-77859935D01*
X146550671Y-77590140D01*
X146074383Y-77495400D01*
X146025617Y-77495400D01*
X145549329Y-77590140D01*
X145145552Y-77859935D01*
X144875757Y-78263712D01*
X144781017Y-78740000D01*
X144875757Y-79216288D01*
X145145552Y-79620065D01*
X145549329Y-79889860D01*
X146025617Y-79984600D01*
X146074383Y-79984600D01*
X146550671Y-79889860D01*
X146954448Y-79620065D01*
X147224243Y-79216288D01*
X147318983Y-78740000D01*
X147318983Y-81280000D01*
X147224243Y-80803712D01*
X146954448Y-80399935D01*
X146550671Y-80130140D01*
X146074383Y-80035400D01*
X146025617Y-80035400D01*
X145549329Y-80130140D01*
X145145552Y-80399935D01*
X144875757Y-80803712D01*
X144781017Y-81280000D01*
X144875757Y-81756288D01*
X145145552Y-82160065D01*
X145549329Y-82429860D01*
X146025617Y-82524600D01*
X146074383Y-82524600D01*
X146550671Y-82429860D01*
X146954448Y-82160065D01*
X147224243Y-81756288D01*
X147318983Y-81280000D01*
X147318983Y-96562563D01*
X144778983Y-94022563D01*
X144778983Y-81280000D01*
X144712993Y-80948247D01*
X144712993Y-79059118D01*
X144712993Y-78420882D01*
X144586305Y-78114999D01*
X144265199Y-77750690D01*
X143829120Y-77536995D01*
X143637000Y-77597135D01*
X143637000Y-78613000D01*
X144652312Y-78613000D01*
X144712993Y-78420882D01*
X144712993Y-79059118D01*
X144652312Y-78867000D01*
X143637000Y-78867000D01*
X143637000Y-79882865D01*
X143829120Y-79943005D01*
X144265199Y-79729310D01*
X144586305Y-79365001D01*
X144712993Y-79059118D01*
X144712993Y-80948247D01*
X144684243Y-80803712D01*
X144414448Y-80399935D01*
X144010671Y-80130140D01*
X143534383Y-80035400D01*
X143485617Y-80035400D01*
X143383000Y-80055811D01*
X143383000Y-79882865D01*
X143383000Y-78867000D01*
X143383000Y-78613000D01*
X143383000Y-77597135D01*
X143190880Y-77536995D01*
X142754801Y-77750690D01*
X142433695Y-78114999D01*
X142307007Y-78420882D01*
X142367688Y-78613000D01*
X143383000Y-78613000D01*
X143383000Y-78867000D01*
X142367688Y-78867000D01*
X142307007Y-79059118D01*
X142433695Y-79365001D01*
X142754801Y-79729310D01*
X143190880Y-79943005D01*
X143383000Y-79882865D01*
X143383000Y-80055811D01*
X143009329Y-80130140D01*
X142605552Y-80399935D01*
X142335757Y-80803712D01*
X142241017Y-81280000D01*
X142335757Y-81756288D01*
X142605552Y-82160065D01*
X143009329Y-82429860D01*
X143485617Y-82524600D01*
X143534383Y-82524600D01*
X144010671Y-82429860D01*
X144414448Y-82160065D01*
X144684243Y-81756288D01*
X144778983Y-81280000D01*
X144778983Y-94022563D01*
X142238983Y-91482563D01*
X142238983Y-81280000D01*
X142238983Y-78740000D01*
X142144243Y-78263712D01*
X141874448Y-77859935D01*
X141470671Y-77590140D01*
X140994383Y-77495400D01*
X140945617Y-77495400D01*
X140469329Y-77590140D01*
X140065552Y-77859935D01*
X139795757Y-78263712D01*
X139701017Y-78740000D01*
X139795757Y-79216288D01*
X140065552Y-79620065D01*
X140469329Y-79889860D01*
X140945617Y-79984600D01*
X140994383Y-79984600D01*
X141470671Y-79889860D01*
X141874448Y-79620065D01*
X142144243Y-79216288D01*
X142238983Y-78740000D01*
X142238983Y-81280000D01*
X142144243Y-80803712D01*
X141874448Y-80399935D01*
X141470671Y-80130140D01*
X140994383Y-80035400D01*
X140945617Y-80035400D01*
X140469329Y-80130140D01*
X140065552Y-80399935D01*
X139795757Y-80803712D01*
X139701017Y-81280000D01*
X139795757Y-81756288D01*
X140065552Y-82160065D01*
X140469329Y-82429860D01*
X140945617Y-82524600D01*
X140994383Y-82524600D01*
X141470671Y-82429860D01*
X141874448Y-82160065D01*
X142144243Y-81756288D01*
X142238983Y-81280000D01*
X142238983Y-91482563D01*
X139698983Y-88942563D01*
X139698983Y-81280000D01*
X139632993Y-80948247D01*
X139632993Y-79059118D01*
X139632993Y-78420882D01*
X139506305Y-78114999D01*
X139185199Y-77750690D01*
X138749120Y-77536995D01*
X138557000Y-77597135D01*
X138557000Y-78613000D01*
X139572312Y-78613000D01*
X139632993Y-78420882D01*
X139632993Y-79059118D01*
X139572312Y-78867000D01*
X138557000Y-78867000D01*
X138557000Y-79882865D01*
X138749120Y-79943005D01*
X139185199Y-79729310D01*
X139506305Y-79365001D01*
X139632993Y-79059118D01*
X139632993Y-80948247D01*
X139604243Y-80803712D01*
X139334448Y-80399935D01*
X138930671Y-80130140D01*
X138454383Y-80035400D01*
X138405617Y-80035400D01*
X138303000Y-80055811D01*
X138303000Y-79882865D01*
X138303000Y-78867000D01*
X138303000Y-78613000D01*
X138303000Y-77597135D01*
X138110880Y-77536995D01*
X137674801Y-77750690D01*
X137353695Y-78114999D01*
X137227007Y-78420882D01*
X137287688Y-78613000D01*
X138303000Y-78613000D01*
X138303000Y-78867000D01*
X137287688Y-78867000D01*
X137227007Y-79059118D01*
X137353695Y-79365001D01*
X137674801Y-79729310D01*
X138110880Y-79943005D01*
X138303000Y-79882865D01*
X138303000Y-80055811D01*
X137929329Y-80130140D01*
X137525552Y-80399935D01*
X137255757Y-80803712D01*
X137161017Y-81280000D01*
X137255757Y-81756288D01*
X137525552Y-82160065D01*
X137929329Y-82429860D01*
X138405617Y-82524600D01*
X138454383Y-82524600D01*
X138930671Y-82429860D01*
X139334448Y-82160065D01*
X139604243Y-81756288D01*
X139698983Y-81280000D01*
X139698983Y-88942563D01*
X137158983Y-86402563D01*
X137158983Y-81280000D01*
X137158983Y-78740000D01*
X137064243Y-78263712D01*
X136794448Y-77859935D01*
X136390671Y-77590140D01*
X135914383Y-77495400D01*
X135865617Y-77495400D01*
X135389329Y-77590140D01*
X134985552Y-77859935D01*
X134715757Y-78263712D01*
X134621017Y-78740000D01*
X134715757Y-79216288D01*
X134985552Y-79620065D01*
X135389329Y-79889860D01*
X135865617Y-79984600D01*
X135914383Y-79984600D01*
X136390671Y-79889860D01*
X136794448Y-79620065D01*
X137064243Y-79216288D01*
X137158983Y-78740000D01*
X137158983Y-81280000D01*
X137064243Y-80803712D01*
X136794448Y-80399935D01*
X136390671Y-80130140D01*
X135914383Y-80035400D01*
X135865617Y-80035400D01*
X135389329Y-80130140D01*
X134985552Y-80399935D01*
X134715757Y-80803712D01*
X134621017Y-81280000D01*
X134715757Y-81756288D01*
X134985552Y-82160065D01*
X135389329Y-82429860D01*
X135865617Y-82524600D01*
X135914383Y-82524600D01*
X136390671Y-82429860D01*
X136794448Y-82160065D01*
X137064243Y-81756288D01*
X137158983Y-81280000D01*
X137158983Y-86402563D01*
X134746852Y-83990432D01*
X134747154Y-83643943D01*
X134618983Y-83333745D01*
X134618983Y-78740000D01*
X134524243Y-78263712D01*
X134254448Y-77859935D01*
X133850671Y-77590140D01*
X133374383Y-77495400D01*
X133325617Y-77495400D01*
X132849329Y-77590140D01*
X132445552Y-77859935D01*
X132175757Y-78263712D01*
X132081017Y-78740000D01*
X132175757Y-79216288D01*
X132445552Y-79620065D01*
X132849329Y-79889860D01*
X133325617Y-79984600D01*
X133374383Y-79984600D01*
X133850671Y-79889860D01*
X134254448Y-79620065D01*
X134524243Y-79216288D01*
X134618983Y-78740000D01*
X134618983Y-83333745D01*
X134612097Y-83317080D01*
X134552993Y-83257872D01*
X134552993Y-81599118D01*
X134552993Y-80960882D01*
X134426305Y-80654999D01*
X134105199Y-80290690D01*
X133669120Y-80076995D01*
X133477000Y-80137135D01*
X133477000Y-81153000D01*
X134492312Y-81153000D01*
X134552993Y-80960882D01*
X134552993Y-81599118D01*
X134492312Y-81407000D01*
X133477000Y-81407000D01*
X133477000Y-82422865D01*
X133669120Y-82483005D01*
X134105199Y-82269310D01*
X134426305Y-81905001D01*
X134552993Y-81599118D01*
X134552993Y-83257872D01*
X134362236Y-83066782D01*
X134035609Y-82931154D01*
X133681943Y-82930846D01*
X133355080Y-83065903D01*
X133223000Y-83197752D01*
X133223000Y-82422865D01*
X133223000Y-81407000D01*
X133223000Y-81153000D01*
X133223000Y-80137135D01*
X133030880Y-80076995D01*
X132594801Y-80290690D01*
X132273695Y-80654999D01*
X132147007Y-80960882D01*
X132207688Y-81153000D01*
X133223000Y-81153000D01*
X133223000Y-81407000D01*
X132207688Y-81407000D01*
X132147007Y-81599118D01*
X132273695Y-81905001D01*
X132594801Y-82269310D01*
X133030880Y-82483005D01*
X133223000Y-82422865D01*
X133223000Y-83197752D01*
X133104782Y-83315764D01*
X132969154Y-83642391D01*
X132968846Y-83996057D01*
X133060628Y-84218186D01*
X133019609Y-84201154D01*
X132665943Y-84200846D01*
X132339080Y-84335903D01*
X132088782Y-84585764D01*
X131953154Y-84912391D01*
X131952846Y-85266057D01*
X132044628Y-85488186D01*
X132003609Y-85471154D01*
X131649943Y-85470846D01*
X131323080Y-85605903D01*
X131072782Y-85855764D01*
X130937154Y-86182391D01*
X130936846Y-86536057D01*
X131071903Y-86862920D01*
X131321764Y-87113218D01*
X131648391Y-87248846D01*
X131996729Y-87249149D01*
X145333128Y-100585548D01*
X145333128Y-118423701D01*
X145194516Y-118480974D01*
X145188275Y-118487204D01*
X145188275Y-117428118D01*
X145014631Y-117007865D01*
X144693380Y-116686054D01*
X144553077Y-116627795D01*
X144553077Y-114005996D01*
X144771218Y-113788236D01*
X144906846Y-113461609D01*
X144907154Y-113107943D01*
X144772097Y-112781080D01*
X144522236Y-112530782D01*
X144195609Y-112395154D01*
X143841943Y-112394846D01*
X143515080Y-112529903D01*
X143264782Y-112779764D01*
X143129154Y-113106391D01*
X143128846Y-113460057D01*
X143263903Y-113786920D01*
X143513764Y-114037218D01*
X143537077Y-114046898D01*
X143537077Y-116627650D01*
X143398465Y-116684923D01*
X143392224Y-116691153D01*
X143392224Y-115632067D01*
X143218580Y-115211814D01*
X142897329Y-114890003D01*
X142757026Y-114831744D01*
X142757026Y-108944015D01*
X142993218Y-108708236D01*
X143128846Y-108381609D01*
X143129154Y-108027943D01*
X142994097Y-107701080D01*
X142744236Y-107450782D01*
X142417609Y-107315154D01*
X142063943Y-107314846D01*
X141737080Y-107449903D01*
X141486782Y-107699764D01*
X141351154Y-108026391D01*
X141350846Y-108380057D01*
X141485903Y-108706920D01*
X141735764Y-108957218D01*
X141741026Y-108959402D01*
X141741026Y-114831599D01*
X141602414Y-114888872D01*
X141596172Y-114895103D01*
X141596172Y-113836015D01*
X141422528Y-113415762D01*
X141101277Y-113093951D01*
X140960974Y-113035692D01*
X140960974Y-102098974D01*
X140922305Y-101904571D01*
X140812185Y-101739764D01*
X131698852Y-92626432D01*
X131699154Y-92279943D01*
X131564097Y-91953080D01*
X131318000Y-91706552D01*
X131318000Y-88519000D01*
X131279331Y-88324597D01*
X131279330Y-88324596D01*
X131242790Y-88269910D01*
X131169210Y-88159790D01*
X131169210Y-88159789D01*
X130810000Y-87800579D01*
X130810000Y-86062420D01*
X131169210Y-85703211D01*
X131169210Y-85703210D01*
X131242790Y-85593090D01*
X131279330Y-85538404D01*
X131279331Y-85538403D01*
X131317999Y-85344000D01*
X131318000Y-85344000D01*
X131318000Y-82424962D01*
X131714448Y-82160065D01*
X131984243Y-81756288D01*
X132078983Y-81280000D01*
X132078983Y-78740000D01*
X131984243Y-78263712D01*
X131714448Y-77859935D01*
X131310671Y-77590140D01*
X130834383Y-77495400D01*
X130785617Y-77495400D01*
X130309329Y-77590140D01*
X129905552Y-77859935D01*
X129635757Y-78263712D01*
X129541017Y-78740000D01*
X129635757Y-79216288D01*
X129905552Y-79620065D01*
X130309329Y-79889860D01*
X130785617Y-79984600D01*
X130834383Y-79984600D01*
X131310671Y-79889860D01*
X131714448Y-79620065D01*
X131984243Y-79216288D01*
X132078983Y-78740000D01*
X132078983Y-81280000D01*
X131984243Y-80803712D01*
X131714448Y-80399935D01*
X131310671Y-80130140D01*
X130834383Y-80035400D01*
X130785617Y-80035400D01*
X130309329Y-80130140D01*
X129905552Y-80399935D01*
X129635757Y-80803712D01*
X129541017Y-81280000D01*
X129635757Y-81756288D01*
X129905552Y-82160065D01*
X130302000Y-82424962D01*
X130302000Y-85133579D01*
X129942790Y-85492790D01*
X129832669Y-85657597D01*
X129794000Y-85852000D01*
X129794000Y-88011000D01*
X129832669Y-88205403D01*
X129942790Y-88370210D01*
X130302000Y-88729420D01*
X130302000Y-91706974D01*
X130056782Y-91951764D01*
X129921154Y-92278391D01*
X129920846Y-92632057D01*
X130055903Y-92958920D01*
X130305764Y-93209218D01*
X130632391Y-93344846D01*
X130980729Y-93345149D01*
X139944974Y-102309394D01*
X139944974Y-113035547D01*
X139806362Y-113092820D01*
X139800121Y-113099050D01*
X139800121Y-112039964D01*
X139626477Y-111619711D01*
X139305226Y-111297900D01*
X138885277Y-111123522D01*
X138430564Y-111123125D01*
X138010311Y-111296769D01*
X138004070Y-111302999D01*
X138004070Y-110243913D01*
X137830426Y-109823660D01*
X137509175Y-109501849D01*
X137368872Y-109443590D01*
X137368872Y-100538872D01*
X137330203Y-100344469D01*
X137220082Y-100179662D01*
X129794000Y-92753580D01*
X129794000Y-91046025D01*
X130039218Y-90801236D01*
X130174846Y-90474609D01*
X130175154Y-90120943D01*
X130040097Y-89794080D01*
X129790236Y-89543782D01*
X129538983Y-89439452D01*
X129538983Y-81280000D01*
X129538983Y-78740000D01*
X129444243Y-78263712D01*
X129174448Y-77859935D01*
X128770671Y-77590140D01*
X128294383Y-77495400D01*
X128245617Y-77495400D01*
X127769329Y-77590140D01*
X127365552Y-77859935D01*
X127095757Y-78263712D01*
X127001017Y-78740000D01*
X127095757Y-79216288D01*
X127365552Y-79620065D01*
X127769329Y-79889860D01*
X128245617Y-79984600D01*
X128294383Y-79984600D01*
X128770671Y-79889860D01*
X129174448Y-79620065D01*
X129444243Y-79216288D01*
X129538983Y-78740000D01*
X129538983Y-81280000D01*
X129444243Y-80803712D01*
X129174448Y-80399935D01*
X128770671Y-80130140D01*
X128294383Y-80035400D01*
X128245617Y-80035400D01*
X127769329Y-80130140D01*
X127365552Y-80399935D01*
X127095757Y-80803712D01*
X127001017Y-81280000D01*
X127095757Y-81756288D01*
X127365552Y-82160065D01*
X127762000Y-82424962D01*
X127762000Y-88435579D01*
X127275790Y-88921790D01*
X127165669Y-89086597D01*
X127127000Y-89281000D01*
X127127000Y-90805000D01*
X127165669Y-90999403D01*
X127275790Y-91164210D01*
X127635000Y-91523420D01*
X127635000Y-93357974D01*
X127389782Y-93602764D01*
X127254154Y-93929391D01*
X127253846Y-94283057D01*
X127388903Y-94609920D01*
X127638764Y-94860218D01*
X127965391Y-94995846D01*
X128319057Y-94996154D01*
X128645920Y-94861097D01*
X128896218Y-94611236D01*
X129031846Y-94284609D01*
X129032154Y-93930943D01*
X128897097Y-93604080D01*
X128651000Y-93357552D01*
X128651000Y-91313000D01*
X128612331Y-91118597D01*
X128612330Y-91118596D01*
X128575790Y-91063910D01*
X128502210Y-90953790D01*
X128502210Y-90953789D01*
X128143000Y-90594579D01*
X128143000Y-89491420D01*
X128629210Y-89005210D01*
X128629211Y-89005210D01*
X128739331Y-88840403D01*
X128778000Y-88646000D01*
X128778000Y-82424962D01*
X129174448Y-82160065D01*
X129444243Y-81756288D01*
X129538983Y-81280000D01*
X129538983Y-89439452D01*
X129463609Y-89408154D01*
X129109943Y-89407846D01*
X128783080Y-89542903D01*
X128532782Y-89792764D01*
X128397154Y-90119391D01*
X128396846Y-90473057D01*
X128531903Y-90799920D01*
X128778000Y-91046447D01*
X128778000Y-92964000D01*
X128816669Y-93158403D01*
X128926790Y-93323210D01*
X136352872Y-100749292D01*
X136352872Y-109443445D01*
X136214260Y-109500718D01*
X136208019Y-109506948D01*
X136208019Y-108447862D01*
X136034375Y-108027609D01*
X135713124Y-107705798D01*
X135293175Y-107531420D01*
X134838462Y-107531023D01*
X134418209Y-107704667D01*
X134393091Y-107729741D01*
X134393091Y-107184827D01*
X134393091Y-106571511D01*
X134190154Y-106164595D01*
X133846945Y-105866314D01*
X133575427Y-105753847D01*
X133395769Y-105815589D01*
X133395769Y-106751169D01*
X134331349Y-106751169D01*
X134393091Y-106571511D01*
X134393091Y-107184827D01*
X134331349Y-107005169D01*
X133395769Y-107005169D01*
X133395769Y-107940749D01*
X133575427Y-108002491D01*
X133982343Y-107799554D01*
X134280624Y-107456345D01*
X134393091Y-107184827D01*
X134393091Y-107729741D01*
X134096398Y-108025918D01*
X134090874Y-108039221D01*
X133141769Y-108039221D01*
X133141769Y-107940749D01*
X133141769Y-107005169D01*
X133141769Y-106751169D01*
X133141769Y-105815589D01*
X132962111Y-105753847D01*
X132555195Y-105956784D01*
X132256914Y-106299993D01*
X132144447Y-106571511D01*
X132206189Y-106751169D01*
X133141769Y-106751169D01*
X133141769Y-107005169D01*
X132206189Y-107005169D01*
X132144447Y-107184827D01*
X132347384Y-107591743D01*
X132690593Y-107890024D01*
X132962111Y-108002491D01*
X133141769Y-107940749D01*
X133141769Y-108039221D01*
X128261565Y-108039221D01*
X110788906Y-90566562D01*
X111155234Y-90200234D01*
X113184063Y-88171404D01*
X113195667Y-88176222D01*
X113650380Y-88176619D01*
X114070633Y-88002975D01*
X114392444Y-87681724D01*
X114566822Y-87261775D01*
X114567219Y-86807062D01*
X114393575Y-86386809D01*
X114072324Y-86064998D01*
X113652375Y-85890620D01*
X113197662Y-85890223D01*
X112777409Y-86063867D01*
X112752291Y-86088941D01*
X112752291Y-85544027D01*
X112752291Y-84930711D01*
X112549354Y-84523795D01*
X112206145Y-84225514D01*
X111934627Y-84113047D01*
X111754969Y-84174789D01*
X111754969Y-85110369D01*
X112690549Y-85110369D01*
X112752291Y-84930711D01*
X112752291Y-85544027D01*
X112690549Y-85364369D01*
X111754969Y-85364369D01*
X111754969Y-86299949D01*
X111934627Y-86361691D01*
X112341543Y-86158754D01*
X112639824Y-85815545D01*
X112752291Y-85544027D01*
X112752291Y-86088941D01*
X112455598Y-86385118D01*
X112281220Y-86805067D01*
X112280823Y-87259780D01*
X112286323Y-87273092D01*
X111500969Y-88058446D01*
X111500969Y-86299949D01*
X111500969Y-85364369D01*
X111500969Y-85110369D01*
X111500969Y-84174789D01*
X111321311Y-84113047D01*
X110914395Y-84315984D01*
X110616114Y-84659193D01*
X110503647Y-84930711D01*
X110565389Y-85110369D01*
X111500969Y-85110369D01*
X111500969Y-85364369D01*
X110565389Y-85364369D01*
X110503647Y-85544027D01*
X110706584Y-85950943D01*
X111049793Y-86249224D01*
X111321311Y-86361691D01*
X111500969Y-86299949D01*
X111500969Y-88058446D01*
X110257208Y-89302208D01*
X109770416Y-89789000D01*
X109770415Y-89789000D01*
X109218983Y-89789000D01*
X109218983Y-81280000D01*
X109152993Y-80948247D01*
X109152993Y-79059118D01*
X109092312Y-78867000D01*
X108077000Y-78867000D01*
X108077000Y-79882865D01*
X108269120Y-79943005D01*
X108705199Y-79729310D01*
X109026305Y-79365001D01*
X109152993Y-79059118D01*
X109152993Y-80948247D01*
X109124243Y-80803712D01*
X108854448Y-80399935D01*
X108450671Y-80130140D01*
X107974383Y-80035400D01*
X107925617Y-80035400D01*
X107823000Y-80055811D01*
X107823000Y-79882865D01*
X107823000Y-78867000D01*
X106807688Y-78867000D01*
X106747007Y-79059118D01*
X106873695Y-79365001D01*
X107194801Y-79729310D01*
X107630880Y-79943005D01*
X107823000Y-79882865D01*
X107823000Y-80055811D01*
X107449329Y-80130140D01*
X107045552Y-80399935D01*
X106775757Y-80803712D01*
X106681017Y-81280000D01*
X106775757Y-81756288D01*
X107045552Y-82160065D01*
X107449329Y-82429860D01*
X107925617Y-82524600D01*
X107974383Y-82524600D01*
X108450671Y-82429860D01*
X108854448Y-82160065D01*
X109124243Y-81756288D01*
X109218983Y-81280000D01*
X109218983Y-89789000D01*
X107324025Y-89789000D01*
X106678983Y-89143958D01*
X106678983Y-81280000D01*
X106584243Y-80803712D01*
X106314448Y-80399935D01*
X105910671Y-80130140D01*
X105434383Y-80035400D01*
X105385617Y-80035400D01*
X104909329Y-80130140D01*
X104505552Y-80399935D01*
X104235757Y-80803712D01*
X104141017Y-81280000D01*
X104235757Y-81756288D01*
X104505552Y-82160065D01*
X104909329Y-82429860D01*
X105385617Y-82524600D01*
X105434383Y-82524600D01*
X105910671Y-82429860D01*
X106314448Y-82160065D01*
X106584243Y-81756288D01*
X106678983Y-81280000D01*
X106678983Y-89143958D01*
X105977690Y-88442665D01*
X105977690Y-87039035D01*
X105977690Y-86887464D01*
X105977690Y-86836250D01*
X105977690Y-86391750D01*
X105977690Y-86340536D01*
X105977690Y-86188965D01*
X105919686Y-86048931D01*
X105812510Y-85941754D01*
X105672476Y-85883750D01*
X105615740Y-85883750D01*
X105615740Y-84899085D01*
X105615740Y-84747514D01*
X105615740Y-84296250D01*
X105615740Y-83851750D01*
X105615740Y-83400486D01*
X105615740Y-83248915D01*
X105557736Y-83108881D01*
X105450560Y-83001704D01*
X105310526Y-82943700D01*
X104806750Y-82943700D01*
X104711500Y-83038950D01*
X104711500Y-83947000D01*
X105520490Y-83947000D01*
X105615740Y-83851750D01*
X105615740Y-84296250D01*
X105520490Y-84201000D01*
X104711500Y-84201000D01*
X104711500Y-85109050D01*
X104806750Y-85204300D01*
X105310526Y-85204300D01*
X105450560Y-85146296D01*
X105557736Y-85039119D01*
X105615740Y-84899085D01*
X105615740Y-85883750D01*
X105418890Y-85883750D01*
X105323640Y-85979000D01*
X105323640Y-86487000D01*
X105882440Y-86487000D01*
X105977690Y-86391750D01*
X105977690Y-86836250D01*
X105882440Y-86741000D01*
X105323640Y-86741000D01*
X105323640Y-87249000D01*
X105418890Y-87344250D01*
X105672476Y-87344250D01*
X105812510Y-87286246D01*
X105919686Y-87179069D01*
X105977690Y-87039035D01*
X105977690Y-88442665D01*
X104879275Y-87344250D01*
X104974390Y-87344250D01*
X105069640Y-87249000D01*
X105069640Y-86741000D01*
X105049640Y-86741000D01*
X105049640Y-86487000D01*
X105069640Y-86487000D01*
X105069640Y-85979000D01*
X104974390Y-85883750D01*
X104720804Y-85883750D01*
X104647999Y-85913906D01*
X104575195Y-85883750D01*
X104423624Y-85883750D01*
X103623524Y-85883750D01*
X103483490Y-85941754D01*
X103446244Y-85979000D01*
X103309755Y-85979000D01*
X103291640Y-85960884D01*
X103291640Y-85204300D01*
X103405526Y-85204300D01*
X103545560Y-85146296D01*
X103632000Y-85059855D01*
X103718440Y-85146296D01*
X103858474Y-85204300D01*
X104362250Y-85204300D01*
X104457500Y-85109050D01*
X104457500Y-84201000D01*
X104437500Y-84201000D01*
X104437500Y-83947000D01*
X104457500Y-83947000D01*
X104457500Y-83038950D01*
X104362250Y-82943700D01*
X103858474Y-82943700D01*
X103718440Y-83001704D01*
X103632000Y-83088144D01*
X103545559Y-83001704D01*
X103505000Y-82984903D01*
X103505000Y-82524600D01*
X103809386Y-82524600D01*
X103949420Y-82466596D01*
X104056596Y-82359419D01*
X104114600Y-82219385D01*
X104114600Y-82067814D01*
X104114600Y-80753820D01*
X104499210Y-80369210D01*
X104609331Y-80204404D01*
X104609331Y-80204403D01*
X104615746Y-80172150D01*
X104647999Y-80010000D01*
X104648000Y-80010000D01*
X104648000Y-79715245D01*
X104909329Y-79889860D01*
X105385617Y-79984600D01*
X105434383Y-79984600D01*
X105910671Y-79889860D01*
X106314448Y-79620065D01*
X106584243Y-79216288D01*
X106678983Y-78740000D01*
X106584243Y-78263712D01*
X106393336Y-77978000D01*
X106994447Y-77978000D01*
X106873695Y-78114999D01*
X106747007Y-78420882D01*
X106807688Y-78613000D01*
X107823000Y-78613000D01*
X107823000Y-78593000D01*
X108077000Y-78593000D01*
X108077000Y-78613000D01*
X109092312Y-78613000D01*
X109152993Y-78420882D01*
X109026305Y-78114999D01*
X108905552Y-77978000D01*
X109506663Y-77978000D01*
X109315757Y-78263712D01*
X109221017Y-78740000D01*
X109315757Y-79216288D01*
X109585552Y-79620065D01*
X109989329Y-79889860D01*
X110465617Y-79984600D01*
X110514383Y-79984600D01*
X110932926Y-79901346D01*
X111277399Y-80245819D01*
X111277399Y-80321725D01*
X110990671Y-80130140D01*
X110514383Y-80035400D01*
X110465617Y-80035400D01*
X109989329Y-80130140D01*
X109585552Y-80399935D01*
X109315757Y-80803712D01*
X109221017Y-81280000D01*
X109315757Y-81756288D01*
X109585552Y-82160065D01*
X109989329Y-82429860D01*
X110465617Y-82524600D01*
X110514383Y-82524600D01*
X110990671Y-82429860D01*
X111394448Y-82160065D01*
X111406127Y-82142585D01*
X111426189Y-82172609D01*
X123692328Y-94438748D01*
X123692328Y-96782901D01*
X123553716Y-96840174D01*
X123547475Y-96846404D01*
X123547475Y-95787318D01*
X123373831Y-95367065D01*
X123052580Y-95045254D01*
X122632631Y-94870876D01*
X122177918Y-94870479D01*
X121757665Y-95044123D01*
X121751424Y-95050353D01*
X121751424Y-93991267D01*
X121577780Y-93571014D01*
X121256529Y-93249203D01*
X120836580Y-93074825D01*
X120381867Y-93074428D01*
X119961614Y-93248072D01*
X119955372Y-93254303D01*
X119955372Y-92195215D01*
X119781728Y-91774962D01*
X119460477Y-91453151D01*
X119040528Y-91278773D01*
X118585815Y-91278376D01*
X118165562Y-91452020D01*
X118159321Y-91458250D01*
X118159321Y-90399164D01*
X117985677Y-89978911D01*
X117664426Y-89657100D01*
X117244477Y-89482722D01*
X116789764Y-89482325D01*
X116369511Y-89655969D01*
X116363270Y-89662199D01*
X116363270Y-88603113D01*
X116189626Y-88182860D01*
X115868375Y-87861049D01*
X115448426Y-87686671D01*
X114993713Y-87686274D01*
X114573460Y-87859918D01*
X114251649Y-88181169D01*
X114077271Y-88601118D01*
X114076874Y-89055831D01*
X114250518Y-89476084D01*
X114571769Y-89797895D01*
X114991718Y-89972273D01*
X115446431Y-89972670D01*
X115866684Y-89799026D01*
X116188495Y-89477775D01*
X116362873Y-89057826D01*
X116363270Y-88603113D01*
X116363270Y-89662199D01*
X116047700Y-89977220D01*
X115873322Y-90397169D01*
X115872925Y-90851882D01*
X116046569Y-91272135D01*
X116367820Y-91593946D01*
X116787769Y-91768324D01*
X117242482Y-91768721D01*
X117662735Y-91595077D01*
X117984546Y-91273826D01*
X118158924Y-90853877D01*
X118159321Y-90399164D01*
X118159321Y-91458250D01*
X117843751Y-91773271D01*
X117669373Y-92193220D01*
X117668976Y-92647933D01*
X117842620Y-93068186D01*
X118163871Y-93389997D01*
X118583820Y-93564375D01*
X119038533Y-93564772D01*
X119458786Y-93391128D01*
X119780597Y-93069877D01*
X119954975Y-92649928D01*
X119955372Y-92195215D01*
X119955372Y-93254303D01*
X119639803Y-93569323D01*
X119465425Y-93989272D01*
X119465028Y-94443985D01*
X119638672Y-94864238D01*
X119959923Y-95186049D01*
X120379872Y-95360427D01*
X120834585Y-95360824D01*
X121254838Y-95187180D01*
X121576649Y-94865929D01*
X121751027Y-94445980D01*
X121751424Y-93991267D01*
X121751424Y-95050353D01*
X121435854Y-95365374D01*
X121261476Y-95785323D01*
X121261079Y-96240036D01*
X121434723Y-96660289D01*
X121755974Y-96982100D01*
X122175923Y-97156478D01*
X122630636Y-97156875D01*
X123050889Y-96983231D01*
X123372700Y-96661980D01*
X123547078Y-96242031D01*
X123547475Y-95787318D01*
X123547475Y-96846404D01*
X123231905Y-97161425D01*
X123057527Y-97581374D01*
X123057130Y-98036087D01*
X123230774Y-98456340D01*
X123552025Y-98778151D01*
X123971974Y-98952529D01*
X124426687Y-98952926D01*
X124846940Y-98779282D01*
X125168751Y-98458031D01*
X125343129Y-98038082D01*
X125343526Y-97583369D01*
X125169882Y-97163116D01*
X124848631Y-96841305D01*
X124708328Y-96783046D01*
X124708328Y-94228328D01*
X124669659Y-94033925D01*
X124559538Y-93869118D01*
X113157002Y-82466582D01*
X113157002Y-82422865D01*
X113349120Y-82483005D01*
X113785199Y-82269310D01*
X113920105Y-82116253D01*
X113940790Y-82147210D01*
X124713990Y-92920410D01*
X124713990Y-96224101D01*
X124752659Y-96418504D01*
X124862780Y-96583311D01*
X125488379Y-97208910D01*
X125488379Y-98578952D01*
X125349767Y-98636225D01*
X125027956Y-98957476D01*
X124853578Y-99377425D01*
X124853181Y-99832138D01*
X125026825Y-100252391D01*
X125348076Y-100574202D01*
X125768025Y-100748580D01*
X126222738Y-100748977D01*
X126642991Y-100575333D01*
X126964802Y-100254082D01*
X127139180Y-99834133D01*
X127139577Y-99379420D01*
X126965933Y-98959167D01*
X126644682Y-98637356D01*
X126504379Y-98579097D01*
X126504379Y-96998490D01*
X126477657Y-96864150D01*
X126570068Y-96902523D01*
X126923734Y-96902831D01*
X127250597Y-96767774D01*
X127284431Y-96733999D01*
X127284431Y-100375004D01*
X127145819Y-100432277D01*
X126824008Y-100753528D01*
X126649630Y-101173477D01*
X126649233Y-101628190D01*
X126822877Y-102048443D01*
X127144128Y-102370254D01*
X127564077Y-102544632D01*
X128018790Y-102545029D01*
X128439043Y-102371385D01*
X128760854Y-102050134D01*
X128935232Y-101630185D01*
X128935629Y-101175472D01*
X128761985Y-100755219D01*
X128440734Y-100433408D01*
X128300431Y-100375149D01*
X128300431Y-95788431D01*
X128268177Y-95626280D01*
X128261762Y-95594028D01*
X128261762Y-95594027D01*
X128151641Y-95429221D01*
X126873000Y-94150580D01*
X126873000Y-89110420D01*
X127105210Y-88878211D01*
X127105210Y-88878210D01*
X127215331Y-88713404D01*
X127215331Y-88713403D01*
X127221746Y-88681150D01*
X127253999Y-88519000D01*
X127254000Y-88519000D01*
X127254000Y-88125025D01*
X127499218Y-87880236D01*
X127634846Y-87553609D01*
X127635154Y-87199943D01*
X127500097Y-86873080D01*
X127250236Y-86622782D01*
X126923609Y-86487154D01*
X126569943Y-86486846D01*
X126243080Y-86621903D01*
X126238000Y-86626974D01*
X126238000Y-82424962D01*
X126634448Y-82160065D01*
X126904243Y-81756288D01*
X126998983Y-81280000D01*
X126932993Y-80948247D01*
X126932993Y-79059118D01*
X126932993Y-78420882D01*
X126806305Y-78114999D01*
X126485199Y-77750690D01*
X126049120Y-77536995D01*
X125857000Y-77597135D01*
X125857000Y-78613000D01*
X126872312Y-78613000D01*
X126932993Y-78420882D01*
X126932993Y-79059118D01*
X126872312Y-78867000D01*
X125857000Y-78867000D01*
X125857000Y-79882865D01*
X126049120Y-79943005D01*
X126485199Y-79729310D01*
X126806305Y-79365001D01*
X126932993Y-79059118D01*
X126932993Y-80948247D01*
X126904243Y-80803712D01*
X126634448Y-80399935D01*
X126230671Y-80130140D01*
X125754383Y-80035400D01*
X125705617Y-80035400D01*
X125603000Y-80055811D01*
X125603000Y-79882865D01*
X125603000Y-78867000D01*
X125603000Y-78613000D01*
X125603000Y-77597135D01*
X125410880Y-77536995D01*
X124974801Y-77750690D01*
X124653695Y-78114999D01*
X124527007Y-78420882D01*
X124587688Y-78613000D01*
X125603000Y-78613000D01*
X125603000Y-78867000D01*
X124587688Y-78867000D01*
X124527007Y-79059118D01*
X124653695Y-79365001D01*
X124974801Y-79729310D01*
X125410880Y-79943005D01*
X125603000Y-79882865D01*
X125603000Y-80055811D01*
X125229329Y-80130140D01*
X124825552Y-80399935D01*
X124555757Y-80803712D01*
X124461017Y-81280000D01*
X124555757Y-81756288D01*
X124825552Y-82160065D01*
X125222000Y-82424962D01*
X125222000Y-91991579D01*
X121918983Y-88688562D01*
X121918983Y-81280000D01*
X121824243Y-80803712D01*
X121554448Y-80399935D01*
X121150671Y-80130140D01*
X120674383Y-80035400D01*
X120625617Y-80035400D01*
X120149329Y-80130140D01*
X119745552Y-80399935D01*
X119475757Y-80803712D01*
X119381017Y-81280000D01*
X119475757Y-81756288D01*
X119745552Y-82160065D01*
X120149329Y-82429860D01*
X120625617Y-82524600D01*
X120674383Y-82524600D01*
X121150671Y-82429860D01*
X121554448Y-82160065D01*
X121824243Y-81756288D01*
X121918983Y-81280000D01*
X121918983Y-88688562D01*
X119378983Y-86148562D01*
X119378983Y-81280000D01*
X119312993Y-80948247D01*
X119312993Y-79059118D01*
X119252312Y-78867000D01*
X118237000Y-78867000D01*
X118237000Y-79882865D01*
X118429120Y-79943005D01*
X118865199Y-79729310D01*
X119186305Y-79365001D01*
X119312993Y-79059118D01*
X119312993Y-80948247D01*
X119284243Y-80803712D01*
X119014448Y-80399935D01*
X118610671Y-80130140D01*
X118134383Y-80035400D01*
X118085617Y-80035400D01*
X117983000Y-80055811D01*
X117983000Y-79882865D01*
X117983000Y-78867000D01*
X116967688Y-78867000D01*
X116907007Y-79059118D01*
X117033695Y-79365001D01*
X117354801Y-79729310D01*
X117790880Y-79943005D01*
X117983000Y-79882865D01*
X117983000Y-80055811D01*
X117609329Y-80130140D01*
X117205552Y-80399935D01*
X116935757Y-80803712D01*
X116841017Y-81280000D01*
X116935757Y-81756288D01*
X117205552Y-82160065D01*
X117609329Y-82429860D01*
X118085617Y-82524600D01*
X118134383Y-82524600D01*
X118610671Y-82429860D01*
X119014448Y-82160065D01*
X119284243Y-81756288D01*
X119378983Y-81280000D01*
X119378983Y-86148562D01*
X115728368Y-82497948D01*
X116070671Y-82429860D01*
X116474448Y-82160065D01*
X116744243Y-81756288D01*
X116838983Y-81280000D01*
X116744243Y-80803712D01*
X116474448Y-80399935D01*
X116070671Y-80130140D01*
X115594383Y-80035400D01*
X115545617Y-80035400D01*
X115069329Y-80130140D01*
X114808000Y-80304754D01*
X114808000Y-80010000D01*
X114769331Y-79815597D01*
X114659210Y-79650790D01*
X114252811Y-79244391D01*
X114252809Y-79244389D01*
X114252809Y-79244388D01*
X114207638Y-79199217D01*
X114298983Y-78740000D01*
X114204243Y-78263712D01*
X114013336Y-77978000D01*
X114586663Y-77978000D01*
X114395757Y-78263712D01*
X114301017Y-78740000D01*
X114395757Y-79216288D01*
X114665552Y-79620065D01*
X115069329Y-79889860D01*
X115545617Y-79984600D01*
X115594383Y-79984600D01*
X116070671Y-79889860D01*
X116474448Y-79620065D01*
X116744243Y-79216288D01*
X116838983Y-78740000D01*
X116744243Y-78263712D01*
X116553336Y-77978000D01*
X117154447Y-77978000D01*
X117033695Y-78114999D01*
X116907007Y-78420882D01*
X116967688Y-78613000D01*
X117983000Y-78613000D01*
X117983000Y-78593000D01*
X118237000Y-78593000D01*
X118237000Y-78613000D01*
X119252312Y-78613000D01*
X119312993Y-78420882D01*
X119186305Y-78114999D01*
X119065552Y-77978000D01*
X119666663Y-77978000D01*
X119475757Y-78263712D01*
X119381017Y-78740000D01*
X119475757Y-79216288D01*
X119745552Y-79620065D01*
X120149329Y-79889860D01*
X120625617Y-79984600D01*
X120674383Y-79984600D01*
X121150671Y-79889860D01*
X121412000Y-79715245D01*
X121412000Y-80010000D01*
X121450669Y-80204403D01*
X121560790Y-80369210D01*
X122012361Y-80820781D01*
X121921017Y-81280000D01*
X122015757Y-81756288D01*
X122285552Y-82160065D01*
X122689329Y-82429860D01*
X123165617Y-82524600D01*
X123214383Y-82524600D01*
X123690671Y-82429860D01*
X124094448Y-82160065D01*
X124364243Y-81756288D01*
X124458983Y-81280000D01*
X124364243Y-80803712D01*
X124094448Y-80399935D01*
X123690671Y-80130140D01*
X123214383Y-80035400D01*
X123165617Y-80035400D01*
X122747073Y-80118653D01*
X122428000Y-79799580D01*
X122428000Y-79715245D01*
X122689329Y-79889860D01*
X123165617Y-79984600D01*
X123214383Y-79984600D01*
X123690671Y-79889860D01*
X124094448Y-79620065D01*
X124364243Y-79216288D01*
X124458983Y-78740000D01*
X124364243Y-78263712D01*
X124094448Y-77859935D01*
X123690671Y-77590140D01*
X123214383Y-77495400D01*
X123165617Y-77495400D01*
X122689329Y-77590140D01*
X122285552Y-77859935D01*
X122277862Y-77871442D01*
X121517210Y-77110790D01*
X121352403Y-77000669D01*
X121158000Y-76962000D01*
X104902000Y-76962000D01*
X104707597Y-77000669D01*
X104542790Y-77110790D01*
X103782137Y-77871442D01*
X103774448Y-77859935D01*
X103370671Y-77590140D01*
X102894383Y-77495400D01*
X102845617Y-77495400D01*
X102369329Y-77590140D01*
X101965552Y-77859935D01*
X101695757Y-78263712D01*
X101601017Y-78740000D01*
X101695757Y-79216288D01*
X101965552Y-79620065D01*
X102369329Y-79889860D01*
X102845617Y-79984600D01*
X102894383Y-79984600D01*
X103370671Y-79889860D01*
X103632000Y-79715245D01*
X103632000Y-79799580D01*
X103396180Y-80035400D01*
X101930614Y-80035400D01*
X101790580Y-80093404D01*
X101683404Y-80200581D01*
X101625400Y-80340615D01*
X101625400Y-80492186D01*
X101625400Y-82219386D01*
X101683404Y-82359420D01*
X101790581Y-82466596D01*
X101930615Y-82524600D01*
X102082186Y-82524600D01*
X102235000Y-82524600D01*
X102235000Y-82943700D01*
X101953474Y-82943700D01*
X101813440Y-83001704D01*
X101706264Y-83108881D01*
X101648260Y-83248915D01*
X101648260Y-83400486D01*
X101648260Y-84899086D01*
X101706264Y-85039120D01*
X101813441Y-85146296D01*
X101953475Y-85204300D01*
X102021640Y-85204300D01*
X102021640Y-85883750D01*
X101781610Y-85883750D01*
X101686360Y-85979000D01*
X101686360Y-86487000D01*
X101706360Y-86487000D01*
X101706360Y-86741000D01*
X101686360Y-86741000D01*
X101686360Y-87249000D01*
X101781610Y-87344250D01*
X102035196Y-87344250D01*
X102108000Y-87314093D01*
X102180805Y-87344250D01*
X102332376Y-87344250D01*
X103132476Y-87344250D01*
X103272510Y-87286246D01*
X103309755Y-87249000D01*
X103446244Y-87249000D01*
X103464360Y-87267115D01*
X103464360Y-87462360D01*
X103512696Y-87705364D01*
X103650347Y-87911373D01*
X106611984Y-90873009D01*
X106611987Y-90873013D01*
X106735479Y-90955528D01*
X106817995Y-91010664D01*
X106817996Y-91010664D01*
X107061000Y-91059000D01*
X109485291Y-91059000D01*
X127549526Y-109123234D01*
X127755535Y-109260885D01*
X127998539Y-109309221D01*
X134090469Y-109309221D01*
X134095267Y-109320833D01*
X134416518Y-109642644D01*
X134836467Y-109817022D01*
X135291180Y-109817419D01*
X135711433Y-109643775D01*
X136033244Y-109322524D01*
X136207622Y-108902575D01*
X136208019Y-108447862D01*
X136208019Y-109506948D01*
X135892449Y-109821969D01*
X135718071Y-110241918D01*
X135717674Y-110696631D01*
X135891318Y-111116884D01*
X136212569Y-111438695D01*
X136632518Y-111613073D01*
X137087231Y-111613470D01*
X137507484Y-111439826D01*
X137829295Y-111118575D01*
X138003673Y-110698626D01*
X138004070Y-110243913D01*
X138004070Y-111302999D01*
X137688500Y-111618020D01*
X137514122Y-112037969D01*
X137513725Y-112492682D01*
X137687369Y-112912935D01*
X138008620Y-113234746D01*
X138428569Y-113409124D01*
X138883282Y-113409521D01*
X139303535Y-113235877D01*
X139625346Y-112914626D01*
X139799724Y-112494677D01*
X139800121Y-112039964D01*
X139800121Y-113099050D01*
X139484551Y-113414071D01*
X139310173Y-113834020D01*
X139309776Y-114288733D01*
X139483420Y-114708986D01*
X139804671Y-115030797D01*
X140224620Y-115205175D01*
X140679333Y-115205572D01*
X141099586Y-115031928D01*
X141421397Y-114710677D01*
X141595775Y-114290728D01*
X141596172Y-113836015D01*
X141596172Y-114895103D01*
X141280603Y-115210123D01*
X141106225Y-115630072D01*
X141105828Y-116084785D01*
X141279472Y-116505038D01*
X141600723Y-116826849D01*
X142020672Y-117001227D01*
X142475385Y-117001624D01*
X142895638Y-116827980D01*
X143217449Y-116506729D01*
X143391827Y-116086780D01*
X143392224Y-115632067D01*
X143392224Y-116691153D01*
X143076654Y-117006174D01*
X142902276Y-117426123D01*
X142901879Y-117880836D01*
X143075523Y-118301089D01*
X143396774Y-118622900D01*
X143816723Y-118797278D01*
X144271436Y-118797675D01*
X144691689Y-118624031D01*
X145013500Y-118302780D01*
X145187878Y-117882831D01*
X145188275Y-117428118D01*
X145188275Y-118487204D01*
X144872705Y-118802225D01*
X144698327Y-119222174D01*
X144697930Y-119676887D01*
X144871574Y-120097140D01*
X145192825Y-120418951D01*
X145612774Y-120593329D01*
X146067487Y-120593726D01*
X146487740Y-120420082D01*
X146809551Y-120098831D01*
X146983929Y-119678882D01*
X146984326Y-119224169D01*
X146810682Y-118803916D01*
X146489431Y-118482105D01*
X146349128Y-118423846D01*
X146349128Y-100375128D01*
X146310459Y-100180725D01*
X146310459Y-100180724D01*
X146200338Y-100015918D01*
X132714852Y-86530432D01*
X132715154Y-86183943D01*
X132623371Y-85961813D01*
X132664391Y-85978846D01*
X133012729Y-85979149D01*
X147129179Y-100095599D01*
X147129179Y-120219752D01*
X146990567Y-120277025D01*
X146668756Y-120598276D01*
X146494378Y-121018225D01*
X146493981Y-121472938D01*
X146667625Y-121893191D01*
X146988876Y-122215002D01*
X147408825Y-122389380D01*
X147863538Y-122389777D01*
X148283791Y-122216133D01*
X148605602Y-121894882D01*
X148779980Y-121474933D01*
X148780377Y-121020220D01*
X148606733Y-120599967D01*
X148285482Y-120278156D01*
X148145179Y-120219897D01*
X148145179Y-99885179D01*
X148106510Y-99690776D01*
X147996389Y-99525969D01*
X133730852Y-85260432D01*
X133731154Y-84913943D01*
X133639371Y-84691813D01*
X133680391Y-84708846D01*
X134028729Y-84709149D01*
X148925231Y-99605651D01*
X148925231Y-122015804D01*
X148786619Y-122073077D01*
X148464808Y-122394328D01*
X148290430Y-122814277D01*
X148290033Y-123268990D01*
X148463677Y-123689243D01*
X148784928Y-124011054D01*
X149204877Y-124185432D01*
X149659590Y-124185829D01*
X150079843Y-124012185D01*
X150401654Y-123690934D01*
X150576032Y-123270985D01*
X150576429Y-122816272D01*
X150576429Y-132448300D01*
X147124826Y-132448300D01*
X146775234Y-132429529D01*
X146451216Y-132381611D01*
X146118443Y-132299558D01*
X145810189Y-132188496D01*
X145506377Y-132044585D01*
X145219936Y-131874083D01*
X144953314Y-131675247D01*
X144669359Y-131412588D01*
X101432360Y-88215897D01*
X101432360Y-87249000D01*
X101432360Y-86741000D01*
X101432360Y-86487000D01*
X101432360Y-85979000D01*
X101337110Y-85883750D01*
X101083524Y-85883750D01*
X100943490Y-85941754D01*
X100836314Y-86048931D01*
X100778310Y-86188965D01*
X100778310Y-86340536D01*
X100778310Y-86391750D01*
X100873560Y-86487000D01*
X101432360Y-86487000D01*
X101432360Y-86741000D01*
X100873560Y-86741000D01*
X100778310Y-86836250D01*
X100778310Y-86887464D01*
X100778310Y-87039035D01*
X100836314Y-87179069D01*
X100943490Y-87286246D01*
X101083524Y-87344250D01*
X101337110Y-87344250D01*
X101432360Y-87249000D01*
X101432360Y-88215897D01*
X96242925Y-83031300D01*
X97348549Y-83490395D01*
X98733376Y-83491603D01*
X100013252Y-82962769D01*
X100993328Y-81984403D01*
X101524395Y-80705451D01*
X101525603Y-79320624D01*
X100996769Y-78040748D01*
X100018403Y-77060672D01*
X98893808Y-76593700D01*
X155108578Y-76593700D01*
X153986748Y-77057231D01*
X153006672Y-78035597D01*
X152475605Y-79314549D01*
X152474397Y-80699376D01*
X153003231Y-81979252D01*
X153981597Y-82959328D01*
X155260549Y-83490395D01*
X156645376Y-83491603D01*
X157925252Y-82962769D01*
X158905328Y-81984403D01*
X159372300Y-80859808D01*
X159372300Y-128184578D01*
X159372300Y-128184578D01*
G37*
X159372300Y-128184578D02*
X158908769Y-127062748D01*
X157930403Y-126082672D01*
X156651451Y-125551605D01*
X155266624Y-125550397D01*
X153986748Y-126079231D01*
X153006672Y-127057597D01*
X152475605Y-128336549D01*
X152474397Y-129721376D01*
X153003231Y-131001252D01*
X153981597Y-131981328D01*
X155106191Y-132448300D01*
X152398983Y-132448300D01*
X152398983Y-78740000D01*
X152304243Y-78263712D01*
X152034448Y-77859935D01*
X151630671Y-77590140D01*
X151154383Y-77495400D01*
X151105617Y-77495400D01*
X150629329Y-77590140D01*
X150225552Y-77859935D01*
X149955757Y-78263712D01*
X149861017Y-78740000D01*
X149955757Y-79216288D01*
X150225552Y-79620065D01*
X150629329Y-79889860D01*
X151105617Y-79984600D01*
X151154383Y-79984600D01*
X151630671Y-79889860D01*
X152034448Y-79620065D01*
X152304243Y-79216288D01*
X152398983Y-78740000D01*
X152398983Y-132448300D01*
X152332993Y-132448300D01*
X152332993Y-81599118D01*
X152332993Y-80960882D01*
X152206305Y-80654999D01*
X151885199Y-80290690D01*
X151449120Y-80076995D01*
X151257000Y-80137135D01*
X151257000Y-81153000D01*
X152272312Y-81153000D01*
X152332993Y-80960882D01*
X152332993Y-81599118D01*
X152272312Y-81407000D01*
X151257000Y-81407000D01*
X151257000Y-82422865D01*
X151449120Y-82483005D01*
X151885199Y-82269310D01*
X152206305Y-81905001D01*
X152332993Y-81599118D01*
X152332993Y-132448300D01*
X151003000Y-132448300D01*
X151003000Y-82422865D01*
X151003000Y-81407000D01*
X151003000Y-81153000D01*
X151003000Y-80137135D01*
X150810880Y-80076995D01*
X150374801Y-80290690D01*
X150053695Y-80654999D01*
X149927007Y-80960882D01*
X149987688Y-81153000D01*
X151003000Y-81153000D01*
X151003000Y-81407000D01*
X149987688Y-81407000D01*
X149927007Y-81599118D01*
X150053695Y-81905001D01*
X150374801Y-82269310D01*
X150810880Y-82483005D01*
X151003000Y-82422865D01*
X151003000Y-132448300D01*
X150576429Y-132448300D01*
X150576429Y-122816272D01*
X150402785Y-122396019D01*
X150081534Y-122074208D01*
X149941231Y-122015949D01*
X149941231Y-99395231D01*
X149902562Y-99200828D01*
X149858983Y-99135607D01*
X149858983Y-81280000D01*
X149858983Y-78740000D01*
X149764243Y-78263712D01*
X149494448Y-77859935D01*
X149090671Y-77590140D01*
X148614383Y-77495400D01*
X148565617Y-77495400D01*
X148089329Y-77590140D01*
X147685552Y-77859935D01*
X147415757Y-78263712D01*
X147321017Y-78740000D01*
X147415757Y-79216288D01*
X147685552Y-79620065D01*
X148089329Y-79889860D01*
X148565617Y-79984600D01*
X148614383Y-79984600D01*
X149090671Y-79889860D01*
X149494448Y-79620065D01*
X149764243Y-79216288D01*
X149858983Y-78740000D01*
X149858983Y-81280000D01*
X149764243Y-80803712D01*
X149494448Y-80399935D01*
X149090671Y-80130140D01*
X148614383Y-80035400D01*
X148565617Y-80035400D01*
X148089329Y-80130140D01*
X147685552Y-80399935D01*
X147415757Y-80803712D01*
X147321017Y-81280000D01*
X147415757Y-81756288D01*
X147685552Y-82160065D01*
X148089329Y-82429860D01*
X148565617Y-82524600D01*
X148614383Y-82524600D01*
X149090671Y-82429860D01*
X149494448Y-82160065D01*
X149764243Y-81756288D01*
X149858983Y-81280000D01*
X149858983Y-99135607D01*
X149792441Y-99036021D01*
X147318983Y-96562563D01*
X147318983Y-81280000D01*
X147318983Y-78740000D01*
X147224243Y-78263712D01*
X146954448Y-77859935D01*
X146550671Y-77590140D01*
X146074383Y-77495400D01*
X146025617Y-77495400D01*
X145549329Y-77590140D01*
X145145552Y-77859935D01*
X144875757Y-78263712D01*
X144781017Y-78740000D01*
X144875757Y-79216288D01*
X145145552Y-79620065D01*
X145549329Y-79889860D01*
X146025617Y-79984600D01*
X146074383Y-79984600D01*
X146550671Y-79889860D01*
X146954448Y-79620065D01*
X147224243Y-79216288D01*
X147318983Y-78740000D01*
X147318983Y-81280000D01*
X147224243Y-80803712D01*
X146954448Y-80399935D01*
X146550671Y-80130140D01*
X146074383Y-80035400D01*
X146025617Y-80035400D01*
X145549329Y-80130140D01*
X145145552Y-80399935D01*
X144875757Y-80803712D01*
X144781017Y-81280000D01*
X144875757Y-81756288D01*
X145145552Y-82160065D01*
X145549329Y-82429860D01*
X146025617Y-82524600D01*
X146074383Y-82524600D01*
X146550671Y-82429860D01*
X146954448Y-82160065D01*
X147224243Y-81756288D01*
X147318983Y-81280000D01*
X147318983Y-96562563D01*
X144778983Y-94022563D01*
X144778983Y-81280000D01*
X144712993Y-80948247D01*
X144712993Y-79059118D01*
X144712993Y-78420882D01*
X144586305Y-78114999D01*
X144265199Y-77750690D01*
X143829120Y-77536995D01*
X143637000Y-77597135D01*
X143637000Y-78613000D01*
X144652312Y-78613000D01*
X144712993Y-78420882D01*
X144712993Y-79059118D01*
X144652312Y-78867000D01*
X143637000Y-78867000D01*
X143637000Y-79882865D01*
X143829120Y-79943005D01*
X144265199Y-79729310D01*
X144586305Y-79365001D01*
X144712993Y-79059118D01*
X144712993Y-80948247D01*
X144684243Y-80803712D01*
X144414448Y-80399935D01*
X144010671Y-80130140D01*
X143534383Y-80035400D01*
X143485617Y-80035400D01*
X143383000Y-80055811D01*
X143383000Y-79882865D01*
X143383000Y-78867000D01*
X143383000Y-78613000D01*
X143383000Y-77597135D01*
X143190880Y-77536995D01*
X142754801Y-77750690D01*
X142433695Y-78114999D01*
X142307007Y-78420882D01*
X142367688Y-78613000D01*
X143383000Y-78613000D01*
X143383000Y-78867000D01*
X142367688Y-78867000D01*
X142307007Y-79059118D01*
X142433695Y-79365001D01*
X142754801Y-79729310D01*
X143190880Y-79943005D01*
X143383000Y-79882865D01*
X143383000Y-80055811D01*
X143009329Y-80130140D01*
X142605552Y-80399935D01*
X142335757Y-80803712D01*
X142241017Y-81280000D01*
X142335757Y-81756288D01*
X142605552Y-82160065D01*
X143009329Y-82429860D01*
X143485617Y-82524600D01*
X143534383Y-82524600D01*
X144010671Y-82429860D01*
X144414448Y-82160065D01*
X144684243Y-81756288D01*
X144778983Y-81280000D01*
X144778983Y-94022563D01*
X142238983Y-91482563D01*
X142238983Y-81280000D01*
X142238983Y-78740000D01*
X142144243Y-78263712D01*
X141874448Y-77859935D01*
X141470671Y-77590140D01*
X140994383Y-77495400D01*
X140945617Y-77495400D01*
X140469329Y-77590140D01*
X140065552Y-77859935D01*
X139795757Y-78263712D01*
X139701017Y-78740000D01*
X139795757Y-79216288D01*
X140065552Y-79620065D01*
X140469329Y-79889860D01*
X140945617Y-79984600D01*
X140994383Y-79984600D01*
X141470671Y-79889860D01*
X141874448Y-79620065D01*
X142144243Y-79216288D01*
X142238983Y-78740000D01*
X142238983Y-81280000D01*
X142144243Y-80803712D01*
X141874448Y-80399935D01*
X141470671Y-80130140D01*
X140994383Y-80035400D01*
X140945617Y-80035400D01*
X140469329Y-80130140D01*
X140065552Y-80399935D01*
X139795757Y-80803712D01*
X139701017Y-81280000D01*
X139795757Y-81756288D01*
X140065552Y-82160065D01*
X140469329Y-82429860D01*
X140945617Y-82524600D01*
X140994383Y-82524600D01*
X141470671Y-82429860D01*
X141874448Y-82160065D01*
X142144243Y-81756288D01*
X142238983Y-81280000D01*
X142238983Y-91482563D01*
X139698983Y-88942563D01*
X139698983Y-81280000D01*
X139632993Y-80948247D01*
X139632993Y-79059118D01*
X139632993Y-78420882D01*
X139506305Y-78114999D01*
X139185199Y-77750690D01*
X138749120Y-77536995D01*
X138557000Y-77597135D01*
X138557000Y-78613000D01*
X139572312Y-78613000D01*
X139632993Y-78420882D01*
X139632993Y-79059118D01*
X139572312Y-78867000D01*
X138557000Y-78867000D01*
X138557000Y-79882865D01*
X138749120Y-79943005D01*
X139185199Y-79729310D01*
X139506305Y-79365001D01*
X139632993Y-79059118D01*
X139632993Y-80948247D01*
X139604243Y-80803712D01*
X139334448Y-80399935D01*
X138930671Y-80130140D01*
X138454383Y-80035400D01*
X138405617Y-80035400D01*
X138303000Y-80055811D01*
X138303000Y-79882865D01*
X138303000Y-78867000D01*
X138303000Y-78613000D01*
X138303000Y-77597135D01*
X138110880Y-77536995D01*
X137674801Y-77750690D01*
X137353695Y-78114999D01*
X137227007Y-78420882D01*
X137287688Y-78613000D01*
X138303000Y-78613000D01*
X138303000Y-78867000D01*
X137287688Y-78867000D01*
X137227007Y-79059118D01*
X137353695Y-79365001D01*
X137674801Y-79729310D01*
X138110880Y-79943005D01*
X138303000Y-79882865D01*
X138303000Y-80055811D01*
X137929329Y-80130140D01*
X137525552Y-80399935D01*
X137255757Y-80803712D01*
X137161017Y-81280000D01*
X137255757Y-81756288D01*
X137525552Y-82160065D01*
X137929329Y-82429860D01*
X138405617Y-82524600D01*
X138454383Y-82524600D01*
X138930671Y-82429860D01*
X139334448Y-82160065D01*
X139604243Y-81756288D01*
X139698983Y-81280000D01*
X139698983Y-88942563D01*
X137158983Y-86402563D01*
X137158983Y-81280000D01*
X137158983Y-78740000D01*
X137064243Y-78263712D01*
X136794448Y-77859935D01*
X136390671Y-77590140D01*
X135914383Y-77495400D01*
X135865617Y-77495400D01*
X135389329Y-77590140D01*
X134985552Y-77859935D01*
X134715757Y-78263712D01*
X134621017Y-78740000D01*
X134715757Y-79216288D01*
X134985552Y-79620065D01*
X135389329Y-79889860D01*
X135865617Y-79984600D01*
X135914383Y-79984600D01*
X136390671Y-79889860D01*
X136794448Y-79620065D01*
X137064243Y-79216288D01*
X137158983Y-78740000D01*
X137158983Y-81280000D01*
X137064243Y-80803712D01*
X136794448Y-80399935D01*
X136390671Y-80130140D01*
X135914383Y-80035400D01*
X135865617Y-80035400D01*
X135389329Y-80130140D01*
X134985552Y-80399935D01*
X134715757Y-80803712D01*
X134621017Y-81280000D01*
X134715757Y-81756288D01*
X134985552Y-82160065D01*
X135389329Y-82429860D01*
X135865617Y-82524600D01*
X135914383Y-82524600D01*
X136390671Y-82429860D01*
X136794448Y-82160065D01*
X137064243Y-81756288D01*
X137158983Y-81280000D01*
X137158983Y-86402563D01*
X134746852Y-83990432D01*
X134747154Y-83643943D01*
X134618983Y-83333745D01*
X134618983Y-78740000D01*
X134524243Y-78263712D01*
X134254448Y-77859935D01*
X133850671Y-77590140D01*
X133374383Y-77495400D01*
X133325617Y-77495400D01*
X132849329Y-77590140D01*
X132445552Y-77859935D01*
X132175757Y-78263712D01*
X132081017Y-78740000D01*
X132175757Y-79216288D01*
X132445552Y-79620065D01*
X132849329Y-79889860D01*
X133325617Y-79984600D01*
X133374383Y-79984600D01*
X133850671Y-79889860D01*
X134254448Y-79620065D01*
X134524243Y-79216288D01*
X134618983Y-78740000D01*
X134618983Y-83333745D01*
X134612097Y-83317080D01*
X134552993Y-83257872D01*
X134552993Y-81599118D01*
X134552993Y-80960882D01*
X134426305Y-80654999D01*
X134105199Y-80290690D01*
X133669120Y-80076995D01*
X133477000Y-80137135D01*
X133477000Y-81153000D01*
X134492312Y-81153000D01*
X134552993Y-80960882D01*
X134552993Y-81599118D01*
X134492312Y-81407000D01*
X133477000Y-81407000D01*
X133477000Y-82422865D01*
X133669120Y-82483005D01*
X134105199Y-82269310D01*
X134426305Y-81905001D01*
X134552993Y-81599118D01*
X134552993Y-83257872D01*
X134362236Y-83066782D01*
X134035609Y-82931154D01*
X133681943Y-82930846D01*
X133355080Y-83065903D01*
X133223000Y-83197752D01*
X133223000Y-82422865D01*
X133223000Y-81407000D01*
X133223000Y-81153000D01*
X133223000Y-80137135D01*
X133030880Y-80076995D01*
X132594801Y-80290690D01*
X132273695Y-80654999D01*
X132147007Y-80960882D01*
X132207688Y-81153000D01*
X133223000Y-81153000D01*
X133223000Y-81407000D01*
X132207688Y-81407000D01*
X132147007Y-81599118D01*
X132273695Y-81905001D01*
X132594801Y-82269310D01*
X133030880Y-82483005D01*
X133223000Y-82422865D01*
X133223000Y-83197752D01*
X133104782Y-83315764D01*
X132969154Y-83642391D01*
X132968846Y-83996057D01*
X133060628Y-84218186D01*
X133019609Y-84201154D01*
X132665943Y-84200846D01*
X132339080Y-84335903D01*
X132088782Y-84585764D01*
X131953154Y-84912391D01*
X131952846Y-85266057D01*
X132044628Y-85488186D01*
X132003609Y-85471154D01*
X131649943Y-85470846D01*
X131323080Y-85605903D01*
X131072782Y-85855764D01*
X130937154Y-86182391D01*
X130936846Y-86536057D01*
X131071903Y-86862920D01*
X131321764Y-87113218D01*
X131648391Y-87248846D01*
X131996729Y-87249149D01*
X145333128Y-100585548D01*
X145333128Y-118423701D01*
X145194516Y-118480974D01*
X145188275Y-118487204D01*
X145188275Y-117428118D01*
X145014631Y-117007865D01*
X144693380Y-116686054D01*
X144553077Y-116627795D01*
X144553077Y-114005996D01*
X144771218Y-113788236D01*
X144906846Y-113461609D01*
X144907154Y-113107943D01*
X144772097Y-112781080D01*
X144522236Y-112530782D01*
X144195609Y-112395154D01*
X143841943Y-112394846D01*
X143515080Y-112529903D01*
X143264782Y-112779764D01*
X143129154Y-113106391D01*
X143128846Y-113460057D01*
X143263903Y-113786920D01*
X143513764Y-114037218D01*
X143537077Y-114046898D01*
X143537077Y-116627650D01*
X143398465Y-116684923D01*
X143392224Y-116691153D01*
X143392224Y-115632067D01*
X143218580Y-115211814D01*
X142897329Y-114890003D01*
X142757026Y-114831744D01*
X142757026Y-108944015D01*
X142993218Y-108708236D01*
X143128846Y-108381609D01*
X143129154Y-108027943D01*
X142994097Y-107701080D01*
X142744236Y-107450782D01*
X142417609Y-107315154D01*
X142063943Y-107314846D01*
X141737080Y-107449903D01*
X141486782Y-107699764D01*
X141351154Y-108026391D01*
X141350846Y-108380057D01*
X141485903Y-108706920D01*
X141735764Y-108957218D01*
X141741026Y-108959402D01*
X141741026Y-114831599D01*
X141602414Y-114888872D01*
X141596172Y-114895103D01*
X141596172Y-113836015D01*
X141422528Y-113415762D01*
X141101277Y-113093951D01*
X140960974Y-113035692D01*
X140960974Y-102098974D01*
X140922305Y-101904571D01*
X140812185Y-101739764D01*
X131698852Y-92626432D01*
X131699154Y-92279943D01*
X131564097Y-91953080D01*
X131318000Y-91706552D01*
X131318000Y-88519000D01*
X131279331Y-88324597D01*
X131279330Y-88324596D01*
X131242790Y-88269910D01*
X131169210Y-88159790D01*
X131169210Y-88159789D01*
X130810000Y-87800579D01*
X130810000Y-86062420D01*
X131169210Y-85703211D01*
X131169210Y-85703210D01*
X131242790Y-85593090D01*
X131279330Y-85538404D01*
X131279331Y-85538403D01*
X131317999Y-85344000D01*
X131318000Y-85344000D01*
X131318000Y-82424962D01*
X131714448Y-82160065D01*
X131984243Y-81756288D01*
X132078983Y-81280000D01*
X132078983Y-78740000D01*
X131984243Y-78263712D01*
X131714448Y-77859935D01*
X131310671Y-77590140D01*
X130834383Y-77495400D01*
X130785617Y-77495400D01*
X130309329Y-77590140D01*
X129905552Y-77859935D01*
X129635757Y-78263712D01*
X129541017Y-78740000D01*
X129635757Y-79216288D01*
X129905552Y-79620065D01*
X130309329Y-79889860D01*
X130785617Y-79984600D01*
X130834383Y-79984600D01*
X131310671Y-79889860D01*
X131714448Y-79620065D01*
X131984243Y-79216288D01*
X132078983Y-78740000D01*
X132078983Y-81280000D01*
X131984243Y-80803712D01*
X131714448Y-80399935D01*
X131310671Y-80130140D01*
X130834383Y-80035400D01*
X130785617Y-80035400D01*
X130309329Y-80130140D01*
X129905552Y-80399935D01*
X129635757Y-80803712D01*
X129541017Y-81280000D01*
X129635757Y-81756288D01*
X129905552Y-82160065D01*
X130302000Y-82424962D01*
X130302000Y-85133579D01*
X129942790Y-85492790D01*
X129832669Y-85657597D01*
X129794000Y-85852000D01*
X129794000Y-88011000D01*
X129832669Y-88205403D01*
X129942790Y-88370210D01*
X130302000Y-88729420D01*
X130302000Y-91706974D01*
X130056782Y-91951764D01*
X129921154Y-92278391D01*
X129920846Y-92632057D01*
X130055903Y-92958920D01*
X130305764Y-93209218D01*
X130632391Y-93344846D01*
X130980729Y-93345149D01*
X139944974Y-102309394D01*
X139944974Y-113035547D01*
X139806362Y-113092820D01*
X139800121Y-113099050D01*
X139800121Y-112039964D01*
X139626477Y-111619711D01*
X139305226Y-111297900D01*
X138885277Y-111123522D01*
X138430564Y-111123125D01*
X138010311Y-111296769D01*
X138004070Y-111302999D01*
X138004070Y-110243913D01*
X137830426Y-109823660D01*
X137509175Y-109501849D01*
X137368872Y-109443590D01*
X137368872Y-100538872D01*
X137330203Y-100344469D01*
X137220082Y-100179662D01*
X129794000Y-92753580D01*
X129794000Y-91046025D01*
X130039218Y-90801236D01*
X130174846Y-90474609D01*
X130175154Y-90120943D01*
X130040097Y-89794080D01*
X129790236Y-89543782D01*
X129538983Y-89439452D01*
X129538983Y-81280000D01*
X129538983Y-78740000D01*
X129444243Y-78263712D01*
X129174448Y-77859935D01*
X128770671Y-77590140D01*
X128294383Y-77495400D01*
X128245617Y-77495400D01*
X127769329Y-77590140D01*
X127365552Y-77859935D01*
X127095757Y-78263712D01*
X127001017Y-78740000D01*
X127095757Y-79216288D01*
X127365552Y-79620065D01*
X127769329Y-79889860D01*
X128245617Y-79984600D01*
X128294383Y-79984600D01*
X128770671Y-79889860D01*
X129174448Y-79620065D01*
X129444243Y-79216288D01*
X129538983Y-78740000D01*
X129538983Y-81280000D01*
X129444243Y-80803712D01*
X129174448Y-80399935D01*
X128770671Y-80130140D01*
X128294383Y-80035400D01*
X128245617Y-80035400D01*
X127769329Y-80130140D01*
X127365552Y-80399935D01*
X127095757Y-80803712D01*
X127001017Y-81280000D01*
X127095757Y-81756288D01*
X127365552Y-82160065D01*
X127762000Y-82424962D01*
X127762000Y-88435579D01*
X127275790Y-88921790D01*
X127165669Y-89086597D01*
X127127000Y-89281000D01*
X127127000Y-90805000D01*
X127165669Y-90999403D01*
X127275790Y-91164210D01*
X127635000Y-91523420D01*
X127635000Y-93357974D01*
X127389782Y-93602764D01*
X127254154Y-93929391D01*
X127253846Y-94283057D01*
X127388903Y-94609920D01*
X127638764Y-94860218D01*
X127965391Y-94995846D01*
X128319057Y-94996154D01*
X128645920Y-94861097D01*
X128896218Y-94611236D01*
X129031846Y-94284609D01*
X129032154Y-93930943D01*
X128897097Y-93604080D01*
X128651000Y-93357552D01*
X128651000Y-91313000D01*
X128612331Y-91118597D01*
X128612330Y-91118596D01*
X128575790Y-91063910D01*
X128502210Y-90953790D01*
X128502210Y-90953789D01*
X128143000Y-90594579D01*
X128143000Y-89491420D01*
X128629210Y-89005210D01*
X128629211Y-89005210D01*
X128739331Y-88840403D01*
X128778000Y-88646000D01*
X128778000Y-82424962D01*
X129174448Y-82160065D01*
X129444243Y-81756288D01*
X129538983Y-81280000D01*
X129538983Y-89439452D01*
X129463609Y-89408154D01*
X129109943Y-89407846D01*
X128783080Y-89542903D01*
X128532782Y-89792764D01*
X128397154Y-90119391D01*
X128396846Y-90473057D01*
X128531903Y-90799920D01*
X128778000Y-91046447D01*
X128778000Y-92964000D01*
X128816669Y-93158403D01*
X128926790Y-93323210D01*
X136352872Y-100749292D01*
X136352872Y-109443445D01*
X136214260Y-109500718D01*
X136208019Y-109506948D01*
X136208019Y-108447862D01*
X136034375Y-108027609D01*
X135713124Y-107705798D01*
X135293175Y-107531420D01*
X134838462Y-107531023D01*
X134418209Y-107704667D01*
X134393091Y-107729741D01*
X134393091Y-107184827D01*
X134393091Y-106571511D01*
X134190154Y-106164595D01*
X133846945Y-105866314D01*
X133575427Y-105753847D01*
X133395769Y-105815589D01*
X133395769Y-106751169D01*
X134331349Y-106751169D01*
X134393091Y-106571511D01*
X134393091Y-107184827D01*
X134331349Y-107005169D01*
X133395769Y-107005169D01*
X133395769Y-107940749D01*
X133575427Y-108002491D01*
X133982343Y-107799554D01*
X134280624Y-107456345D01*
X134393091Y-107184827D01*
X134393091Y-107729741D01*
X134096398Y-108025918D01*
X134090874Y-108039221D01*
X133141769Y-108039221D01*
X133141769Y-107940749D01*
X133141769Y-107005169D01*
X133141769Y-106751169D01*
X133141769Y-105815589D01*
X132962111Y-105753847D01*
X132555195Y-105956784D01*
X132256914Y-106299993D01*
X132144447Y-106571511D01*
X132206189Y-106751169D01*
X133141769Y-106751169D01*
X133141769Y-107005169D01*
X132206189Y-107005169D01*
X132144447Y-107184827D01*
X132347384Y-107591743D01*
X132690593Y-107890024D01*
X132962111Y-108002491D01*
X133141769Y-107940749D01*
X133141769Y-108039221D01*
X128261565Y-108039221D01*
X110788906Y-90566562D01*
X111155234Y-90200234D01*
X113184063Y-88171404D01*
X113195667Y-88176222D01*
X113650380Y-88176619D01*
X114070633Y-88002975D01*
X114392444Y-87681724D01*
X114566822Y-87261775D01*
X114567219Y-86807062D01*
X114393575Y-86386809D01*
X114072324Y-86064998D01*
X113652375Y-85890620D01*
X113197662Y-85890223D01*
X112777409Y-86063867D01*
X112752291Y-86088941D01*
X112752291Y-85544027D01*
X112752291Y-84930711D01*
X112549354Y-84523795D01*
X112206145Y-84225514D01*
X111934627Y-84113047D01*
X111754969Y-84174789D01*
X111754969Y-85110369D01*
X112690549Y-85110369D01*
X112752291Y-84930711D01*
X112752291Y-85544027D01*
X112690549Y-85364369D01*
X111754969Y-85364369D01*
X111754969Y-86299949D01*
X111934627Y-86361691D01*
X112341543Y-86158754D01*
X112639824Y-85815545D01*
X112752291Y-85544027D01*
X112752291Y-86088941D01*
X112455598Y-86385118D01*
X112281220Y-86805067D01*
X112280823Y-87259780D01*
X112286323Y-87273092D01*
X111500969Y-88058446D01*
X111500969Y-86299949D01*
X111500969Y-85364369D01*
X111500969Y-85110369D01*
X111500969Y-84174789D01*
X111321311Y-84113047D01*
X110914395Y-84315984D01*
X110616114Y-84659193D01*
X110503647Y-84930711D01*
X110565389Y-85110369D01*
X111500969Y-85110369D01*
X111500969Y-85364369D01*
X110565389Y-85364369D01*
X110503647Y-85544027D01*
X110706584Y-85950943D01*
X111049793Y-86249224D01*
X111321311Y-86361691D01*
X111500969Y-86299949D01*
X111500969Y-88058446D01*
X110257208Y-89302208D01*
X109770416Y-89789000D01*
X109770415Y-89789000D01*
X109218983Y-89789000D01*
X109218983Y-81280000D01*
X109152993Y-80948247D01*
X109152993Y-79059118D01*
X109092312Y-78867000D01*
X108077000Y-78867000D01*
X108077000Y-79882865D01*
X108269120Y-79943005D01*
X108705199Y-79729310D01*
X109026305Y-79365001D01*
X109152993Y-79059118D01*
X109152993Y-80948247D01*
X109124243Y-80803712D01*
X108854448Y-80399935D01*
X108450671Y-80130140D01*
X107974383Y-80035400D01*
X107925617Y-80035400D01*
X107823000Y-80055811D01*
X107823000Y-79882865D01*
X107823000Y-78867000D01*
X106807688Y-78867000D01*
X106747007Y-79059118D01*
X106873695Y-79365001D01*
X107194801Y-79729310D01*
X107630880Y-79943005D01*
X107823000Y-79882865D01*
X107823000Y-80055811D01*
X107449329Y-80130140D01*
X107045552Y-80399935D01*
X106775757Y-80803712D01*
X106681017Y-81280000D01*
X106775757Y-81756288D01*
X107045552Y-82160065D01*
X107449329Y-82429860D01*
X107925617Y-82524600D01*
X107974383Y-82524600D01*
X108450671Y-82429860D01*
X108854448Y-82160065D01*
X109124243Y-81756288D01*
X109218983Y-81280000D01*
X109218983Y-89789000D01*
X107324025Y-89789000D01*
X106678983Y-89143958D01*
X106678983Y-81280000D01*
X106584243Y-80803712D01*
X106314448Y-80399935D01*
X105910671Y-80130140D01*
X105434383Y-80035400D01*
X105385617Y-80035400D01*
X104909329Y-80130140D01*
X104505552Y-80399935D01*
X104235757Y-80803712D01*
X104141017Y-81280000D01*
X104235757Y-81756288D01*
X104505552Y-82160065D01*
X104909329Y-82429860D01*
X105385617Y-82524600D01*
X105434383Y-82524600D01*
X105910671Y-82429860D01*
X106314448Y-82160065D01*
X106584243Y-81756288D01*
X106678983Y-81280000D01*
X106678983Y-89143958D01*
X105977690Y-88442665D01*
X105977690Y-87039035D01*
X105977690Y-86887464D01*
X105977690Y-86836250D01*
X105977690Y-86391750D01*
X105977690Y-86340536D01*
X105977690Y-86188965D01*
X105919686Y-86048931D01*
X105812510Y-85941754D01*
X105672476Y-85883750D01*
X105615740Y-85883750D01*
X105615740Y-84899085D01*
X105615740Y-84747514D01*
X105615740Y-84296250D01*
X105615740Y-83851750D01*
X105615740Y-83400486D01*
X105615740Y-83248915D01*
X105557736Y-83108881D01*
X105450560Y-83001704D01*
X105310526Y-82943700D01*
X104806750Y-82943700D01*
X104711500Y-83038950D01*
X104711500Y-83947000D01*
X105520490Y-83947000D01*
X105615740Y-83851750D01*
X105615740Y-84296250D01*
X105520490Y-84201000D01*
X104711500Y-84201000D01*
X104711500Y-85109050D01*
X104806750Y-85204300D01*
X105310526Y-85204300D01*
X105450560Y-85146296D01*
X105557736Y-85039119D01*
X105615740Y-84899085D01*
X105615740Y-85883750D01*
X105418890Y-85883750D01*
X105323640Y-85979000D01*
X105323640Y-86487000D01*
X105882440Y-86487000D01*
X105977690Y-86391750D01*
X105977690Y-86836250D01*
X105882440Y-86741000D01*
X105323640Y-86741000D01*
X105323640Y-87249000D01*
X105418890Y-87344250D01*
X105672476Y-87344250D01*
X105812510Y-87286246D01*
X105919686Y-87179069D01*
X105977690Y-87039035D01*
X105977690Y-88442665D01*
X104879275Y-87344250D01*
X104974390Y-87344250D01*
X105069640Y-87249000D01*
X105069640Y-86741000D01*
X105049640Y-86741000D01*
X105049640Y-86487000D01*
X105069640Y-86487000D01*
X105069640Y-85979000D01*
X104974390Y-85883750D01*
X104720804Y-85883750D01*
X104647999Y-85913906D01*
X104575195Y-85883750D01*
X104423624Y-85883750D01*
X103623524Y-85883750D01*
X103483490Y-85941754D01*
X103446244Y-85979000D01*
X103309755Y-85979000D01*
X103291640Y-85960884D01*
X103291640Y-85204300D01*
X103405526Y-85204300D01*
X103545560Y-85146296D01*
X103632000Y-85059855D01*
X103718440Y-85146296D01*
X103858474Y-85204300D01*
X104362250Y-85204300D01*
X104457500Y-85109050D01*
X104457500Y-84201000D01*
X104437500Y-84201000D01*
X104437500Y-83947000D01*
X104457500Y-83947000D01*
X104457500Y-83038950D01*
X104362250Y-82943700D01*
X103858474Y-82943700D01*
X103718440Y-83001704D01*
X103632000Y-83088144D01*
X103545559Y-83001704D01*
X103505000Y-82984903D01*
X103505000Y-82524600D01*
X103809386Y-82524600D01*
X103949420Y-82466596D01*
X104056596Y-82359419D01*
X104114600Y-82219385D01*
X104114600Y-82067814D01*
X104114600Y-80753820D01*
X104499210Y-80369210D01*
X104609331Y-80204404D01*
X104609331Y-80204403D01*
X104615746Y-80172150D01*
X104647999Y-80010000D01*
X104648000Y-80010000D01*
X104648000Y-79715245D01*
X104909329Y-79889860D01*
X105385617Y-79984600D01*
X105434383Y-79984600D01*
X105910671Y-79889860D01*
X106314448Y-79620065D01*
X106584243Y-79216288D01*
X106678983Y-78740000D01*
X106584243Y-78263712D01*
X106393336Y-77978000D01*
X106994447Y-77978000D01*
X106873695Y-78114999D01*
X106747007Y-78420882D01*
X106807688Y-78613000D01*
X107823000Y-78613000D01*
X107823000Y-78593000D01*
X108077000Y-78593000D01*
X108077000Y-78613000D01*
X109092312Y-78613000D01*
X109152993Y-78420882D01*
X109026305Y-78114999D01*
X108905552Y-77978000D01*
X109506663Y-77978000D01*
X109315757Y-78263712D01*
X109221017Y-78740000D01*
X109315757Y-79216288D01*
X109585552Y-79620065D01*
X109989329Y-79889860D01*
X110465617Y-79984600D01*
X110514383Y-79984600D01*
X110932926Y-79901346D01*
X111277399Y-80245819D01*
X111277399Y-80321725D01*
X110990671Y-80130140D01*
X110514383Y-80035400D01*
X110465617Y-80035400D01*
X109989329Y-80130140D01*
X109585552Y-80399935D01*
X109315757Y-80803712D01*
X109221017Y-81280000D01*
X109315757Y-81756288D01*
X109585552Y-82160065D01*
X109989329Y-82429860D01*
X110465617Y-82524600D01*
X110514383Y-82524600D01*
X110990671Y-82429860D01*
X111394448Y-82160065D01*
X111406127Y-82142585D01*
X111426189Y-82172609D01*
X123692328Y-94438748D01*
X123692328Y-96782901D01*
X123553716Y-96840174D01*
X123547475Y-96846404D01*
X123547475Y-95787318D01*
X123373831Y-95367065D01*
X123052580Y-95045254D01*
X122632631Y-94870876D01*
X122177918Y-94870479D01*
X121757665Y-95044123D01*
X121751424Y-95050353D01*
X121751424Y-93991267D01*
X121577780Y-93571014D01*
X121256529Y-93249203D01*
X120836580Y-93074825D01*
X120381867Y-93074428D01*
X119961614Y-93248072D01*
X119955372Y-93254303D01*
X119955372Y-92195215D01*
X119781728Y-91774962D01*
X119460477Y-91453151D01*
X119040528Y-91278773D01*
X118585815Y-91278376D01*
X118165562Y-91452020D01*
X118159321Y-91458250D01*
X118159321Y-90399164D01*
X117985677Y-89978911D01*
X117664426Y-89657100D01*
X117244477Y-89482722D01*
X116789764Y-89482325D01*
X116369511Y-89655969D01*
X116363270Y-89662199D01*
X116363270Y-88603113D01*
X116189626Y-88182860D01*
X115868375Y-87861049D01*
X115448426Y-87686671D01*
X114993713Y-87686274D01*
X114573460Y-87859918D01*
X114251649Y-88181169D01*
X114077271Y-88601118D01*
X114076874Y-89055831D01*
X114250518Y-89476084D01*
X114571769Y-89797895D01*
X114991718Y-89972273D01*
X115446431Y-89972670D01*
X115866684Y-89799026D01*
X116188495Y-89477775D01*
X116362873Y-89057826D01*
X116363270Y-88603113D01*
X116363270Y-89662199D01*
X116047700Y-89977220D01*
X115873322Y-90397169D01*
X115872925Y-90851882D01*
X116046569Y-91272135D01*
X116367820Y-91593946D01*
X116787769Y-91768324D01*
X117242482Y-91768721D01*
X117662735Y-91595077D01*
X117984546Y-91273826D01*
X118158924Y-90853877D01*
X118159321Y-90399164D01*
X118159321Y-91458250D01*
X117843751Y-91773271D01*
X117669373Y-92193220D01*
X117668976Y-92647933D01*
X117842620Y-93068186D01*
X118163871Y-93389997D01*
X118583820Y-93564375D01*
X119038533Y-93564772D01*
X119458786Y-93391128D01*
X119780597Y-93069877D01*
X119954975Y-92649928D01*
X119955372Y-92195215D01*
X119955372Y-93254303D01*
X119639803Y-93569323D01*
X119465425Y-93989272D01*
X119465028Y-94443985D01*
X119638672Y-94864238D01*
X119959923Y-95186049D01*
X120379872Y-95360427D01*
X120834585Y-95360824D01*
X121254838Y-95187180D01*
X121576649Y-94865929D01*
X121751027Y-94445980D01*
X121751424Y-93991267D01*
X121751424Y-95050353D01*
X121435854Y-95365374D01*
X121261476Y-95785323D01*
X121261079Y-96240036D01*
X121434723Y-96660289D01*
X121755974Y-96982100D01*
X122175923Y-97156478D01*
X122630636Y-97156875D01*
X123050889Y-96983231D01*
X123372700Y-96661980D01*
X123547078Y-96242031D01*
X123547475Y-95787318D01*
X123547475Y-96846404D01*
X123231905Y-97161425D01*
X123057527Y-97581374D01*
X123057130Y-98036087D01*
X123230774Y-98456340D01*
X123552025Y-98778151D01*
X123971974Y-98952529D01*
X124426687Y-98952926D01*
X124846940Y-98779282D01*
X125168751Y-98458031D01*
X125343129Y-98038082D01*
X125343526Y-97583369D01*
X125169882Y-97163116D01*
X124848631Y-96841305D01*
X124708328Y-96783046D01*
X124708328Y-94228328D01*
X124669659Y-94033925D01*
X124559538Y-93869118D01*
X113157002Y-82466582D01*
X113157002Y-82422865D01*
X113349120Y-82483005D01*
X113785199Y-82269310D01*
X113920105Y-82116253D01*
X113940790Y-82147210D01*
X124713990Y-92920410D01*
X124713990Y-96224101D01*
X124752659Y-96418504D01*
X124862780Y-96583311D01*
X125488379Y-97208910D01*
X125488379Y-98578952D01*
X125349767Y-98636225D01*
X125027956Y-98957476D01*
X124853578Y-99377425D01*
X124853181Y-99832138D01*
X125026825Y-100252391D01*
X125348076Y-100574202D01*
X125768025Y-100748580D01*
X126222738Y-100748977D01*
X126642991Y-100575333D01*
X126964802Y-100254082D01*
X127139180Y-99834133D01*
X127139577Y-99379420D01*
X126965933Y-98959167D01*
X126644682Y-98637356D01*
X126504379Y-98579097D01*
X126504379Y-96998490D01*
X126477657Y-96864150D01*
X126570068Y-96902523D01*
X126923734Y-96902831D01*
X127250597Y-96767774D01*
X127284431Y-96733999D01*
X127284431Y-100375004D01*
X127145819Y-100432277D01*
X126824008Y-100753528D01*
X126649630Y-101173477D01*
X126649233Y-101628190D01*
X126822877Y-102048443D01*
X127144128Y-102370254D01*
X127564077Y-102544632D01*
X128018790Y-102545029D01*
X128439043Y-102371385D01*
X128760854Y-102050134D01*
X128935232Y-101630185D01*
X128935629Y-101175472D01*
X128761985Y-100755219D01*
X128440734Y-100433408D01*
X128300431Y-100375149D01*
X128300431Y-95788431D01*
X128268177Y-95626280D01*
X128261762Y-95594028D01*
X128261762Y-95594027D01*
X128151641Y-95429221D01*
X126873000Y-94150580D01*
X126873000Y-89110420D01*
X127105210Y-88878211D01*
X127105210Y-88878210D01*
X127215331Y-88713404D01*
X127215331Y-88713403D01*
X127221746Y-88681150D01*
X127253999Y-88519000D01*
X127254000Y-88519000D01*
X127254000Y-88125025D01*
X127499218Y-87880236D01*
X127634846Y-87553609D01*
X127635154Y-87199943D01*
X127500097Y-86873080D01*
X127250236Y-86622782D01*
X126923609Y-86487154D01*
X126569943Y-86486846D01*
X126243080Y-86621903D01*
X126238000Y-86626974D01*
X126238000Y-82424962D01*
X126634448Y-82160065D01*
X126904243Y-81756288D01*
X126998983Y-81280000D01*
X126932993Y-80948247D01*
X126932993Y-79059118D01*
X126932993Y-78420882D01*
X126806305Y-78114999D01*
X126485199Y-77750690D01*
X126049120Y-77536995D01*
X125857000Y-77597135D01*
X125857000Y-78613000D01*
X126872312Y-78613000D01*
X126932993Y-78420882D01*
X126932993Y-79059118D01*
X126872312Y-78867000D01*
X125857000Y-78867000D01*
X125857000Y-79882865D01*
X126049120Y-79943005D01*
X126485199Y-79729310D01*
X126806305Y-79365001D01*
X126932993Y-79059118D01*
X126932993Y-80948247D01*
X126904243Y-80803712D01*
X126634448Y-80399935D01*
X126230671Y-80130140D01*
X125754383Y-80035400D01*
X125705617Y-80035400D01*
X125603000Y-80055811D01*
X125603000Y-79882865D01*
X125603000Y-78867000D01*
X125603000Y-78613000D01*
X125603000Y-77597135D01*
X125410880Y-77536995D01*
X124974801Y-77750690D01*
X124653695Y-78114999D01*
X124527007Y-78420882D01*
X124587688Y-78613000D01*
X125603000Y-78613000D01*
X125603000Y-78867000D01*
X124587688Y-78867000D01*
X124527007Y-79059118D01*
X124653695Y-79365001D01*
X124974801Y-79729310D01*
X125410880Y-79943005D01*
X125603000Y-79882865D01*
X125603000Y-80055811D01*
X125229329Y-80130140D01*
X124825552Y-80399935D01*
X124555757Y-80803712D01*
X124461017Y-81280000D01*
X124555757Y-81756288D01*
X124825552Y-82160065D01*
X125222000Y-82424962D01*
X125222000Y-91991579D01*
X121918983Y-88688562D01*
X121918983Y-81280000D01*
X121824243Y-80803712D01*
X121554448Y-80399935D01*
X121150671Y-80130140D01*
X120674383Y-80035400D01*
X120625617Y-80035400D01*
X120149329Y-80130140D01*
X119745552Y-80399935D01*
X119475757Y-80803712D01*
X119381017Y-81280000D01*
X119475757Y-81756288D01*
X119745552Y-82160065D01*
X120149329Y-82429860D01*
X120625617Y-82524600D01*
X120674383Y-82524600D01*
X121150671Y-82429860D01*
X121554448Y-82160065D01*
X121824243Y-81756288D01*
X121918983Y-81280000D01*
X121918983Y-88688562D01*
X119378983Y-86148562D01*
X119378983Y-81280000D01*
X119312993Y-80948247D01*
X119312993Y-79059118D01*
X119252312Y-78867000D01*
X118237000Y-78867000D01*
X118237000Y-79882865D01*
X118429120Y-79943005D01*
X118865199Y-79729310D01*
X119186305Y-79365001D01*
X119312993Y-79059118D01*
X119312993Y-80948247D01*
X119284243Y-80803712D01*
X119014448Y-80399935D01*
X118610671Y-80130140D01*
X118134383Y-80035400D01*
X118085617Y-80035400D01*
X117983000Y-80055811D01*
X117983000Y-79882865D01*
X117983000Y-78867000D01*
X116967688Y-78867000D01*
X116907007Y-79059118D01*
X117033695Y-79365001D01*
X117354801Y-79729310D01*
X117790880Y-79943005D01*
X117983000Y-79882865D01*
X117983000Y-80055811D01*
X117609329Y-80130140D01*
X117205552Y-80399935D01*
X116935757Y-80803712D01*
X116841017Y-81280000D01*
X116935757Y-81756288D01*
X117205552Y-82160065D01*
X117609329Y-82429860D01*
X118085617Y-82524600D01*
X118134383Y-82524600D01*
X118610671Y-82429860D01*
X119014448Y-82160065D01*
X119284243Y-81756288D01*
X119378983Y-81280000D01*
X119378983Y-86148562D01*
X115728368Y-82497948D01*
X116070671Y-82429860D01*
X116474448Y-82160065D01*
X116744243Y-81756288D01*
X116838983Y-81280000D01*
X116744243Y-80803712D01*
X116474448Y-80399935D01*
X116070671Y-80130140D01*
X115594383Y-80035400D01*
X115545617Y-80035400D01*
X115069329Y-80130140D01*
X114808000Y-80304754D01*
X114808000Y-80010000D01*
X114769331Y-79815597D01*
X114659210Y-79650790D01*
X114252811Y-79244391D01*
X114252809Y-79244389D01*
X114252809Y-79244388D01*
X114207638Y-79199217D01*
X114298983Y-78740000D01*
X114204243Y-78263712D01*
X114013336Y-77978000D01*
X114586663Y-77978000D01*
X114395757Y-78263712D01*
X114301017Y-78740000D01*
X114395757Y-79216288D01*
X114665552Y-79620065D01*
X115069329Y-79889860D01*
X115545617Y-79984600D01*
X115594383Y-79984600D01*
X116070671Y-79889860D01*
X116474448Y-79620065D01*
X116744243Y-79216288D01*
X116838983Y-78740000D01*
X116744243Y-78263712D01*
X116553336Y-77978000D01*
X117154447Y-77978000D01*
X117033695Y-78114999D01*
X116907007Y-78420882D01*
X116967688Y-78613000D01*
X117983000Y-78613000D01*
X117983000Y-78593000D01*
X118237000Y-78593000D01*
X118237000Y-78613000D01*
X119252312Y-78613000D01*
X119312993Y-78420882D01*
X119186305Y-78114999D01*
X119065552Y-77978000D01*
X119666663Y-77978000D01*
X119475757Y-78263712D01*
X119381017Y-78740000D01*
X119475757Y-79216288D01*
X119745552Y-79620065D01*
X120149329Y-79889860D01*
X120625617Y-79984600D01*
X120674383Y-79984600D01*
X121150671Y-79889860D01*
X121412000Y-79715245D01*
X121412000Y-80010000D01*
X121450669Y-80204403D01*
X121560790Y-80369210D01*
X122012361Y-80820781D01*
X121921017Y-81280000D01*
X122015757Y-81756288D01*
X122285552Y-82160065D01*
X122689329Y-82429860D01*
X123165617Y-82524600D01*
X123214383Y-82524600D01*
X123690671Y-82429860D01*
X124094448Y-82160065D01*
X124364243Y-81756288D01*
X124458983Y-81280000D01*
X124364243Y-80803712D01*
X124094448Y-80399935D01*
X123690671Y-80130140D01*
X123214383Y-80035400D01*
X123165617Y-80035400D01*
X122747073Y-80118653D01*
X122428000Y-79799580D01*
X122428000Y-79715245D01*
X122689329Y-79889860D01*
X123165617Y-79984600D01*
X123214383Y-79984600D01*
X123690671Y-79889860D01*
X124094448Y-79620065D01*
X124364243Y-79216288D01*
X124458983Y-78740000D01*
X124364243Y-78263712D01*
X124094448Y-77859935D01*
X123690671Y-77590140D01*
X123214383Y-77495400D01*
X123165617Y-77495400D01*
X122689329Y-77590140D01*
X122285552Y-77859935D01*
X122277862Y-77871442D01*
X121517210Y-77110790D01*
X121352403Y-77000669D01*
X121158000Y-76962000D01*
X104902000Y-76962000D01*
X104707597Y-77000669D01*
X104542790Y-77110790D01*
X103782137Y-77871442D01*
X103774448Y-77859935D01*
X103370671Y-77590140D01*
X102894383Y-77495400D01*
X102845617Y-77495400D01*
X102369329Y-77590140D01*
X101965552Y-77859935D01*
X101695757Y-78263712D01*
X101601017Y-78740000D01*
X101695757Y-79216288D01*
X101965552Y-79620065D01*
X102369329Y-79889860D01*
X102845617Y-79984600D01*
X102894383Y-79984600D01*
X103370671Y-79889860D01*
X103632000Y-79715245D01*
X103632000Y-79799580D01*
X103396180Y-80035400D01*
X101930614Y-80035400D01*
X101790580Y-80093404D01*
X101683404Y-80200581D01*
X101625400Y-80340615D01*
X101625400Y-80492186D01*
X101625400Y-82219386D01*
X101683404Y-82359420D01*
X101790581Y-82466596D01*
X101930615Y-82524600D01*
X102082186Y-82524600D01*
X102235000Y-82524600D01*
X102235000Y-82943700D01*
X101953474Y-82943700D01*
X101813440Y-83001704D01*
X101706264Y-83108881D01*
X101648260Y-83248915D01*
X101648260Y-83400486D01*
X101648260Y-84899086D01*
X101706264Y-85039120D01*
X101813441Y-85146296D01*
X101953475Y-85204300D01*
X102021640Y-85204300D01*
X102021640Y-85883750D01*
X101781610Y-85883750D01*
X101686360Y-85979000D01*
X101686360Y-86487000D01*
X101706360Y-86487000D01*
X101706360Y-86741000D01*
X101686360Y-86741000D01*
X101686360Y-87249000D01*
X101781610Y-87344250D01*
X102035196Y-87344250D01*
X102108000Y-87314093D01*
X102180805Y-87344250D01*
X102332376Y-87344250D01*
X103132476Y-87344250D01*
X103272510Y-87286246D01*
X103309755Y-87249000D01*
X103446244Y-87249000D01*
X103464360Y-87267115D01*
X103464360Y-87462360D01*
X103512696Y-87705364D01*
X103650347Y-87911373D01*
X106611984Y-90873009D01*
X106611987Y-90873013D01*
X106735479Y-90955528D01*
X106817995Y-91010664D01*
X106817996Y-91010664D01*
X107061000Y-91059000D01*
X109485291Y-91059000D01*
X127549526Y-109123234D01*
X127755535Y-109260885D01*
X127998539Y-109309221D01*
X134090469Y-109309221D01*
X134095267Y-109320833D01*
X134416518Y-109642644D01*
X134836467Y-109817022D01*
X135291180Y-109817419D01*
X135711433Y-109643775D01*
X136033244Y-109322524D01*
X136207622Y-108902575D01*
X136208019Y-108447862D01*
X136208019Y-109506948D01*
X135892449Y-109821969D01*
X135718071Y-110241918D01*
X135717674Y-110696631D01*
X135891318Y-111116884D01*
X136212569Y-111438695D01*
X136632518Y-111613073D01*
X137087231Y-111613470D01*
X137507484Y-111439826D01*
X137829295Y-111118575D01*
X138003673Y-110698626D01*
X138004070Y-110243913D01*
X138004070Y-111302999D01*
X137688500Y-111618020D01*
X137514122Y-112037969D01*
X137513725Y-112492682D01*
X137687369Y-112912935D01*
X138008620Y-113234746D01*
X138428569Y-113409124D01*
X138883282Y-113409521D01*
X139303535Y-113235877D01*
X139625346Y-112914626D01*
X139799724Y-112494677D01*
X139800121Y-112039964D01*
X139800121Y-113099050D01*
X139484551Y-113414071D01*
X139310173Y-113834020D01*
X139309776Y-114288733D01*
X139483420Y-114708986D01*
X139804671Y-115030797D01*
X140224620Y-115205175D01*
X140679333Y-115205572D01*
X141099586Y-115031928D01*
X141421397Y-114710677D01*
X141595775Y-114290728D01*
X141596172Y-113836015D01*
X141596172Y-114895103D01*
X141280603Y-115210123D01*
X141106225Y-115630072D01*
X141105828Y-116084785D01*
X141279472Y-116505038D01*
X141600723Y-116826849D01*
X142020672Y-117001227D01*
X142475385Y-117001624D01*
X142895638Y-116827980D01*
X143217449Y-116506729D01*
X143391827Y-116086780D01*
X143392224Y-115632067D01*
X143392224Y-116691153D01*
X143076654Y-117006174D01*
X142902276Y-117426123D01*
X142901879Y-117880836D01*
X143075523Y-118301089D01*
X143396774Y-118622900D01*
X143816723Y-118797278D01*
X144271436Y-118797675D01*
X144691689Y-118624031D01*
X145013500Y-118302780D01*
X145187878Y-117882831D01*
X145188275Y-117428118D01*
X145188275Y-118487204D01*
X144872705Y-118802225D01*
X144698327Y-119222174D01*
X144697930Y-119676887D01*
X144871574Y-120097140D01*
X145192825Y-120418951D01*
X145612774Y-120593329D01*
X146067487Y-120593726D01*
X146487740Y-120420082D01*
X146809551Y-120098831D01*
X146983929Y-119678882D01*
X146984326Y-119224169D01*
X146810682Y-118803916D01*
X146489431Y-118482105D01*
X146349128Y-118423846D01*
X146349128Y-100375128D01*
X146310459Y-100180725D01*
X146310459Y-100180724D01*
X146200338Y-100015918D01*
X132714852Y-86530432D01*
X132715154Y-86183943D01*
X132623371Y-85961813D01*
X132664391Y-85978846D01*
X133012729Y-85979149D01*
X147129179Y-100095599D01*
X147129179Y-120219752D01*
X146990567Y-120277025D01*
X146668756Y-120598276D01*
X146494378Y-121018225D01*
X146493981Y-121472938D01*
X146667625Y-121893191D01*
X146988876Y-122215002D01*
X147408825Y-122389380D01*
X147863538Y-122389777D01*
X148283791Y-122216133D01*
X148605602Y-121894882D01*
X148779980Y-121474933D01*
X148780377Y-121020220D01*
X148606733Y-120599967D01*
X148285482Y-120278156D01*
X148145179Y-120219897D01*
X148145179Y-99885179D01*
X148106510Y-99690776D01*
X147996389Y-99525969D01*
X133730852Y-85260432D01*
X133731154Y-84913943D01*
X133639371Y-84691813D01*
X133680391Y-84708846D01*
X134028729Y-84709149D01*
X148925231Y-99605651D01*
X148925231Y-122015804D01*
X148786619Y-122073077D01*
X148464808Y-122394328D01*
X148290430Y-122814277D01*
X148290033Y-123268990D01*
X148463677Y-123689243D01*
X148784928Y-124011054D01*
X149204877Y-124185432D01*
X149659590Y-124185829D01*
X150079843Y-124012185D01*
X150401654Y-123690934D01*
X150576032Y-123270985D01*
X150576429Y-122816272D01*
X150576429Y-132448300D01*
X147124826Y-132448300D01*
X146775234Y-132429529D01*
X146451216Y-132381611D01*
X146118443Y-132299558D01*
X145810189Y-132188496D01*
X145506377Y-132044585D01*
X145219936Y-131874083D01*
X144953314Y-131675247D01*
X144669359Y-131412588D01*
X101432360Y-88215897D01*
X101432360Y-87249000D01*
X101432360Y-86741000D01*
X101432360Y-86487000D01*
X101432360Y-85979000D01*
X101337110Y-85883750D01*
X101083524Y-85883750D01*
X100943490Y-85941754D01*
X100836314Y-86048931D01*
X100778310Y-86188965D01*
X100778310Y-86340536D01*
X100778310Y-86391750D01*
X100873560Y-86487000D01*
X101432360Y-86487000D01*
X101432360Y-86741000D01*
X100873560Y-86741000D01*
X100778310Y-86836250D01*
X100778310Y-86887464D01*
X100778310Y-87039035D01*
X100836314Y-87179069D01*
X100943490Y-87286246D01*
X101083524Y-87344250D01*
X101337110Y-87344250D01*
X101432360Y-87249000D01*
X101432360Y-88215897D01*
X96242925Y-83031300D01*
X97348549Y-83490395D01*
X98733376Y-83491603D01*
X100013252Y-82962769D01*
X100993328Y-81984403D01*
X101524395Y-80705451D01*
X101525603Y-79320624D01*
X100996769Y-78040748D01*
X100018403Y-77060672D01*
X98893808Y-76593700D01*
X155108578Y-76593700D01*
X153986748Y-77057231D01*
X153006672Y-78035597D01*
X152475605Y-79314549D01*
X152474397Y-80699376D01*
X153003231Y-81979252D01*
X153981597Y-82959328D01*
X155260549Y-83490395D01*
X156645376Y-83491603D01*
X157925252Y-82962769D01*
X158905328Y-81984403D01*
X159372300Y-80859808D01*
X159372300Y-128184578D01*
M02*
