%FSLAX46Y46*%
G04 Gerber Fmt 4.6, Leading zero omitted, Abs format (unit mm)*
G04 Created by KiCad (PCBNEW (2014-08-29 BZR 5106)-product) date Mon 08 Sep 2014 01:13:16 PM PDT*
%MOMM*%
G01*
G04 APERTURE LIST*
%ADD10C,0.100000*%
%ADD11C,0.300000*%
%ADD12C,0.127000*%
%ADD13C,0.254000*%
%ADD14C,6.352400*%
%ADD15R,1.452880X1.651000*%
%ADD16R,0.952500X0.850900*%
%ADD17R,1.879600X1.879600*%
%ADD18O,1.879600X1.879600*%
%ADD19C,1.676400*%
G04 APERTURE END LIST*
D10*
D11*
X137371429Y-86473571D02*
X137371429Y-84973571D01*
X137942857Y-84973571D01*
X138085715Y-85045000D01*
X138157143Y-85116429D01*
X138228572Y-85259286D01*
X138228572Y-85473571D01*
X138157143Y-85616429D01*
X138085715Y-85687857D01*
X137942857Y-85759286D01*
X137371429Y-85759286D01*
X138657143Y-84973571D02*
X139514286Y-84973571D01*
X139085715Y-86473571D02*
X139085715Y-84973571D01*
X140014286Y-86473571D02*
X140014286Y-84973571D01*
X140585714Y-84973571D01*
X140728572Y-85045000D01*
X140800000Y-85116429D01*
X140871429Y-85259286D01*
X140871429Y-85473571D01*
X140800000Y-85616429D01*
X140728572Y-85687857D01*
X140585714Y-85759286D01*
X140014286Y-85759286D01*
X142585714Y-86045000D02*
X143300000Y-86045000D01*
X142442857Y-86473571D02*
X142942857Y-84973571D01*
X143442857Y-86473571D01*
X144585714Y-86473571D02*
X144585714Y-84973571D01*
X144585714Y-86402143D02*
X144442857Y-86473571D01*
X144157143Y-86473571D01*
X144014285Y-86402143D01*
X143942857Y-86330714D01*
X143871428Y-86187857D01*
X143871428Y-85759286D01*
X143942857Y-85616429D01*
X144014285Y-85545000D01*
X144157143Y-85473571D01*
X144442857Y-85473571D01*
X144585714Y-85545000D01*
X145942857Y-86473571D02*
X145942857Y-85687857D01*
X145871428Y-85545000D01*
X145728571Y-85473571D01*
X145442857Y-85473571D01*
X145300000Y-85545000D01*
X145942857Y-86402143D02*
X145800000Y-86473571D01*
X145442857Y-86473571D01*
X145300000Y-86402143D01*
X145228571Y-86259286D01*
X145228571Y-86116429D01*
X145300000Y-85973571D01*
X145442857Y-85902143D01*
X145800000Y-85902143D01*
X145942857Y-85830714D01*
X146657143Y-85473571D02*
X146657143Y-86973571D01*
X146657143Y-85545000D02*
X146800000Y-85473571D01*
X147085714Y-85473571D01*
X147228571Y-85545000D01*
X147300000Y-85616429D01*
X147371429Y-85759286D01*
X147371429Y-86187857D01*
X147300000Y-86330714D01*
X147228571Y-86402143D01*
X147085714Y-86473571D01*
X146800000Y-86473571D01*
X146657143Y-86402143D01*
X147800000Y-85473571D02*
X148371429Y-85473571D01*
X148014286Y-84973571D02*
X148014286Y-86259286D01*
X148085714Y-86402143D01*
X148228572Y-86473571D01*
X148371429Y-86473571D01*
X149085715Y-86473571D02*
X148942857Y-86402143D01*
X148871429Y-86330714D01*
X148800000Y-86187857D01*
X148800000Y-85759286D01*
X148871429Y-85616429D01*
X148942857Y-85545000D01*
X149085715Y-85473571D01*
X149300000Y-85473571D01*
X149442857Y-85545000D01*
X149514286Y-85616429D01*
X149585715Y-85759286D01*
X149585715Y-86187857D01*
X149514286Y-86330714D01*
X149442857Y-86402143D01*
X149300000Y-86473571D01*
X149085715Y-86473571D01*
X150228572Y-86473571D02*
X150228572Y-85473571D01*
X150228572Y-85759286D02*
X150300000Y-85616429D01*
X150371429Y-85545000D01*
X150514286Y-85473571D01*
X150657143Y-85473571D01*
X152085714Y-85473571D02*
X152657143Y-85473571D01*
X152300000Y-86473571D02*
X152300000Y-85187857D01*
X152371428Y-85045000D01*
X152514286Y-84973571D01*
X152657143Y-84973571D01*
X153371429Y-86473571D02*
X153228571Y-86402143D01*
X153157143Y-86330714D01*
X153085714Y-86187857D01*
X153085714Y-85759286D01*
X153157143Y-85616429D01*
X153228571Y-85545000D01*
X153371429Y-85473571D01*
X153585714Y-85473571D01*
X153728571Y-85545000D01*
X153800000Y-85616429D01*
X153871429Y-85759286D01*
X153871429Y-86187857D01*
X153800000Y-86330714D01*
X153728571Y-86402143D01*
X153585714Y-86473571D01*
X153371429Y-86473571D01*
X154514286Y-86473571D02*
X154514286Y-85473571D01*
X154514286Y-85759286D02*
X154585714Y-85616429D01*
X154657143Y-85545000D01*
X154800000Y-85473571D01*
X154942857Y-85473571D01*
X137800001Y-88873571D02*
X137300001Y-88159286D01*
X136942858Y-88873571D02*
X136942858Y-87373571D01*
X137514286Y-87373571D01*
X137657144Y-87445000D01*
X137728572Y-87516429D01*
X137800001Y-87659286D01*
X137800001Y-87873571D01*
X137728572Y-88016429D01*
X137657144Y-88087857D01*
X137514286Y-88159286D01*
X136942858Y-88159286D01*
X139085715Y-88873571D02*
X139085715Y-88087857D01*
X139014286Y-87945000D01*
X138871429Y-87873571D01*
X138585715Y-87873571D01*
X138442858Y-87945000D01*
X139085715Y-88802143D02*
X138942858Y-88873571D01*
X138585715Y-88873571D01*
X138442858Y-88802143D01*
X138371429Y-88659286D01*
X138371429Y-88516429D01*
X138442858Y-88373571D01*
X138585715Y-88302143D01*
X138942858Y-88302143D01*
X139085715Y-88230714D01*
X139728572Y-88802143D02*
X139871429Y-88873571D01*
X140157144Y-88873571D01*
X140300001Y-88802143D01*
X140371429Y-88659286D01*
X140371429Y-88587857D01*
X140300001Y-88445000D01*
X140157144Y-88373571D01*
X139942858Y-88373571D01*
X139800001Y-88302143D01*
X139728572Y-88159286D01*
X139728572Y-88087857D01*
X139800001Y-87945000D01*
X139942858Y-87873571D01*
X140157144Y-87873571D01*
X140300001Y-87945000D01*
X141014287Y-87873571D02*
X141014287Y-89373571D01*
X141014287Y-87945000D02*
X141157144Y-87873571D01*
X141442858Y-87873571D01*
X141585715Y-87945000D01*
X141657144Y-88016429D01*
X141728573Y-88159286D01*
X141728573Y-88587857D01*
X141657144Y-88730714D01*
X141585715Y-88802143D01*
X141442858Y-88873571D01*
X141157144Y-88873571D01*
X141014287Y-88802143D01*
X142371430Y-88873571D02*
X142371430Y-87373571D01*
X142371430Y-87945000D02*
X142514287Y-87873571D01*
X142800001Y-87873571D01*
X142942858Y-87945000D01*
X143014287Y-88016429D01*
X143085716Y-88159286D01*
X143085716Y-88587857D01*
X143014287Y-88730714D01*
X142942858Y-88802143D01*
X142800001Y-88873571D01*
X142514287Y-88873571D01*
X142371430Y-88802143D01*
X144300001Y-88802143D02*
X144157144Y-88873571D01*
X143871430Y-88873571D01*
X143728573Y-88802143D01*
X143657144Y-88659286D01*
X143657144Y-88087857D01*
X143728573Y-87945000D01*
X143871430Y-87873571D01*
X144157144Y-87873571D01*
X144300001Y-87945000D01*
X144371430Y-88087857D01*
X144371430Y-88230714D01*
X143657144Y-88373571D01*
X145014287Y-88873571D02*
X145014287Y-87873571D01*
X145014287Y-88159286D02*
X145085715Y-88016429D01*
X145157144Y-87945000D01*
X145300001Y-87873571D01*
X145442858Y-87873571D01*
X145942858Y-88873571D02*
X145942858Y-87873571D01*
X145942858Y-88159286D02*
X146014286Y-88016429D01*
X146085715Y-87945000D01*
X146228572Y-87873571D01*
X146371429Y-87873571D01*
X146728572Y-87873571D02*
X147085715Y-88873571D01*
X147442857Y-87873571D02*
X147085715Y-88873571D01*
X146942857Y-89230714D01*
X146871429Y-89302143D01*
X146728572Y-89373571D01*
X149157143Y-88873571D02*
X149157143Y-87373571D01*
X149728571Y-87373571D01*
X149871429Y-87445000D01*
X149942857Y-87516429D01*
X150014286Y-87659286D01*
X150014286Y-87873571D01*
X149942857Y-88016429D01*
X149871429Y-88087857D01*
X149728571Y-88159286D01*
X149157143Y-88159286D01*
X150657143Y-88873571D02*
X150657143Y-87873571D01*
X150657143Y-87373571D02*
X150585714Y-87445000D01*
X150657143Y-87516429D01*
X150728571Y-87445000D01*
X150657143Y-87373571D01*
X150657143Y-87516429D01*
X153014286Y-88087857D02*
X153228572Y-88159286D01*
X153300000Y-88230714D01*
X153371429Y-88373571D01*
X153371429Y-88587857D01*
X153300000Y-88730714D01*
X153228572Y-88802143D01*
X153085714Y-88873571D01*
X152514286Y-88873571D01*
X152514286Y-87373571D01*
X153014286Y-87373571D01*
X153157143Y-87445000D01*
X153228572Y-87516429D01*
X153300000Y-87659286D01*
X153300000Y-87802143D01*
X153228572Y-87945000D01*
X153157143Y-88016429D01*
X153014286Y-88087857D01*
X152514286Y-88087857D01*
X154014286Y-88302143D02*
X155157143Y-88302143D01*
X154585714Y-88873571D02*
X154585714Y-87730714D01*
D12*
X102997000Y-84709000D02*
X102997000Y-83439000D01*
X104267000Y-84709000D02*
X104267000Y-83464400D01*
X104648000Y-84709000D02*
X102616000Y-84709000D01*
X102616000Y-84709000D02*
X102616000Y-83439000D01*
X102616000Y-83439000D02*
X104648000Y-83439000D01*
X104648000Y-83439000D02*
X104648000Y-84709000D01*
X104317800Y-86893400D02*
X104317800Y-86334600D01*
X104978200Y-86893400D02*
X104978200Y-86334600D01*
X105181400Y-86893400D02*
X105181400Y-86334600D01*
X105181400Y-86334600D02*
X104114600Y-86334600D01*
X104114600Y-86334600D02*
X104114600Y-86893400D01*
X104114600Y-86893400D02*
X105181400Y-86893400D01*
X102438200Y-86334600D02*
X102438200Y-86893400D01*
X101777800Y-86334600D02*
X101777800Y-86893400D01*
X101574600Y-86334600D02*
X101574600Y-86893400D01*
X101574600Y-86893400D02*
X102641400Y-86893400D01*
X102641400Y-86893400D02*
X102641400Y-86334600D01*
X102641400Y-86334600D02*
X101574600Y-86334600D01*
D13*
X152400000Y-77470000D02*
X101600000Y-77470000D01*
X104140000Y-82550000D02*
X152400000Y-82550000D01*
X152400000Y-77470000D02*
X152400000Y-82550000D01*
X101600000Y-77470000D02*
X101600000Y-80010000D01*
X101600000Y-82550000D02*
X104140000Y-82550000D01*
X101600000Y-80010000D02*
X104140000Y-80010000D01*
X104140000Y-80010000D02*
X104140000Y-82550000D01*
X101600000Y-82550000D02*
X101600000Y-80010000D01*
D10*
G36*
X150512498Y-106279462D02*
X150496321Y-106398221D01*
X150450278Y-106494266D01*
X150404049Y-106546118D01*
X150381873Y-106560794D01*
X150328425Y-106593402D01*
X150246195Y-106642503D01*
X150137674Y-106706658D01*
X150005352Y-106784428D01*
X149851718Y-106874372D01*
X149679264Y-106975053D01*
X149490479Y-107085030D01*
X149287854Y-107202864D01*
X149073878Y-107327117D01*
X148851043Y-107456348D01*
X148621837Y-107589118D01*
X148388752Y-107723989D01*
X148154278Y-107859520D01*
X147920904Y-107994273D01*
X147691122Y-108126807D01*
X147467420Y-108255685D01*
X147252290Y-108379466D01*
X147048222Y-108496712D01*
X146857705Y-108605982D01*
X146683231Y-108705838D01*
X146527288Y-108794841D01*
X146392368Y-108871550D01*
X146280961Y-108934528D01*
X146195557Y-108982333D01*
X146138646Y-109013528D01*
X146112718Y-109026673D01*
X146111811Y-109026968D01*
X146091634Y-109018167D01*
X146039428Y-108990773D01*
X145956967Y-108945795D01*
X145846025Y-108884242D01*
X145708378Y-108807122D01*
X145545799Y-108715446D01*
X145360064Y-108610221D01*
X145152948Y-108492458D01*
X144926224Y-108363166D01*
X144681668Y-108223352D01*
X144421055Y-108074027D01*
X144146158Y-107916200D01*
X143858754Y-107750880D01*
X143560616Y-107579075D01*
X143253519Y-107401796D01*
X143246231Y-107397585D01*
X142821952Y-107152409D01*
X142430235Y-106925989D01*
X142069789Y-106717570D01*
X141739321Y-106526395D01*
X141437538Y-106351707D01*
X141163146Y-106192749D01*
X140914854Y-106048764D01*
X140691369Y-105918997D01*
X140491397Y-105802690D01*
X140313646Y-105699087D01*
X140156823Y-105607431D01*
X140019636Y-105526965D01*
X139900791Y-105456933D01*
X139798996Y-105396578D01*
X139712958Y-105345143D01*
X139641385Y-105301872D01*
X139582983Y-105266008D01*
X139536460Y-105236795D01*
X139500522Y-105213475D01*
X139473878Y-105195293D01*
X139455235Y-105181491D01*
X139444509Y-105172451D01*
X139394173Y-105125885D01*
X139356586Y-105167502D01*
X139307518Y-105207315D01*
X139231658Y-105252103D01*
X139139861Y-105296369D01*
X139042980Y-105334613D01*
X139012676Y-105344422D01*
X139012676Y-104368657D01*
X138998736Y-104269144D01*
X138981931Y-104228313D01*
X138922945Y-104147147D01*
X138847614Y-104095748D01*
X138762752Y-104072410D01*
X138675171Y-104075422D01*
X138591684Y-104103078D01*
X138519104Y-104153669D01*
X138464243Y-104225486D01*
X138433916Y-104316821D01*
X138430073Y-104366688D01*
X138447234Y-104466382D01*
X138494218Y-104548944D01*
X138564021Y-104610304D01*
X138649635Y-104646389D01*
X138744057Y-104653130D01*
X138840279Y-104626454D01*
X138859767Y-104616389D01*
X138940540Y-104550704D01*
X138992393Y-104465318D01*
X139012676Y-104368657D01*
X139012676Y-105344422D01*
X138997954Y-105349188D01*
X138895310Y-105369488D01*
X138770855Y-105379018D01*
X138640349Y-105377742D01*
X138519555Y-105365627D01*
X138448200Y-105350389D01*
X138263344Y-105278596D01*
X138100862Y-105177519D01*
X137962814Y-105051258D01*
X137851261Y-104903911D01*
X137768264Y-104739577D01*
X137715884Y-104562355D01*
X137696182Y-104376344D01*
X137711218Y-104185642D01*
X137763053Y-103994349D01*
X137764497Y-103990496D01*
X137850818Y-103814317D01*
X137966029Y-103662382D01*
X138106646Y-103537048D01*
X138269185Y-103440674D01*
X138450163Y-103375617D01*
X138646096Y-103344237D01*
X138723077Y-103341632D01*
X138923993Y-103359586D01*
X139109176Y-103411687D01*
X139275952Y-103495251D01*
X139421648Y-103607594D01*
X139543590Y-103746033D01*
X139639102Y-103907884D01*
X139705512Y-104090462D01*
X139740144Y-104291085D01*
X139744301Y-104366537D01*
X139748846Y-104547114D01*
X139807462Y-104566572D01*
X139840378Y-104581818D01*
X139901340Y-104614182D01*
X139984918Y-104660617D01*
X140085683Y-104718079D01*
X140198208Y-104783521D01*
X140276385Y-104829668D01*
X140392821Y-104898494D01*
X140534047Y-104981441D01*
X140697981Y-105077313D01*
X140882544Y-105184912D01*
X141085654Y-105303044D01*
X141305231Y-105430511D01*
X141539196Y-105566117D01*
X141785466Y-105708666D01*
X142041963Y-105856963D01*
X142306606Y-106009809D01*
X142577313Y-106166011D01*
X142852006Y-106324370D01*
X143128602Y-106483691D01*
X143405023Y-106642778D01*
X143679187Y-106800434D01*
X143949014Y-106955464D01*
X144212424Y-107106670D01*
X144467336Y-107252856D01*
X144711669Y-107392828D01*
X144943344Y-107525387D01*
X145160280Y-107649338D01*
X145360396Y-107763484D01*
X145541612Y-107866630D01*
X145701848Y-107957580D01*
X145839023Y-108035136D01*
X145951057Y-108098102D01*
X146035869Y-108145283D01*
X146091379Y-108175482D01*
X146115507Y-108187503D01*
X146116339Y-108187652D01*
X146135767Y-108176938D01*
X146186875Y-108147903D01*
X146267512Y-108101786D01*
X146375528Y-108039823D01*
X146508774Y-107963254D01*
X146665099Y-107873316D01*
X146842353Y-107771246D01*
X147038385Y-107658284D01*
X147251046Y-107535665D01*
X147478185Y-107404630D01*
X147717651Y-107266414D01*
X147967296Y-107122257D01*
X148070680Y-107062539D01*
X148324887Y-106915910D01*
X148570594Y-106774621D01*
X148805575Y-106639927D01*
X149027608Y-106513084D01*
X149234469Y-106395349D01*
X149423935Y-106287976D01*
X149593781Y-106192222D01*
X149741785Y-106109343D01*
X149865722Y-106040593D01*
X149963370Y-105987230D01*
X150032505Y-105950508D01*
X150070902Y-105931684D01*
X150076915Y-105929497D01*
X150192029Y-105921550D01*
X150297801Y-105947569D01*
X150388445Y-106002909D01*
X150458179Y-106082920D01*
X150501215Y-106182956D01*
X150512498Y-106279462D01*
X150512498Y-106279462D01*
X150512498Y-106279462D01*
G37*
X150512498Y-106279462D02*
X150496321Y-106398221D01*
X150450278Y-106494266D01*
X150404049Y-106546118D01*
X150381873Y-106560794D01*
X150328425Y-106593402D01*
X150246195Y-106642503D01*
X150137674Y-106706658D01*
X150005352Y-106784428D01*
X149851718Y-106874372D01*
X149679264Y-106975053D01*
X149490479Y-107085030D01*
X149287854Y-107202864D01*
X149073878Y-107327117D01*
X148851043Y-107456348D01*
X148621837Y-107589118D01*
X148388752Y-107723989D01*
X148154278Y-107859520D01*
X147920904Y-107994273D01*
X147691122Y-108126807D01*
X147467420Y-108255685D01*
X147252290Y-108379466D01*
X147048222Y-108496712D01*
X146857705Y-108605982D01*
X146683231Y-108705838D01*
X146527288Y-108794841D01*
X146392368Y-108871550D01*
X146280961Y-108934528D01*
X146195557Y-108982333D01*
X146138646Y-109013528D01*
X146112718Y-109026673D01*
X146111811Y-109026968D01*
X146091634Y-109018167D01*
X146039428Y-108990773D01*
X145956967Y-108945795D01*
X145846025Y-108884242D01*
X145708378Y-108807122D01*
X145545799Y-108715446D01*
X145360064Y-108610221D01*
X145152948Y-108492458D01*
X144926224Y-108363166D01*
X144681668Y-108223352D01*
X144421055Y-108074027D01*
X144146158Y-107916200D01*
X143858754Y-107750880D01*
X143560616Y-107579075D01*
X143253519Y-107401796D01*
X143246231Y-107397585D01*
X142821952Y-107152409D01*
X142430235Y-106925989D01*
X142069789Y-106717570D01*
X141739321Y-106526395D01*
X141437538Y-106351707D01*
X141163146Y-106192749D01*
X140914854Y-106048764D01*
X140691369Y-105918997D01*
X140491397Y-105802690D01*
X140313646Y-105699087D01*
X140156823Y-105607431D01*
X140019636Y-105526965D01*
X139900791Y-105456933D01*
X139798996Y-105396578D01*
X139712958Y-105345143D01*
X139641385Y-105301872D01*
X139582983Y-105266008D01*
X139536460Y-105236795D01*
X139500522Y-105213475D01*
X139473878Y-105195293D01*
X139455235Y-105181491D01*
X139444509Y-105172451D01*
X139394173Y-105125885D01*
X139356586Y-105167502D01*
X139307518Y-105207315D01*
X139231658Y-105252103D01*
X139139861Y-105296369D01*
X139042980Y-105334613D01*
X139012676Y-105344422D01*
X139012676Y-104368657D01*
X138998736Y-104269144D01*
X138981931Y-104228313D01*
X138922945Y-104147147D01*
X138847614Y-104095748D01*
X138762752Y-104072410D01*
X138675171Y-104075422D01*
X138591684Y-104103078D01*
X138519104Y-104153669D01*
X138464243Y-104225486D01*
X138433916Y-104316821D01*
X138430073Y-104366688D01*
X138447234Y-104466382D01*
X138494218Y-104548944D01*
X138564021Y-104610304D01*
X138649635Y-104646389D01*
X138744057Y-104653130D01*
X138840279Y-104626454D01*
X138859767Y-104616389D01*
X138940540Y-104550704D01*
X138992393Y-104465318D01*
X139012676Y-104368657D01*
X139012676Y-105344422D01*
X138997954Y-105349188D01*
X138895310Y-105369488D01*
X138770855Y-105379018D01*
X138640349Y-105377742D01*
X138519555Y-105365627D01*
X138448200Y-105350389D01*
X138263344Y-105278596D01*
X138100862Y-105177519D01*
X137962814Y-105051258D01*
X137851261Y-104903911D01*
X137768264Y-104739577D01*
X137715884Y-104562355D01*
X137696182Y-104376344D01*
X137711218Y-104185642D01*
X137763053Y-103994349D01*
X137764497Y-103990496D01*
X137850818Y-103814317D01*
X137966029Y-103662382D01*
X138106646Y-103537048D01*
X138269185Y-103440674D01*
X138450163Y-103375617D01*
X138646096Y-103344237D01*
X138723077Y-103341632D01*
X138923993Y-103359586D01*
X139109176Y-103411687D01*
X139275952Y-103495251D01*
X139421648Y-103607594D01*
X139543590Y-103746033D01*
X139639102Y-103907884D01*
X139705512Y-104090462D01*
X139740144Y-104291085D01*
X139744301Y-104366537D01*
X139748846Y-104547114D01*
X139807462Y-104566572D01*
X139840378Y-104581818D01*
X139901340Y-104614182D01*
X139984918Y-104660617D01*
X140085683Y-104718079D01*
X140198208Y-104783521D01*
X140276385Y-104829668D01*
X140392821Y-104898494D01*
X140534047Y-104981441D01*
X140697981Y-105077313D01*
X140882544Y-105184912D01*
X141085654Y-105303044D01*
X141305231Y-105430511D01*
X141539196Y-105566117D01*
X141785466Y-105708666D01*
X142041963Y-105856963D01*
X142306606Y-106009809D01*
X142577313Y-106166011D01*
X142852006Y-106324370D01*
X143128602Y-106483691D01*
X143405023Y-106642778D01*
X143679187Y-106800434D01*
X143949014Y-106955464D01*
X144212424Y-107106670D01*
X144467336Y-107252856D01*
X144711669Y-107392828D01*
X144943344Y-107525387D01*
X145160280Y-107649338D01*
X145360396Y-107763484D01*
X145541612Y-107866630D01*
X145701848Y-107957580D01*
X145839023Y-108035136D01*
X145951057Y-108098102D01*
X146035869Y-108145283D01*
X146091379Y-108175482D01*
X146115507Y-108187503D01*
X146116339Y-108187652D01*
X146135767Y-108176938D01*
X146186875Y-108147903D01*
X146267512Y-108101786D01*
X146375528Y-108039823D01*
X146508774Y-107963254D01*
X146665099Y-107873316D01*
X146842353Y-107771246D01*
X147038385Y-107658284D01*
X147251046Y-107535665D01*
X147478185Y-107404630D01*
X147717651Y-107266414D01*
X147967296Y-107122257D01*
X148070680Y-107062539D01*
X148324887Y-106915910D01*
X148570594Y-106774621D01*
X148805575Y-106639927D01*
X149027608Y-106513084D01*
X149234469Y-106395349D01*
X149423935Y-106287976D01*
X149593781Y-106192222D01*
X149741785Y-106109343D01*
X149865722Y-106040593D01*
X149963370Y-105987230D01*
X150032505Y-105950508D01*
X150070902Y-105931684D01*
X150076915Y-105929497D01*
X150192029Y-105921550D01*
X150297801Y-105947569D01*
X150388445Y-106002909D01*
X150458179Y-106082920D01*
X150501215Y-106182956D01*
X150512498Y-106279462D01*
X150512498Y-106279462D01*
G36*
X150178527Y-101379881D02*
X150156635Y-101620328D01*
X150099043Y-101854126D01*
X150006558Y-102076882D01*
X149879992Y-102284203D01*
X149848418Y-102326322D01*
X149788383Y-102417023D01*
X149748085Y-102514638D01*
X149732117Y-102573068D01*
X149720673Y-102615741D01*
X149720673Y-101381931D01*
X149720643Y-101242939D01*
X149711271Y-101113340D01*
X149693883Y-101013067D01*
X149626309Y-100820181D01*
X149525662Y-100637333D01*
X149397367Y-100472219D01*
X149246846Y-100332535D01*
X149180745Y-100284919D01*
X149119312Y-100246776D01*
X149077066Y-100229236D01*
X149042604Y-100228586D01*
X149023741Y-100233769D01*
X148969862Y-100272010D01*
X148929870Y-100335610D01*
X148929870Y-99792944D01*
X148929166Y-99724308D01*
X148908414Y-99497215D01*
X148853434Y-99288828D01*
X148764002Y-99098607D01*
X148639897Y-98926009D01*
X148572479Y-98853747D01*
X148425267Y-98723527D01*
X148273936Y-98624395D01*
X148109594Y-98552042D01*
X147923352Y-98502160D01*
X147806383Y-98482464D01*
X147704779Y-98472262D01*
X147599414Y-98468487D01*
X147498034Y-98470621D01*
X147408381Y-98478144D01*
X147338200Y-98490537D01*
X147295236Y-98507281D01*
X147286295Y-98517339D01*
X147285653Y-98553415D01*
X147307483Y-98604573D01*
X147353552Y-98673464D01*
X147425625Y-98762735D01*
X147523168Y-98872524D01*
X147654188Y-99009667D01*
X147794990Y-99146475D01*
X147941881Y-99280168D01*
X148091169Y-99407966D01*
X148239161Y-99527087D01*
X148382164Y-99634751D01*
X148516485Y-99728177D01*
X148638432Y-99804585D01*
X148744312Y-99861194D01*
X148830431Y-99895222D01*
X148892846Y-99903915D01*
X148911379Y-99899149D01*
X148922701Y-99884139D01*
X148928352Y-99851273D01*
X148929870Y-99792944D01*
X148929870Y-100335610D01*
X148924501Y-100344149D01*
X148888745Y-100445720D01*
X148863683Y-100572259D01*
X148850404Y-100719299D01*
X148849995Y-100882374D01*
X148852665Y-100935693D01*
X148872150Y-101154825D01*
X148901919Y-101362936D01*
X148940763Y-101556672D01*
X148987469Y-101732680D01*
X149040825Y-101887609D01*
X149099622Y-102018104D01*
X149162646Y-102120814D01*
X149228687Y-102192385D01*
X149296533Y-102229465D01*
X149321697Y-102233762D01*
X149343485Y-102221112D01*
X149382820Y-102186753D01*
X149431207Y-102138108D01*
X149431445Y-102137854D01*
X149513245Y-102032878D01*
X149589093Y-101902736D01*
X149651849Y-101761321D01*
X149692810Y-101629308D01*
X149711387Y-101515620D01*
X149720673Y-101381931D01*
X149720673Y-102615741D01*
X149709842Y-102656130D01*
X149679129Y-102758552D01*
X149645239Y-102863097D01*
X149630980Y-102904466D01*
X149596363Y-103009197D01*
X149559009Y-103132666D01*
X149524669Y-103255466D01*
X149509379Y-103314773D01*
X149440096Y-103544310D01*
X149350659Y-103746763D01*
X149235967Y-103930781D01*
X149166053Y-104014761D01*
X149166053Y-102938385D01*
X149165267Y-102817130D01*
X149162600Y-102726229D01*
X149157134Y-102656970D01*
X149147950Y-102600642D01*
X149134130Y-102548534D01*
X149120722Y-102508539D01*
X149070279Y-102386279D01*
X149016093Y-102297707D01*
X148954104Y-102237434D01*
X148891261Y-102204049D01*
X148772585Y-102178695D01*
X148643413Y-102189485D01*
X148558131Y-102218171D01*
X148558131Y-100831667D01*
X148545962Y-100686835D01*
X148523758Y-100574231D01*
X148446223Y-100357402D01*
X148336515Y-100155885D01*
X148198413Y-99974478D01*
X148035696Y-99817982D01*
X147852143Y-99691193D01*
X147810139Y-99668180D01*
X147646835Y-99594654D01*
X147490063Y-99550956D01*
X147326005Y-99533553D01*
X147280923Y-99532898D01*
X147163155Y-99543164D01*
X147163155Y-98903693D01*
X147144708Y-98819248D01*
X147094009Y-98727571D01*
X147016072Y-98633191D01*
X146915909Y-98540636D01*
X146798534Y-98454434D01*
X146668961Y-98379114D01*
X146532203Y-98319204D01*
X146505830Y-98309941D01*
X146294331Y-98254332D01*
X146091566Y-98234413D01*
X145892088Y-98250553D01*
X145853262Y-98260674D01*
X145853262Y-96884958D01*
X145851278Y-96736626D01*
X145819927Y-96579125D01*
X145758906Y-96416936D01*
X145742982Y-96384066D01*
X145693335Y-96293718D01*
X145633138Y-96196593D01*
X145569567Y-96103260D01*
X145509800Y-96024288D01*
X145463628Y-95972714D01*
X145405618Y-95917137D01*
X145383975Y-95979222D01*
X145365980Y-96021228D01*
X145350821Y-96041243D01*
X145349589Y-96041511D01*
X145332058Y-96028142D01*
X145293715Y-95991583D01*
X145240198Y-95937405D01*
X145177148Y-95871181D01*
X145176557Y-95870550D01*
X145016267Y-95699385D01*
X145015365Y-95770262D01*
X145006559Y-95825617D01*
X144986063Y-95864529D01*
X144983818Y-95866571D01*
X144962287Y-95877290D01*
X144937872Y-95868228D01*
X144901873Y-95834794D01*
X144881241Y-95812417D01*
X144824448Y-95754907D01*
X144763335Y-95700772D01*
X144738692Y-95681620D01*
X144668075Y-95630409D01*
X144677051Y-95677361D01*
X144675978Y-95723920D01*
X144661057Y-95770572D01*
X144638449Y-95801824D01*
X144625557Y-95806846D01*
X144602744Y-95795556D01*
X144559726Y-95766179D01*
X144513899Y-95731371D01*
X144450905Y-95684448D01*
X144389239Y-95643207D01*
X144355472Y-95623631D01*
X144292404Y-95591368D01*
X144304063Y-95649658D01*
X144312053Y-95705175D01*
X144305793Y-95737012D01*
X144280573Y-95746299D01*
X144231685Y-95734167D01*
X144154420Y-95701747D01*
X144131278Y-95691141D01*
X144052202Y-95656277D01*
X143980382Y-95627607D01*
X143927471Y-95609677D01*
X143914375Y-95606557D01*
X143859595Y-95596941D01*
X143899721Y-95639653D01*
X143929285Y-95685771D01*
X143939846Y-95727345D01*
X143939411Y-95748263D01*
X143933672Y-95760540D01*
X143915981Y-95764034D01*
X143879688Y-95758602D01*
X143818145Y-95744098D01*
X143734693Y-95722923D01*
X143661713Y-95704642D01*
X143595895Y-95688650D01*
X143562285Y-95680846D01*
X143507108Y-95668607D01*
X143548399Y-95712928D01*
X143575361Y-95755860D01*
X143582893Y-95797979D01*
X143570930Y-95827296D01*
X143549068Y-95833666D01*
X143516967Y-95828639D01*
X143458022Y-95817528D01*
X143383585Y-95802498D01*
X143364226Y-95798452D01*
X143264859Y-95781824D01*
X143179631Y-95775640D01*
X143132919Y-95778527D01*
X143057156Y-95791327D01*
X143107732Y-95844118D01*
X143140695Y-95881826D01*
X143157685Y-95907716D01*
X143158308Y-95910492D01*
X143140024Y-95915717D01*
X143090187Y-95920010D01*
X143016314Y-95922941D01*
X142925927Y-95924075D01*
X142921928Y-95924077D01*
X142685547Y-95924077D01*
X142727692Y-95987577D01*
X142768283Y-96056393D01*
X142806342Y-96133788D01*
X142835896Y-96206385D01*
X142850972Y-96260803D01*
X142851459Y-96264793D01*
X142848584Y-96289469D01*
X142827638Y-96303772D01*
X142779528Y-96312569D01*
X142757770Y-96314930D01*
X142660077Y-96324782D01*
X142801731Y-96470279D01*
X142860478Y-96532000D01*
X142907332Y-96583854D01*
X142936530Y-96619300D01*
X142943385Y-96631016D01*
X142926270Y-96647753D01*
X142884569Y-96660007D01*
X142832741Y-96664757D01*
X142796485Y-96661688D01*
X142760371Y-96660861D01*
X142748000Y-96670582D01*
X142761191Y-96690900D01*
X142796879Y-96731745D01*
X142849243Y-96786721D01*
X142898104Y-96835478D01*
X142969116Y-96907501D01*
X143010874Y-96958062D01*
X143024105Y-96990755D01*
X143009540Y-97009177D01*
X142967907Y-97016924D01*
X142935094Y-97017932D01*
X142877958Y-97018231D01*
X142925325Y-97069193D01*
X142964960Y-97106031D01*
X143024389Y-97154711D01*
X143091137Y-97205039D01*
X143094808Y-97207677D01*
X143152887Y-97251209D01*
X143195988Y-97287146D01*
X143216288Y-97308872D01*
X143216923Y-97310933D01*
X143199328Y-97331844D01*
X143154159Y-97346255D01*
X143105471Y-97350385D01*
X143075482Y-97355193D01*
X143073834Y-97370540D01*
X143102125Y-97397812D01*
X143161954Y-97438393D01*
X143254919Y-97493668D01*
X143300978Y-97519774D01*
X143384570Y-97567344D01*
X143438319Y-97600370D01*
X143466819Y-97622777D01*
X143474665Y-97638488D01*
X143466451Y-97651428D01*
X143460551Y-97656088D01*
X143412038Y-97677235D01*
X143375532Y-97682539D01*
X143341838Y-97684274D01*
X143344174Y-97694670D01*
X143364612Y-97710523D01*
X143398767Y-97728524D01*
X143460140Y-97754417D01*
X143538744Y-97784151D01*
X143593039Y-97803177D01*
X143672138Y-97831400D01*
X143735191Y-97856507D01*
X143774417Y-97875239D01*
X143783539Y-97882941D01*
X143768481Y-97902123D01*
X143731509Y-97929564D01*
X143724243Y-97934096D01*
X143664947Y-97970156D01*
X143748666Y-97992649D01*
X143809041Y-98005597D01*
X143892016Y-98019239D01*
X143981253Y-98030936D01*
X143995535Y-98032506D01*
X144072736Y-98042615D01*
X144135212Y-98054301D01*
X144172524Y-98065492D01*
X144177445Y-98068629D01*
X144176588Y-98093134D01*
X144142990Y-98131985D01*
X144131525Y-98142030D01*
X144066846Y-98196670D01*
X144272111Y-98183527D01*
X144380752Y-98173624D01*
X144496409Y-98158341D01*
X144600104Y-98140341D01*
X144636119Y-98132469D01*
X144830509Y-98071299D01*
X144997713Y-97987845D01*
X145135498Y-97883699D01*
X145241630Y-97760453D01*
X145296820Y-97661613D01*
X145350614Y-97541743D01*
X145275346Y-97463189D01*
X145138453Y-97331831D01*
X144972622Y-97193619D01*
X144776522Y-97047654D01*
X144548826Y-96893038D01*
X144288203Y-96728872D01*
X143993325Y-96554259D01*
X143662861Y-96368301D01*
X143620871Y-96345246D01*
X143559206Y-96310058D01*
X143514800Y-96281985D01*
X143495345Y-96265974D01*
X143495277Y-96264441D01*
X143516444Y-96267579D01*
X143567911Y-96283784D01*
X143644003Y-96310871D01*
X143739041Y-96346655D01*
X143847350Y-96388950D01*
X143963254Y-96435571D01*
X144081074Y-96484334D01*
X144195135Y-96533054D01*
X144210449Y-96539733D01*
X144451231Y-96653338D01*
X144701165Y-96786352D01*
X144948731Y-96931967D01*
X145182406Y-97083370D01*
X145390671Y-97233752D01*
X145410433Y-97249078D01*
X145471630Y-97294641D01*
X145517453Y-97317650D01*
X145558544Y-97317374D01*
X145605545Y-97293082D01*
X145669098Y-97244042D01*
X145686024Y-97230135D01*
X145770333Y-97136193D01*
X145826180Y-97019641D01*
X145853262Y-96884958D01*
X145853262Y-98260674D01*
X145690451Y-98303119D01*
X145512693Y-98377003D01*
X145365915Y-98458230D01*
X145241549Y-98548632D01*
X145143143Y-98644466D01*
X145074248Y-98741986D01*
X145038415Y-98837451D01*
X145034000Y-98881764D01*
X145053067Y-98986690D01*
X145108555Y-99087068D01*
X145197892Y-99180935D01*
X145318506Y-99266328D01*
X145467828Y-99341283D01*
X145643285Y-99403837D01*
X145756923Y-99433874D01*
X145832390Y-99444992D01*
X145936729Y-99451536D01*
X146060037Y-99453760D01*
X146192410Y-99451917D01*
X146323942Y-99446260D01*
X146444729Y-99437042D01*
X146544867Y-99424516D01*
X146603640Y-99412233D01*
X146770000Y-99353776D01*
X146910758Y-99279951D01*
X147023136Y-99193283D01*
X147104354Y-99096298D01*
X147151634Y-98991522D01*
X147163155Y-98903693D01*
X147163155Y-99543164D01*
X147085395Y-99549944D01*
X146909737Y-99600599D01*
X146753327Y-99685199D01*
X146615541Y-99804083D01*
X146495901Y-99957360D01*
X146410806Y-100123294D01*
X146357598Y-100306557D01*
X146336397Y-100501725D01*
X146347325Y-100703370D01*
X146390501Y-100906065D01*
X146466046Y-101104386D01*
X146470257Y-101113220D01*
X146580489Y-101304751D01*
X146713976Y-101473339D01*
X146866807Y-101616877D01*
X147035074Y-101733258D01*
X147214869Y-101820375D01*
X147402282Y-101876120D01*
X147593405Y-101898387D01*
X147784328Y-101885068D01*
X147868663Y-101867027D01*
X148042095Y-101802337D01*
X148195259Y-101705002D01*
X148326270Y-101576861D01*
X148433242Y-101419753D01*
X148513251Y-101238539D01*
X148541557Y-101121331D01*
X148556590Y-100981103D01*
X148558131Y-100831667D01*
X148558131Y-102218171D01*
X148503370Y-102236592D01*
X148352079Y-102320194D01*
X148189163Y-102440463D01*
X148014245Y-102597577D01*
X147986621Y-102624657D01*
X147805686Y-102826387D01*
X147656751Y-103040236D01*
X147541321Y-103262963D01*
X147460904Y-103491330D01*
X147417007Y-103722097D01*
X147408785Y-103866462D01*
X147414566Y-104003895D01*
X147435539Y-104110091D01*
X147475096Y-104191066D01*
X147536629Y-104252838D01*
X147623533Y-104301421D01*
X147663053Y-104317355D01*
X147755418Y-104337870D01*
X147872047Y-104342815D01*
X148001768Y-104333089D01*
X148133409Y-104309591D01*
X148255798Y-104273220D01*
X148267657Y-104268691D01*
X148447271Y-104179792D01*
X148622417Y-104057383D01*
X148786570Y-103906976D01*
X148933208Y-103734084D01*
X148982246Y-103664734D01*
X149048166Y-103558277D01*
X149096968Y-103457323D01*
X149130904Y-103352974D01*
X149152227Y-103236327D01*
X149163188Y-103098484D01*
X149166053Y-102938385D01*
X149166053Y-104014761D01*
X149090921Y-104105010D01*
X148976408Y-104218540D01*
X148885667Y-104296655D01*
X148785050Y-104372988D01*
X148683823Y-104441318D01*
X148591257Y-104495423D01*
X148516617Y-104529082D01*
X148511091Y-104530898D01*
X148476245Y-104548022D01*
X148418343Y-104582937D01*
X148345844Y-104630330D01*
X148277385Y-104677647D01*
X148025916Y-104844343D01*
X147782934Y-104981047D01*
X147593384Y-105070215D01*
X147464741Y-105132830D01*
X147351237Y-105205816D01*
X147285572Y-105258217D01*
X147285572Y-102861123D01*
X147278133Y-102707385D01*
X147253064Y-102576923D01*
X147181079Y-102396209D01*
X147075783Y-102229765D01*
X146941715Y-102082139D01*
X146783413Y-101957880D01*
X146605415Y-101861538D01*
X146499683Y-101821751D01*
X146377248Y-101792655D01*
X146234858Y-101774736D01*
X146086799Y-101768609D01*
X145947361Y-101774887D01*
X145852514Y-101790293D01*
X145852514Y-100609600D01*
X145839832Y-100417265D01*
X145796758Y-100235657D01*
X145724785Y-100068639D01*
X145625404Y-99920074D01*
X145500109Y-99793825D01*
X145350393Y-99693754D01*
X145254710Y-99649911D01*
X145076345Y-99600429D01*
X144893553Y-99586851D01*
X144799539Y-99597093D01*
X144799539Y-98502361D01*
X144788817Y-98480231D01*
X144754183Y-98464038D01*
X144691933Y-98453151D01*
X144598366Y-98446938D01*
X144469778Y-98444768D01*
X144461473Y-98444754D01*
X144223444Y-98461637D01*
X144003648Y-98511779D01*
X143804038Y-98593583D01*
X143626566Y-98705456D01*
X143473186Y-98845803D01*
X143345848Y-99013030D01*
X143246507Y-99205542D01*
X143177115Y-99421744D01*
X143159304Y-99508089D01*
X143146423Y-99600939D01*
X143139887Y-99692203D01*
X143139609Y-99773381D01*
X143145497Y-99835973D01*
X143157462Y-99871480D01*
X143163193Y-99875980D01*
X143213051Y-99875589D01*
X143290683Y-99850592D01*
X143373787Y-99812086D01*
X143477606Y-99753081D01*
X143595379Y-99675543D01*
X143723538Y-99582751D01*
X143858515Y-99477981D01*
X143996742Y-99364510D01*
X144134652Y-99245617D01*
X144268677Y-99124579D01*
X144395248Y-99004674D01*
X144510799Y-98889178D01*
X144611760Y-98781369D01*
X144694565Y-98684525D01*
X144755646Y-98601924D01*
X144791434Y-98536842D01*
X144799539Y-98502361D01*
X144799539Y-99597093D01*
X144709990Y-99606849D01*
X144529313Y-99658096D01*
X144355178Y-99738263D01*
X144191239Y-99845023D01*
X144041153Y-99976048D01*
X143908576Y-100129009D01*
X143797164Y-100301580D01*
X143710572Y-100491433D01*
X143658910Y-100666011D01*
X143628659Y-100875223D01*
X143632444Y-101075783D01*
X143668508Y-101264391D01*
X143735091Y-101437742D01*
X143830437Y-101592535D01*
X143952787Y-101725467D01*
X144100382Y-101833235D01*
X144271466Y-101912537D01*
X144332810Y-101931906D01*
X144436818Y-101949898D01*
X144562673Y-101954676D01*
X144695705Y-101946933D01*
X144821243Y-101927362D01*
X144902610Y-101905005D01*
X145059909Y-101840788D01*
X145197125Y-101762735D01*
X145327032Y-101662672D01*
X145424770Y-101570850D01*
X145540254Y-101447065D01*
X145629447Y-101330259D01*
X145700104Y-101208232D01*
X145759981Y-101068786D01*
X145780727Y-101011000D01*
X145833309Y-100808799D01*
X145852514Y-100609600D01*
X145852514Y-101790293D01*
X145834833Y-101793166D01*
X145635194Y-101860439D01*
X145455669Y-101955410D01*
X145298826Y-102074620D01*
X145167234Y-102214612D01*
X145063460Y-102371926D01*
X144990072Y-102543105D01*
X144949638Y-102724689D01*
X144944728Y-102913222D01*
X144952117Y-102981894D01*
X144998798Y-103175796D01*
X145078914Y-103353835D01*
X145189077Y-103513223D01*
X145325898Y-103651172D01*
X145485987Y-103764891D01*
X145665955Y-103851594D01*
X145862412Y-103908491D01*
X146071971Y-103932793D01*
X146108616Y-103933482D01*
X146206547Y-103929998D01*
X146309028Y-103920088D01*
X146395205Y-103905821D01*
X146401396Y-103904406D01*
X146593637Y-103841018D01*
X146771625Y-103746903D01*
X146930605Y-103626294D01*
X147065823Y-103483423D01*
X147172523Y-103322521D01*
X147243806Y-103154717D01*
X147274040Y-103015841D01*
X147285572Y-102861123D01*
X147285572Y-105258217D01*
X147255033Y-105282588D01*
X147218811Y-105309757D01*
X147218811Y-104641410D01*
X147193327Y-104586011D01*
X147137751Y-104532296D01*
X147049132Y-104478678D01*
X146933428Y-104427684D01*
X146796598Y-104381842D01*
X146644598Y-104343676D01*
X146601129Y-104334900D01*
X146492116Y-104320089D01*
X146355633Y-104310675D01*
X146202910Y-104306637D01*
X146045175Y-104307957D01*
X145893660Y-104314614D01*
X145759593Y-104326590D01*
X145691294Y-104336479D01*
X145514182Y-104374186D01*
X145354993Y-104421348D01*
X145216966Y-104476097D01*
X145103341Y-104536570D01*
X145017360Y-104600899D01*
X144962263Y-104667220D01*
X144941290Y-104733667D01*
X144944614Y-104766359D01*
X144972174Y-104821517D01*
X145027187Y-104890357D01*
X145103125Y-104967268D01*
X145193462Y-105046637D01*
X145291669Y-105122852D01*
X145391220Y-105190300D01*
X145485585Y-105243370D01*
X145515539Y-105257231D01*
X145726221Y-105330978D01*
X145937949Y-105371820D01*
X146144801Y-105379156D01*
X146340858Y-105352387D01*
X146373706Y-105344127D01*
X146602018Y-105264395D01*
X146807454Y-105153965D01*
X146993662Y-105010836D01*
X147012190Y-104993882D01*
X147115926Y-104887975D01*
X147184389Y-104795169D01*
X147218409Y-104713601D01*
X147218811Y-104641410D01*
X147218811Y-105309757D01*
X147035330Y-105447385D01*
X146805483Y-105574453D01*
X146565544Y-105663776D01*
X146315564Y-105715339D01*
X146055596Y-105729127D01*
X145815539Y-105709568D01*
X145608673Y-105662994D01*
X145398717Y-105583494D01*
X145194449Y-105475371D01*
X145004647Y-105342931D01*
X144919022Y-105269948D01*
X144823836Y-105190599D01*
X144731870Y-105132561D01*
X144698770Y-105117501D01*
X144698770Y-103883388D01*
X144694598Y-103725260D01*
X144668325Y-103569977D01*
X144617621Y-103408069D01*
X144540161Y-103230067D01*
X144536089Y-103221693D01*
X144424632Y-103027583D01*
X144287737Y-102853319D01*
X144118778Y-102690525D01*
X144110428Y-102683430D01*
X143928200Y-102544733D01*
X143752560Y-102442058D01*
X143584620Y-102375922D01*
X143425491Y-102346840D01*
X143383000Y-102345408D01*
X143258905Y-102360868D01*
X143223699Y-102377052D01*
X143223699Y-100819334D01*
X143221428Y-100697400D01*
X143215766Y-100591276D01*
X143206708Y-100509854D01*
X143199634Y-100476539D01*
X143162404Y-100381977D01*
X143114236Y-100311189D01*
X143059850Y-100269910D01*
X143022694Y-100261616D01*
X142962173Y-100277151D01*
X142886682Y-100320020D01*
X142802274Y-100384618D01*
X142715003Y-100465342D01*
X142630926Y-100556587D01*
X142556095Y-100652749D01*
X142496566Y-100748223D01*
X142496146Y-100749010D01*
X142420558Y-100927824D01*
X142374467Y-101120113D01*
X142357192Y-101319398D01*
X142368048Y-101519198D01*
X142406353Y-101713032D01*
X142471424Y-101894421D01*
X142562579Y-102056885D01*
X142644741Y-102159318D01*
X142710839Y-102221268D01*
X142765187Y-102249944D01*
X142813818Y-102246868D01*
X142862118Y-102214168D01*
X142931693Y-102129533D01*
X142998129Y-102010029D01*
X143059910Y-101859830D01*
X143115517Y-101683111D01*
X143163434Y-101484045D01*
X143199016Y-101287385D01*
X143210238Y-101191105D01*
X143218097Y-101075077D01*
X143222587Y-100948190D01*
X143223699Y-100819334D01*
X143223699Y-102377052D01*
X143157983Y-102407263D01*
X143080072Y-102484817D01*
X143025012Y-102593750D01*
X142992642Y-102734286D01*
X142982762Y-102897970D01*
X142995963Y-103071224D01*
X143032514Y-103253678D01*
X143088719Y-103433528D01*
X143160882Y-103598970D01*
X143245308Y-103738201D01*
X143246217Y-103739442D01*
X143308291Y-103814828D01*
X143388831Y-103899757D01*
X143478166Y-103985161D01*
X143566620Y-104061970D01*
X143644523Y-104121115D01*
X143672025Y-104138658D01*
X143841801Y-104223781D01*
X144011596Y-104281771D01*
X144175984Y-104311847D01*
X144329536Y-104313231D01*
X144466827Y-104285144D01*
X144524977Y-104261153D01*
X144593897Y-104216733D01*
X144642871Y-104158191D01*
X144674898Y-104079002D01*
X144692980Y-103972646D01*
X144698770Y-103883388D01*
X144698770Y-105117501D01*
X144631256Y-105086786D01*
X144377550Y-104969694D01*
X144114762Y-104816096D01*
X143968759Y-104717810D01*
X143879017Y-104657101D01*
X143787002Y-104598855D01*
X143704735Y-104550479D01*
X143653858Y-104523785D01*
X143430322Y-104396722D01*
X143227894Y-104239526D01*
X143049678Y-104056123D01*
X142898778Y-103850439D01*
X142778299Y-103626401D01*
X142691344Y-103387934D01*
X142662526Y-103269988D01*
X142641804Y-103184726D01*
X142611841Y-103080291D01*
X142577707Y-102973868D01*
X142561669Y-102928065D01*
X142526500Y-102825490D01*
X142492065Y-102715819D01*
X142463831Y-102616798D01*
X142454559Y-102580248D01*
X142421384Y-102468868D01*
X142379959Y-102384439D01*
X142352282Y-102345787D01*
X142223186Y-102158105D01*
X142118254Y-101948097D01*
X142059988Y-101785616D01*
X142031778Y-101657453D01*
X142014427Y-101506150D01*
X142008442Y-101346248D01*
X142014333Y-101192287D01*
X142032605Y-101058807D01*
X142034325Y-101050772D01*
X142100139Y-100818884D01*
X142190195Y-100606278D01*
X142274051Y-100460856D01*
X142335814Y-100375153D01*
X142409729Y-100284785D01*
X142488114Y-100198062D01*
X142563293Y-100123294D01*
X142627585Y-100068790D01*
X142650807Y-100053155D01*
X142720034Y-99989716D01*
X142765290Y-99896351D01*
X142785991Y-99774437D01*
X142787334Y-99730206D01*
X142803346Y-99523332D01*
X142848199Y-99308122D01*
X142918184Y-99097865D01*
X143009596Y-98905851D01*
X143024379Y-98880362D01*
X143097216Y-98777251D01*
X143196127Y-98664901D01*
X143312431Y-98551934D01*
X143437449Y-98446976D01*
X143524166Y-98383793D01*
X143684870Y-98274585D01*
X143612089Y-98252402D01*
X143497526Y-98203204D01*
X143417557Y-98135958D01*
X143385493Y-98085571D01*
X143349812Y-98032285D01*
X143294515Y-97992135D01*
X143255030Y-97973335D01*
X143162283Y-97919579D01*
X143087973Y-97849483D01*
X143040670Y-97771896D01*
X143031627Y-97742605D01*
X143018216Y-97700998D01*
X143003828Y-97682588D01*
X143003199Y-97682539D01*
X142981664Y-97670539D01*
X142940612Y-97639251D01*
X142894615Y-97600370D01*
X142810333Y-97509809D01*
X142760976Y-97418419D01*
X142748000Y-97344899D01*
X142733656Y-97301309D01*
X142697176Y-97251872D01*
X142686979Y-97241694D01*
X142615480Y-97151082D01*
X142577470Y-97048231D01*
X142572154Y-96991918D01*
X142558722Y-96926230D01*
X142520779Y-96842486D01*
X142502333Y-96810560D01*
X142463813Y-96742647D01*
X142444252Y-96691792D01*
X142439338Y-96643659D01*
X142441741Y-96609050D01*
X142439054Y-96520452D01*
X142413906Y-96453098D01*
X142374076Y-96359710D01*
X142364482Y-96277164D01*
X142384241Y-96192668D01*
X142394218Y-96168481D01*
X142417949Y-96106307D01*
X142422598Y-96064588D01*
X142413369Y-96036679D01*
X142399616Y-95982064D01*
X142399425Y-95908202D01*
X142410918Y-95831456D01*
X142432219Y-95768190D01*
X142446736Y-95745837D01*
X142518588Y-95691617D01*
X142613059Y-95658483D01*
X142690260Y-95650539D01*
X142757744Y-95641739D01*
X142810854Y-95609425D01*
X142825387Y-95595696D01*
X142910021Y-95537745D01*
X143022253Y-95503536D01*
X143135284Y-95494231D01*
X143220337Y-95485615D01*
X143290640Y-95455731D01*
X143306705Y-95445385D01*
X143368476Y-95412580D01*
X143437853Y-95398039D01*
X143488304Y-95395917D01*
X143566144Y-95389716D01*
X143623349Y-95373827D01*
X143636397Y-95366210D01*
X143725185Y-95323527D01*
X143836481Y-95312518D01*
X143930077Y-95324201D01*
X144000110Y-95336211D01*
X144047811Y-95337051D01*
X144088546Y-95325833D01*
X144114939Y-95313500D01*
X144175404Y-95288640D01*
X144232145Y-95281653D01*
X144298099Y-95292865D01*
X144379569Y-95320103D01*
X144463754Y-95345679D01*
X144537150Y-95351955D01*
X144584782Y-95347670D01*
X144649434Y-95342992D01*
X144706372Y-95351722D01*
X144774049Y-95377193D01*
X144791457Y-95385029D01*
X144903530Y-95424001D01*
X145016063Y-95435616D01*
X145079065Y-95437609D01*
X145125336Y-95447399D01*
X145169301Y-95470695D01*
X145225386Y-95513212D01*
X145238118Y-95523539D01*
X145315019Y-95579454D01*
X145375205Y-95607087D01*
X145406319Y-95611462D01*
X145484012Y-95629319D01*
X145570334Y-95680020D01*
X145661802Y-95759254D01*
X145754930Y-95862714D01*
X145846234Y-95986092D01*
X145932228Y-96125077D01*
X146009428Y-96275362D01*
X146074347Y-96432638D01*
X146077400Y-96441147D01*
X146087176Y-96452068D01*
X146102116Y-96437277D01*
X146124671Y-96392948D01*
X146155907Y-96318702D01*
X146224456Y-96170234D01*
X146305482Y-96030295D01*
X146395014Y-95903330D01*
X146489079Y-95793784D01*
X146583705Y-95706102D01*
X146674919Y-95644729D01*
X146758749Y-95614109D01*
X146787972Y-95611462D01*
X146849473Y-95603002D01*
X146899747Y-95571611D01*
X146920691Y-95551102D01*
X146995734Y-95485608D01*
X147074432Y-95449244D01*
X147171232Y-95435966D01*
X147196915Y-95435543D01*
X147286523Y-95428663D01*
X147355463Y-95405559D01*
X147378616Y-95392372D01*
X147427363Y-95367552D01*
X147482092Y-95354920D01*
X147557267Y-95351599D01*
X147581879Y-95351903D01*
X147713348Y-95343760D01*
X147812179Y-95316920D01*
X147906741Y-95287171D01*
X147983937Y-95282573D01*
X148056269Y-95303079D01*
X148082305Y-95315938D01*
X148139555Y-95339444D01*
X148185964Y-95338139D01*
X148199231Y-95333719D01*
X148280990Y-95315420D01*
X148375797Y-95313598D01*
X148466918Y-95327229D01*
X148536093Y-95354334D01*
X148628064Y-95389826D01*
X148701926Y-95396539D01*
X148788196Y-95405948D01*
X148860637Y-95438299D01*
X148871449Y-95445385D01*
X148938740Y-95480086D01*
X149015094Y-95493485D01*
X149045266Y-95494231D01*
X149166905Y-95503826D01*
X149266142Y-95535200D01*
X149354543Y-95591617D01*
X149425445Y-95635884D01*
X149496287Y-95650496D01*
X149502278Y-95650569D01*
X149598500Y-95667342D01*
X149687621Y-95712550D01*
X149749998Y-95772545D01*
X149775740Y-95831988D01*
X149787812Y-95910428D01*
X149785149Y-95989875D01*
X149766682Y-96052336D01*
X149766592Y-96052498D01*
X149758612Y-96089638D01*
X149774915Y-96139669D01*
X149783837Y-96157149D01*
X149816506Y-96253114D01*
X149811330Y-96351145D01*
X149777752Y-96437740D01*
X149744170Y-96531384D01*
X149740294Y-96610412D01*
X149732555Y-96698594D01*
X149702997Y-96786947D01*
X149657796Y-96859380D01*
X149636736Y-96880277D01*
X149614056Y-96921852D01*
X149606000Y-96992927D01*
X149606000Y-96993248D01*
X149593920Y-97086709D01*
X149561301Y-97170897D01*
X149545525Y-97191473D01*
X149545525Y-96305077D01*
X149448763Y-96311848D01*
X149388716Y-96313364D01*
X149359133Y-96305811D01*
X149352000Y-96289881D01*
X149362372Y-96233913D01*
X149389805Y-96159138D01*
X149428778Y-96078640D01*
X149469379Y-96011786D01*
X149529724Y-95924077D01*
X149294324Y-95924077D01*
X149203616Y-95923022D01*
X149129127Y-95920147D01*
X149078392Y-95915887D01*
X149058945Y-95910676D01*
X149058923Y-95910492D01*
X149071215Y-95888780D01*
X149101540Y-95852580D01*
X149109102Y-95844532D01*
X149159281Y-95792157D01*
X149091033Y-95779354D01*
X149027046Y-95775813D01*
X148939954Y-95781852D01*
X148844024Y-95795622D01*
X148753520Y-95815279D01*
X148708529Y-95828860D01*
X148653403Y-95837321D01*
X148623219Y-95819730D01*
X148619938Y-95781633D01*
X148645516Y-95728580D01*
X148664512Y-95704126D01*
X148680839Y-95681932D01*
X148671807Y-95675670D01*
X148631222Y-95681729D01*
X148627350Y-95682462D01*
X148571616Y-95695320D01*
X148497743Y-95715200D01*
X148443462Y-95731199D01*
X148364335Y-95754337D01*
X148314199Y-95764713D01*
X148285206Y-95762593D01*
X148269507Y-95748246D01*
X148264464Y-95737295D01*
X148269865Y-95701994D01*
X148302765Y-95654651D01*
X148309039Y-95647880D01*
X148365308Y-95588940D01*
X148306693Y-95603178D01*
X148126211Y-95662241D01*
X148006310Y-95719960D01*
X147950764Y-95747819D01*
X147918627Y-95754451D01*
X147903048Y-95743874D01*
X147887881Y-95689820D01*
X147906842Y-95629716D01*
X147917715Y-95600249D01*
X147914032Y-95591923D01*
X147885353Y-95602952D01*
X147835179Y-95632044D01*
X147772812Y-95673203D01*
X147707553Y-95720436D01*
X147674307Y-95746420D01*
X147588999Y-95815273D01*
X147550897Y-95768220D01*
X147526457Y-95723914D01*
X147522030Y-95685852D01*
X147525252Y-95660036D01*
X147514176Y-95654540D01*
X147485420Y-95671266D01*
X147435601Y-95712113D01*
X147369348Y-95771630D01*
X147306817Y-95828084D01*
X147266116Y-95861152D01*
X147240688Y-95874303D01*
X147223977Y-95871007D01*
X147210215Y-95855819D01*
X147188497Y-95806865D01*
X147182461Y-95768920D01*
X147179534Y-95750342D01*
X147168658Y-95747185D01*
X147145519Y-95762573D01*
X147105804Y-95799626D01*
X147045200Y-95861468D01*
X147023725Y-95883834D01*
X146956038Y-95953776D01*
X146909689Y-95998767D01*
X146879402Y-96022466D01*
X146859897Y-96028531D01*
X146845896Y-96020622D01*
X146838880Y-96011984D01*
X146817316Y-95971482D01*
X146812000Y-95948022D01*
X146803554Y-95927086D01*
X146777741Y-95938137D01*
X146733855Y-95981755D01*
X146671188Y-96058523D01*
X146660765Y-96072094D01*
X146545235Y-96240802D01*
X146454881Y-96409509D01*
X146390849Y-96574021D01*
X146354283Y-96730148D01*
X146346327Y-96873696D01*
X146368126Y-97000475D01*
X146391505Y-97058191D01*
X146438202Y-97130672D01*
X146502587Y-97205648D01*
X146572137Y-97269825D01*
X146623909Y-97304896D01*
X146659124Y-97320635D01*
X146687580Y-97320500D01*
X146722997Y-97301398D01*
X146760678Y-97274036D01*
X147029518Y-97081125D01*
X147288818Y-96912710D01*
X147551073Y-96761015D01*
X147759616Y-96652343D01*
X147862903Y-96602448D01*
X147978783Y-96549264D01*
X148101936Y-96494940D01*
X148227042Y-96441626D01*
X148348781Y-96391473D01*
X148461835Y-96346630D01*
X148560884Y-96309248D01*
X148640607Y-96281476D01*
X148695687Y-96265465D01*
X148720802Y-96263365D01*
X148721203Y-96263690D01*
X148707857Y-96275056D01*
X148665988Y-96300810D01*
X148601762Y-96337356D01*
X148521347Y-96381098D01*
X148504218Y-96390206D01*
X148283479Y-96510893D01*
X148060893Y-96639577D01*
X147843978Y-96771565D01*
X147640253Y-96902160D01*
X147457236Y-97026668D01*
X147302444Y-97140394D01*
X147300462Y-97141928D01*
X147193521Y-97227335D01*
X147094917Y-97311043D01*
X147009028Y-97388889D01*
X146940234Y-97456707D01*
X146892911Y-97510336D01*
X146871438Y-97545611D01*
X146870616Y-97550703D01*
X146881709Y-97597023D01*
X146910775Y-97662722D01*
X146951491Y-97736573D01*
X146997537Y-97807349D01*
X147042591Y-97863821D01*
X147052752Y-97874190D01*
X147176324Y-97969768D01*
X147330667Y-98050658D01*
X147509572Y-98114807D01*
X147706830Y-98160159D01*
X147916235Y-98184661D01*
X148001597Y-98188156D01*
X148126347Y-98190539D01*
X148074866Y-98150044D01*
X148036527Y-98116526D01*
X148020527Y-98090886D01*
X148030031Y-98071152D01*
X148068202Y-98055351D01*
X148138201Y-98041509D01*
X148243193Y-98027653D01*
X148277385Y-98023718D01*
X148355253Y-98012823D01*
X148431051Y-97998936D01*
X148460840Y-97992109D01*
X148536834Y-97972642D01*
X148475494Y-97935339D01*
X148435319Y-97907173D01*
X148414827Y-97885504D01*
X148414154Y-97882851D01*
X148431428Y-97870240D01*
X148476698Y-97851817D01*
X148539668Y-97831720D01*
X148626447Y-97803579D01*
X148716934Y-97769197D01*
X148769245Y-97746349D01*
X148873308Y-97696923D01*
X148804923Y-97678432D01*
X148748992Y-97660103D01*
X148725672Y-97641490D01*
X148735963Y-97618827D01*
X148780861Y-97588348D01*
X148836680Y-97558686D01*
X148919732Y-97513591D01*
X149004740Y-97462769D01*
X149068630Y-97420445D01*
X149120029Y-97382324D01*
X149142226Y-97361084D01*
X149138544Y-97351945D01*
X149117476Y-97350118D01*
X149057475Y-97344841D01*
X149008238Y-97332074D01*
X148982206Y-97315413D01*
X148980770Y-97310623D01*
X148995918Y-97291750D01*
X149034073Y-97262609D01*
X149054039Y-97249674D01*
X149107555Y-97212217D01*
X149173758Y-97159889D01*
X149230092Y-97111312D01*
X149332876Y-97018231D01*
X149269169Y-97017932D01*
X149211261Y-97014181D01*
X149183143Y-97001062D01*
X149184984Y-96974753D01*
X149216952Y-96931432D01*
X149275678Y-96870748D01*
X149335406Y-96810428D01*
X149388048Y-96754337D01*
X149424180Y-96712591D01*
X149429504Y-96705616D01*
X149464943Y-96656770D01*
X149384048Y-96662267D01*
X149312328Y-96662955D01*
X149274300Y-96651408D01*
X149269664Y-96625289D01*
X149298116Y-96582260D01*
X149359357Y-96519985D01*
X149364988Y-96514729D01*
X149425148Y-96456337D01*
X149476884Y-96401695D01*
X149510928Y-96360703D01*
X149515481Y-96353923D01*
X149545525Y-96305077D01*
X149545525Y-97191473D01*
X149513579Y-97233139D01*
X149498006Y-97245069D01*
X149459943Y-97291778D01*
X149441948Y-97351896D01*
X149408494Y-97454895D01*
X149340865Y-97550527D01*
X149261031Y-97623923D01*
X149181551Y-97706239D01*
X149129251Y-97791731D01*
X149064850Y-97889364D01*
X148975813Y-97956800D01*
X148896947Y-97986177D01*
X148843205Y-98018310D01*
X148803351Y-98076389D01*
X148738461Y-98160783D01*
X148640588Y-98224325D01*
X148567640Y-98251930D01*
X148496434Y-98273642D01*
X148645794Y-98372229D01*
X148750183Y-98449310D01*
X148861044Y-98545027D01*
X148969611Y-98650608D01*
X149067119Y-98757279D01*
X149144802Y-98856268D01*
X149173754Y-98900617D01*
X149264321Y-99082783D01*
X149332626Y-99288825D01*
X149379668Y-99522345D01*
X149402120Y-99724308D01*
X149411319Y-99810049D01*
X149423975Y-99886583D01*
X149437853Y-99941315D01*
X149442824Y-99953468D01*
X149472131Y-99992369D01*
X149522548Y-100042261D01*
X149580488Y-100090237D01*
X149711524Y-100208129D01*
X149835927Y-100356230D01*
X149947856Y-100525679D01*
X150041473Y-100707619D01*
X150110938Y-100893187D01*
X150111964Y-100896616D01*
X150163906Y-101137179D01*
X150178527Y-101379881D01*
X150178527Y-101379881D01*
X150178527Y-101379881D01*
G37*
X150178527Y-101379881D02*
X150156635Y-101620328D01*
X150099043Y-101854126D01*
X150006558Y-102076882D01*
X149879992Y-102284203D01*
X149848418Y-102326322D01*
X149788383Y-102417023D01*
X149748085Y-102514638D01*
X149732117Y-102573068D01*
X149720673Y-102615741D01*
X149720673Y-101381931D01*
X149720643Y-101242939D01*
X149711271Y-101113340D01*
X149693883Y-101013067D01*
X149626309Y-100820181D01*
X149525662Y-100637333D01*
X149397367Y-100472219D01*
X149246846Y-100332535D01*
X149180745Y-100284919D01*
X149119312Y-100246776D01*
X149077066Y-100229236D01*
X149042604Y-100228586D01*
X149023741Y-100233769D01*
X148969862Y-100272010D01*
X148929870Y-100335610D01*
X148929870Y-99792944D01*
X148929166Y-99724308D01*
X148908414Y-99497215D01*
X148853434Y-99288828D01*
X148764002Y-99098607D01*
X148639897Y-98926009D01*
X148572479Y-98853747D01*
X148425267Y-98723527D01*
X148273936Y-98624395D01*
X148109594Y-98552042D01*
X147923352Y-98502160D01*
X147806383Y-98482464D01*
X147704779Y-98472262D01*
X147599414Y-98468487D01*
X147498034Y-98470621D01*
X147408381Y-98478144D01*
X147338200Y-98490537D01*
X147295236Y-98507281D01*
X147286295Y-98517339D01*
X147285653Y-98553415D01*
X147307483Y-98604573D01*
X147353552Y-98673464D01*
X147425625Y-98762735D01*
X147523168Y-98872524D01*
X147654188Y-99009667D01*
X147794990Y-99146475D01*
X147941881Y-99280168D01*
X148091169Y-99407966D01*
X148239161Y-99527087D01*
X148382164Y-99634751D01*
X148516485Y-99728177D01*
X148638432Y-99804585D01*
X148744312Y-99861194D01*
X148830431Y-99895222D01*
X148892846Y-99903915D01*
X148911379Y-99899149D01*
X148922701Y-99884139D01*
X148928352Y-99851273D01*
X148929870Y-99792944D01*
X148929870Y-100335610D01*
X148924501Y-100344149D01*
X148888745Y-100445720D01*
X148863683Y-100572259D01*
X148850404Y-100719299D01*
X148849995Y-100882374D01*
X148852665Y-100935693D01*
X148872150Y-101154825D01*
X148901919Y-101362936D01*
X148940763Y-101556672D01*
X148987469Y-101732680D01*
X149040825Y-101887609D01*
X149099622Y-102018104D01*
X149162646Y-102120814D01*
X149228687Y-102192385D01*
X149296533Y-102229465D01*
X149321697Y-102233762D01*
X149343485Y-102221112D01*
X149382820Y-102186753D01*
X149431207Y-102138108D01*
X149431445Y-102137854D01*
X149513245Y-102032878D01*
X149589093Y-101902736D01*
X149651849Y-101761321D01*
X149692810Y-101629308D01*
X149711387Y-101515620D01*
X149720673Y-101381931D01*
X149720673Y-102615741D01*
X149709842Y-102656130D01*
X149679129Y-102758552D01*
X149645239Y-102863097D01*
X149630980Y-102904466D01*
X149596363Y-103009197D01*
X149559009Y-103132666D01*
X149524669Y-103255466D01*
X149509379Y-103314773D01*
X149440096Y-103544310D01*
X149350659Y-103746763D01*
X149235967Y-103930781D01*
X149166053Y-104014761D01*
X149166053Y-102938385D01*
X149165267Y-102817130D01*
X149162600Y-102726229D01*
X149157134Y-102656970D01*
X149147950Y-102600642D01*
X149134130Y-102548534D01*
X149120722Y-102508539D01*
X149070279Y-102386279D01*
X149016093Y-102297707D01*
X148954104Y-102237434D01*
X148891261Y-102204049D01*
X148772585Y-102178695D01*
X148643413Y-102189485D01*
X148558131Y-102218171D01*
X148558131Y-100831667D01*
X148545962Y-100686835D01*
X148523758Y-100574231D01*
X148446223Y-100357402D01*
X148336515Y-100155885D01*
X148198413Y-99974478D01*
X148035696Y-99817982D01*
X147852143Y-99691193D01*
X147810139Y-99668180D01*
X147646835Y-99594654D01*
X147490063Y-99550956D01*
X147326005Y-99533553D01*
X147280923Y-99532898D01*
X147163155Y-99543164D01*
X147163155Y-98903693D01*
X147144708Y-98819248D01*
X147094009Y-98727571D01*
X147016072Y-98633191D01*
X146915909Y-98540636D01*
X146798534Y-98454434D01*
X146668961Y-98379114D01*
X146532203Y-98319204D01*
X146505830Y-98309941D01*
X146294331Y-98254332D01*
X146091566Y-98234413D01*
X145892088Y-98250553D01*
X145853262Y-98260674D01*
X145853262Y-96884958D01*
X145851278Y-96736626D01*
X145819927Y-96579125D01*
X145758906Y-96416936D01*
X145742982Y-96384066D01*
X145693335Y-96293718D01*
X145633138Y-96196593D01*
X145569567Y-96103260D01*
X145509800Y-96024288D01*
X145463628Y-95972714D01*
X145405618Y-95917137D01*
X145383975Y-95979222D01*
X145365980Y-96021228D01*
X145350821Y-96041243D01*
X145349589Y-96041511D01*
X145332058Y-96028142D01*
X145293715Y-95991583D01*
X145240198Y-95937405D01*
X145177148Y-95871181D01*
X145176557Y-95870550D01*
X145016267Y-95699385D01*
X145015365Y-95770262D01*
X145006559Y-95825617D01*
X144986063Y-95864529D01*
X144983818Y-95866571D01*
X144962287Y-95877290D01*
X144937872Y-95868228D01*
X144901873Y-95834794D01*
X144881241Y-95812417D01*
X144824448Y-95754907D01*
X144763335Y-95700772D01*
X144738692Y-95681620D01*
X144668075Y-95630409D01*
X144677051Y-95677361D01*
X144675978Y-95723920D01*
X144661057Y-95770572D01*
X144638449Y-95801824D01*
X144625557Y-95806846D01*
X144602744Y-95795556D01*
X144559726Y-95766179D01*
X144513899Y-95731371D01*
X144450905Y-95684448D01*
X144389239Y-95643207D01*
X144355472Y-95623631D01*
X144292404Y-95591368D01*
X144304063Y-95649658D01*
X144312053Y-95705175D01*
X144305793Y-95737012D01*
X144280573Y-95746299D01*
X144231685Y-95734167D01*
X144154420Y-95701747D01*
X144131278Y-95691141D01*
X144052202Y-95656277D01*
X143980382Y-95627607D01*
X143927471Y-95609677D01*
X143914375Y-95606557D01*
X143859595Y-95596941D01*
X143899721Y-95639653D01*
X143929285Y-95685771D01*
X143939846Y-95727345D01*
X143939411Y-95748263D01*
X143933672Y-95760540D01*
X143915981Y-95764034D01*
X143879688Y-95758602D01*
X143818145Y-95744098D01*
X143734693Y-95722923D01*
X143661713Y-95704642D01*
X143595895Y-95688650D01*
X143562285Y-95680846D01*
X143507108Y-95668607D01*
X143548399Y-95712928D01*
X143575361Y-95755860D01*
X143582893Y-95797979D01*
X143570930Y-95827296D01*
X143549068Y-95833666D01*
X143516967Y-95828639D01*
X143458022Y-95817528D01*
X143383585Y-95802498D01*
X143364226Y-95798452D01*
X143264859Y-95781824D01*
X143179631Y-95775640D01*
X143132919Y-95778527D01*
X143057156Y-95791327D01*
X143107732Y-95844118D01*
X143140695Y-95881826D01*
X143157685Y-95907716D01*
X143158308Y-95910492D01*
X143140024Y-95915717D01*
X143090187Y-95920010D01*
X143016314Y-95922941D01*
X142925927Y-95924075D01*
X142921928Y-95924077D01*
X142685547Y-95924077D01*
X142727692Y-95987577D01*
X142768283Y-96056393D01*
X142806342Y-96133788D01*
X142835896Y-96206385D01*
X142850972Y-96260803D01*
X142851459Y-96264793D01*
X142848584Y-96289469D01*
X142827638Y-96303772D01*
X142779528Y-96312569D01*
X142757770Y-96314930D01*
X142660077Y-96324782D01*
X142801731Y-96470279D01*
X142860478Y-96532000D01*
X142907332Y-96583854D01*
X142936530Y-96619300D01*
X142943385Y-96631016D01*
X142926270Y-96647753D01*
X142884569Y-96660007D01*
X142832741Y-96664757D01*
X142796485Y-96661688D01*
X142760371Y-96660861D01*
X142748000Y-96670582D01*
X142761191Y-96690900D01*
X142796879Y-96731745D01*
X142849243Y-96786721D01*
X142898104Y-96835478D01*
X142969116Y-96907501D01*
X143010874Y-96958062D01*
X143024105Y-96990755D01*
X143009540Y-97009177D01*
X142967907Y-97016924D01*
X142935094Y-97017932D01*
X142877958Y-97018231D01*
X142925325Y-97069193D01*
X142964960Y-97106031D01*
X143024389Y-97154711D01*
X143091137Y-97205039D01*
X143094808Y-97207677D01*
X143152887Y-97251209D01*
X143195988Y-97287146D01*
X143216288Y-97308872D01*
X143216923Y-97310933D01*
X143199328Y-97331844D01*
X143154159Y-97346255D01*
X143105471Y-97350385D01*
X143075482Y-97355193D01*
X143073834Y-97370540D01*
X143102125Y-97397812D01*
X143161954Y-97438393D01*
X143254919Y-97493668D01*
X143300978Y-97519774D01*
X143384570Y-97567344D01*
X143438319Y-97600370D01*
X143466819Y-97622777D01*
X143474665Y-97638488D01*
X143466451Y-97651428D01*
X143460551Y-97656088D01*
X143412038Y-97677235D01*
X143375532Y-97682539D01*
X143341838Y-97684274D01*
X143344174Y-97694670D01*
X143364612Y-97710523D01*
X143398767Y-97728524D01*
X143460140Y-97754417D01*
X143538744Y-97784151D01*
X143593039Y-97803177D01*
X143672138Y-97831400D01*
X143735191Y-97856507D01*
X143774417Y-97875239D01*
X143783539Y-97882941D01*
X143768481Y-97902123D01*
X143731509Y-97929564D01*
X143724243Y-97934096D01*
X143664947Y-97970156D01*
X143748666Y-97992649D01*
X143809041Y-98005597D01*
X143892016Y-98019239D01*
X143981253Y-98030936D01*
X143995535Y-98032506D01*
X144072736Y-98042615D01*
X144135212Y-98054301D01*
X144172524Y-98065492D01*
X144177445Y-98068629D01*
X144176588Y-98093134D01*
X144142990Y-98131985D01*
X144131525Y-98142030D01*
X144066846Y-98196670D01*
X144272111Y-98183527D01*
X144380752Y-98173624D01*
X144496409Y-98158341D01*
X144600104Y-98140341D01*
X144636119Y-98132469D01*
X144830509Y-98071299D01*
X144997713Y-97987845D01*
X145135498Y-97883699D01*
X145241630Y-97760453D01*
X145296820Y-97661613D01*
X145350614Y-97541743D01*
X145275346Y-97463189D01*
X145138453Y-97331831D01*
X144972622Y-97193619D01*
X144776522Y-97047654D01*
X144548826Y-96893038D01*
X144288203Y-96728872D01*
X143993325Y-96554259D01*
X143662861Y-96368301D01*
X143620871Y-96345246D01*
X143559206Y-96310058D01*
X143514800Y-96281985D01*
X143495345Y-96265974D01*
X143495277Y-96264441D01*
X143516444Y-96267579D01*
X143567911Y-96283784D01*
X143644003Y-96310871D01*
X143739041Y-96346655D01*
X143847350Y-96388950D01*
X143963254Y-96435571D01*
X144081074Y-96484334D01*
X144195135Y-96533054D01*
X144210449Y-96539733D01*
X144451231Y-96653338D01*
X144701165Y-96786352D01*
X144948731Y-96931967D01*
X145182406Y-97083370D01*
X145390671Y-97233752D01*
X145410433Y-97249078D01*
X145471630Y-97294641D01*
X145517453Y-97317650D01*
X145558544Y-97317374D01*
X145605545Y-97293082D01*
X145669098Y-97244042D01*
X145686024Y-97230135D01*
X145770333Y-97136193D01*
X145826180Y-97019641D01*
X145853262Y-96884958D01*
X145853262Y-98260674D01*
X145690451Y-98303119D01*
X145512693Y-98377003D01*
X145365915Y-98458230D01*
X145241549Y-98548632D01*
X145143143Y-98644466D01*
X145074248Y-98741986D01*
X145038415Y-98837451D01*
X145034000Y-98881764D01*
X145053067Y-98986690D01*
X145108555Y-99087068D01*
X145197892Y-99180935D01*
X145318506Y-99266328D01*
X145467828Y-99341283D01*
X145643285Y-99403837D01*
X145756923Y-99433874D01*
X145832390Y-99444992D01*
X145936729Y-99451536D01*
X146060037Y-99453760D01*
X146192410Y-99451917D01*
X146323942Y-99446260D01*
X146444729Y-99437042D01*
X146544867Y-99424516D01*
X146603640Y-99412233D01*
X146770000Y-99353776D01*
X146910758Y-99279951D01*
X147023136Y-99193283D01*
X147104354Y-99096298D01*
X147151634Y-98991522D01*
X147163155Y-98903693D01*
X147163155Y-99543164D01*
X147085395Y-99549944D01*
X146909737Y-99600599D01*
X146753327Y-99685199D01*
X146615541Y-99804083D01*
X146495901Y-99957360D01*
X146410806Y-100123294D01*
X146357598Y-100306557D01*
X146336397Y-100501725D01*
X146347325Y-100703370D01*
X146390501Y-100906065D01*
X146466046Y-101104386D01*
X146470257Y-101113220D01*
X146580489Y-101304751D01*
X146713976Y-101473339D01*
X146866807Y-101616877D01*
X147035074Y-101733258D01*
X147214869Y-101820375D01*
X147402282Y-101876120D01*
X147593405Y-101898387D01*
X147784328Y-101885068D01*
X147868663Y-101867027D01*
X148042095Y-101802337D01*
X148195259Y-101705002D01*
X148326270Y-101576861D01*
X148433242Y-101419753D01*
X148513251Y-101238539D01*
X148541557Y-101121331D01*
X148556590Y-100981103D01*
X148558131Y-100831667D01*
X148558131Y-102218171D01*
X148503370Y-102236592D01*
X148352079Y-102320194D01*
X148189163Y-102440463D01*
X148014245Y-102597577D01*
X147986621Y-102624657D01*
X147805686Y-102826387D01*
X147656751Y-103040236D01*
X147541321Y-103262963D01*
X147460904Y-103491330D01*
X147417007Y-103722097D01*
X147408785Y-103866462D01*
X147414566Y-104003895D01*
X147435539Y-104110091D01*
X147475096Y-104191066D01*
X147536629Y-104252838D01*
X147623533Y-104301421D01*
X147663053Y-104317355D01*
X147755418Y-104337870D01*
X147872047Y-104342815D01*
X148001768Y-104333089D01*
X148133409Y-104309591D01*
X148255798Y-104273220D01*
X148267657Y-104268691D01*
X148447271Y-104179792D01*
X148622417Y-104057383D01*
X148786570Y-103906976D01*
X148933208Y-103734084D01*
X148982246Y-103664734D01*
X149048166Y-103558277D01*
X149096968Y-103457323D01*
X149130904Y-103352974D01*
X149152227Y-103236327D01*
X149163188Y-103098484D01*
X149166053Y-102938385D01*
X149166053Y-104014761D01*
X149090921Y-104105010D01*
X148976408Y-104218540D01*
X148885667Y-104296655D01*
X148785050Y-104372988D01*
X148683823Y-104441318D01*
X148591257Y-104495423D01*
X148516617Y-104529082D01*
X148511091Y-104530898D01*
X148476245Y-104548022D01*
X148418343Y-104582937D01*
X148345844Y-104630330D01*
X148277385Y-104677647D01*
X148025916Y-104844343D01*
X147782934Y-104981047D01*
X147593384Y-105070215D01*
X147464741Y-105132830D01*
X147351237Y-105205816D01*
X147285572Y-105258217D01*
X147285572Y-102861123D01*
X147278133Y-102707385D01*
X147253064Y-102576923D01*
X147181079Y-102396209D01*
X147075783Y-102229765D01*
X146941715Y-102082139D01*
X146783413Y-101957880D01*
X146605415Y-101861538D01*
X146499683Y-101821751D01*
X146377248Y-101792655D01*
X146234858Y-101774736D01*
X146086799Y-101768609D01*
X145947361Y-101774887D01*
X145852514Y-101790293D01*
X145852514Y-100609600D01*
X145839832Y-100417265D01*
X145796758Y-100235657D01*
X145724785Y-100068639D01*
X145625404Y-99920074D01*
X145500109Y-99793825D01*
X145350393Y-99693754D01*
X145254710Y-99649911D01*
X145076345Y-99600429D01*
X144893553Y-99586851D01*
X144799539Y-99597093D01*
X144799539Y-98502361D01*
X144788817Y-98480231D01*
X144754183Y-98464038D01*
X144691933Y-98453151D01*
X144598366Y-98446938D01*
X144469778Y-98444768D01*
X144461473Y-98444754D01*
X144223444Y-98461637D01*
X144003648Y-98511779D01*
X143804038Y-98593583D01*
X143626566Y-98705456D01*
X143473186Y-98845803D01*
X143345848Y-99013030D01*
X143246507Y-99205542D01*
X143177115Y-99421744D01*
X143159304Y-99508089D01*
X143146423Y-99600939D01*
X143139887Y-99692203D01*
X143139609Y-99773381D01*
X143145497Y-99835973D01*
X143157462Y-99871480D01*
X143163193Y-99875980D01*
X143213051Y-99875589D01*
X143290683Y-99850592D01*
X143373787Y-99812086D01*
X143477606Y-99753081D01*
X143595379Y-99675543D01*
X143723538Y-99582751D01*
X143858515Y-99477981D01*
X143996742Y-99364510D01*
X144134652Y-99245617D01*
X144268677Y-99124579D01*
X144395248Y-99004674D01*
X144510799Y-98889178D01*
X144611760Y-98781369D01*
X144694565Y-98684525D01*
X144755646Y-98601924D01*
X144791434Y-98536842D01*
X144799539Y-98502361D01*
X144799539Y-99597093D01*
X144709990Y-99606849D01*
X144529313Y-99658096D01*
X144355178Y-99738263D01*
X144191239Y-99845023D01*
X144041153Y-99976048D01*
X143908576Y-100129009D01*
X143797164Y-100301580D01*
X143710572Y-100491433D01*
X143658910Y-100666011D01*
X143628659Y-100875223D01*
X143632444Y-101075783D01*
X143668508Y-101264391D01*
X143735091Y-101437742D01*
X143830437Y-101592535D01*
X143952787Y-101725467D01*
X144100382Y-101833235D01*
X144271466Y-101912537D01*
X144332810Y-101931906D01*
X144436818Y-101949898D01*
X144562673Y-101954676D01*
X144695705Y-101946933D01*
X144821243Y-101927362D01*
X144902610Y-101905005D01*
X145059909Y-101840788D01*
X145197125Y-101762735D01*
X145327032Y-101662672D01*
X145424770Y-101570850D01*
X145540254Y-101447065D01*
X145629447Y-101330259D01*
X145700104Y-101208232D01*
X145759981Y-101068786D01*
X145780727Y-101011000D01*
X145833309Y-100808799D01*
X145852514Y-100609600D01*
X145852514Y-101790293D01*
X145834833Y-101793166D01*
X145635194Y-101860439D01*
X145455669Y-101955410D01*
X145298826Y-102074620D01*
X145167234Y-102214612D01*
X145063460Y-102371926D01*
X144990072Y-102543105D01*
X144949638Y-102724689D01*
X144944728Y-102913222D01*
X144952117Y-102981894D01*
X144998798Y-103175796D01*
X145078914Y-103353835D01*
X145189077Y-103513223D01*
X145325898Y-103651172D01*
X145485987Y-103764891D01*
X145665955Y-103851594D01*
X145862412Y-103908491D01*
X146071971Y-103932793D01*
X146108616Y-103933482D01*
X146206547Y-103929998D01*
X146309028Y-103920088D01*
X146395205Y-103905821D01*
X146401396Y-103904406D01*
X146593637Y-103841018D01*
X146771625Y-103746903D01*
X146930605Y-103626294D01*
X147065823Y-103483423D01*
X147172523Y-103322521D01*
X147243806Y-103154717D01*
X147274040Y-103015841D01*
X147285572Y-102861123D01*
X147285572Y-105258217D01*
X147255033Y-105282588D01*
X147218811Y-105309757D01*
X147218811Y-104641410D01*
X147193327Y-104586011D01*
X147137751Y-104532296D01*
X147049132Y-104478678D01*
X146933428Y-104427684D01*
X146796598Y-104381842D01*
X146644598Y-104343676D01*
X146601129Y-104334900D01*
X146492116Y-104320089D01*
X146355633Y-104310675D01*
X146202910Y-104306637D01*
X146045175Y-104307957D01*
X145893660Y-104314614D01*
X145759593Y-104326590D01*
X145691294Y-104336479D01*
X145514182Y-104374186D01*
X145354993Y-104421348D01*
X145216966Y-104476097D01*
X145103341Y-104536570D01*
X145017360Y-104600899D01*
X144962263Y-104667220D01*
X144941290Y-104733667D01*
X144944614Y-104766359D01*
X144972174Y-104821517D01*
X145027187Y-104890357D01*
X145103125Y-104967268D01*
X145193462Y-105046637D01*
X145291669Y-105122852D01*
X145391220Y-105190300D01*
X145485585Y-105243370D01*
X145515539Y-105257231D01*
X145726221Y-105330978D01*
X145937949Y-105371820D01*
X146144801Y-105379156D01*
X146340858Y-105352387D01*
X146373706Y-105344127D01*
X146602018Y-105264395D01*
X146807454Y-105153965D01*
X146993662Y-105010836D01*
X147012190Y-104993882D01*
X147115926Y-104887975D01*
X147184389Y-104795169D01*
X147218409Y-104713601D01*
X147218811Y-104641410D01*
X147218811Y-105309757D01*
X147035330Y-105447385D01*
X146805483Y-105574453D01*
X146565544Y-105663776D01*
X146315564Y-105715339D01*
X146055596Y-105729127D01*
X145815539Y-105709568D01*
X145608673Y-105662994D01*
X145398717Y-105583494D01*
X145194449Y-105475371D01*
X145004647Y-105342931D01*
X144919022Y-105269948D01*
X144823836Y-105190599D01*
X144731870Y-105132561D01*
X144698770Y-105117501D01*
X144698770Y-103883388D01*
X144694598Y-103725260D01*
X144668325Y-103569977D01*
X144617621Y-103408069D01*
X144540161Y-103230067D01*
X144536089Y-103221693D01*
X144424632Y-103027583D01*
X144287737Y-102853319D01*
X144118778Y-102690525D01*
X144110428Y-102683430D01*
X143928200Y-102544733D01*
X143752560Y-102442058D01*
X143584620Y-102375922D01*
X143425491Y-102346840D01*
X143383000Y-102345408D01*
X143258905Y-102360868D01*
X143223699Y-102377052D01*
X143223699Y-100819334D01*
X143221428Y-100697400D01*
X143215766Y-100591276D01*
X143206708Y-100509854D01*
X143199634Y-100476539D01*
X143162404Y-100381977D01*
X143114236Y-100311189D01*
X143059850Y-100269910D01*
X143022694Y-100261616D01*
X142962173Y-100277151D01*
X142886682Y-100320020D01*
X142802274Y-100384618D01*
X142715003Y-100465342D01*
X142630926Y-100556587D01*
X142556095Y-100652749D01*
X142496566Y-100748223D01*
X142496146Y-100749010D01*
X142420558Y-100927824D01*
X142374467Y-101120113D01*
X142357192Y-101319398D01*
X142368048Y-101519198D01*
X142406353Y-101713032D01*
X142471424Y-101894421D01*
X142562579Y-102056885D01*
X142644741Y-102159318D01*
X142710839Y-102221268D01*
X142765187Y-102249944D01*
X142813818Y-102246868D01*
X142862118Y-102214168D01*
X142931693Y-102129533D01*
X142998129Y-102010029D01*
X143059910Y-101859830D01*
X143115517Y-101683111D01*
X143163434Y-101484045D01*
X143199016Y-101287385D01*
X143210238Y-101191105D01*
X143218097Y-101075077D01*
X143222587Y-100948190D01*
X143223699Y-100819334D01*
X143223699Y-102377052D01*
X143157983Y-102407263D01*
X143080072Y-102484817D01*
X143025012Y-102593750D01*
X142992642Y-102734286D01*
X142982762Y-102897970D01*
X142995963Y-103071224D01*
X143032514Y-103253678D01*
X143088719Y-103433528D01*
X143160882Y-103598970D01*
X143245308Y-103738201D01*
X143246217Y-103739442D01*
X143308291Y-103814828D01*
X143388831Y-103899757D01*
X143478166Y-103985161D01*
X143566620Y-104061970D01*
X143644523Y-104121115D01*
X143672025Y-104138658D01*
X143841801Y-104223781D01*
X144011596Y-104281771D01*
X144175984Y-104311847D01*
X144329536Y-104313231D01*
X144466827Y-104285144D01*
X144524977Y-104261153D01*
X144593897Y-104216733D01*
X144642871Y-104158191D01*
X144674898Y-104079002D01*
X144692980Y-103972646D01*
X144698770Y-103883388D01*
X144698770Y-105117501D01*
X144631256Y-105086786D01*
X144377550Y-104969694D01*
X144114762Y-104816096D01*
X143968759Y-104717810D01*
X143879017Y-104657101D01*
X143787002Y-104598855D01*
X143704735Y-104550479D01*
X143653858Y-104523785D01*
X143430322Y-104396722D01*
X143227894Y-104239526D01*
X143049678Y-104056123D01*
X142898778Y-103850439D01*
X142778299Y-103626401D01*
X142691344Y-103387934D01*
X142662526Y-103269988D01*
X142641804Y-103184726D01*
X142611841Y-103080291D01*
X142577707Y-102973868D01*
X142561669Y-102928065D01*
X142526500Y-102825490D01*
X142492065Y-102715819D01*
X142463831Y-102616798D01*
X142454559Y-102580248D01*
X142421384Y-102468868D01*
X142379959Y-102384439D01*
X142352282Y-102345787D01*
X142223186Y-102158105D01*
X142118254Y-101948097D01*
X142059988Y-101785616D01*
X142031778Y-101657453D01*
X142014427Y-101506150D01*
X142008442Y-101346248D01*
X142014333Y-101192287D01*
X142032605Y-101058807D01*
X142034325Y-101050772D01*
X142100139Y-100818884D01*
X142190195Y-100606278D01*
X142274051Y-100460856D01*
X142335814Y-100375153D01*
X142409729Y-100284785D01*
X142488114Y-100198062D01*
X142563293Y-100123294D01*
X142627585Y-100068790D01*
X142650807Y-100053155D01*
X142720034Y-99989716D01*
X142765290Y-99896351D01*
X142785991Y-99774437D01*
X142787334Y-99730206D01*
X142803346Y-99523332D01*
X142848199Y-99308122D01*
X142918184Y-99097865D01*
X143009596Y-98905851D01*
X143024379Y-98880362D01*
X143097216Y-98777251D01*
X143196127Y-98664901D01*
X143312431Y-98551934D01*
X143437449Y-98446976D01*
X143524166Y-98383793D01*
X143684870Y-98274585D01*
X143612089Y-98252402D01*
X143497526Y-98203204D01*
X143417557Y-98135958D01*
X143385493Y-98085571D01*
X143349812Y-98032285D01*
X143294515Y-97992135D01*
X143255030Y-97973335D01*
X143162283Y-97919579D01*
X143087973Y-97849483D01*
X143040670Y-97771896D01*
X143031627Y-97742605D01*
X143018216Y-97700998D01*
X143003828Y-97682588D01*
X143003199Y-97682539D01*
X142981664Y-97670539D01*
X142940612Y-97639251D01*
X142894615Y-97600370D01*
X142810333Y-97509809D01*
X142760976Y-97418419D01*
X142748000Y-97344899D01*
X142733656Y-97301309D01*
X142697176Y-97251872D01*
X142686979Y-97241694D01*
X142615480Y-97151082D01*
X142577470Y-97048231D01*
X142572154Y-96991918D01*
X142558722Y-96926230D01*
X142520779Y-96842486D01*
X142502333Y-96810560D01*
X142463813Y-96742647D01*
X142444252Y-96691792D01*
X142439338Y-96643659D01*
X142441741Y-96609050D01*
X142439054Y-96520452D01*
X142413906Y-96453098D01*
X142374076Y-96359710D01*
X142364482Y-96277164D01*
X142384241Y-96192668D01*
X142394218Y-96168481D01*
X142417949Y-96106307D01*
X142422598Y-96064588D01*
X142413369Y-96036679D01*
X142399616Y-95982064D01*
X142399425Y-95908202D01*
X142410918Y-95831456D01*
X142432219Y-95768190D01*
X142446736Y-95745837D01*
X142518588Y-95691617D01*
X142613059Y-95658483D01*
X142690260Y-95650539D01*
X142757744Y-95641739D01*
X142810854Y-95609425D01*
X142825387Y-95595696D01*
X142910021Y-95537745D01*
X143022253Y-95503536D01*
X143135284Y-95494231D01*
X143220337Y-95485615D01*
X143290640Y-95455731D01*
X143306705Y-95445385D01*
X143368476Y-95412580D01*
X143437853Y-95398039D01*
X143488304Y-95395917D01*
X143566144Y-95389716D01*
X143623349Y-95373827D01*
X143636397Y-95366210D01*
X143725185Y-95323527D01*
X143836481Y-95312518D01*
X143930077Y-95324201D01*
X144000110Y-95336211D01*
X144047811Y-95337051D01*
X144088546Y-95325833D01*
X144114939Y-95313500D01*
X144175404Y-95288640D01*
X144232145Y-95281653D01*
X144298099Y-95292865D01*
X144379569Y-95320103D01*
X144463754Y-95345679D01*
X144537150Y-95351955D01*
X144584782Y-95347670D01*
X144649434Y-95342992D01*
X144706372Y-95351722D01*
X144774049Y-95377193D01*
X144791457Y-95385029D01*
X144903530Y-95424001D01*
X145016063Y-95435616D01*
X145079065Y-95437609D01*
X145125336Y-95447399D01*
X145169301Y-95470695D01*
X145225386Y-95513212D01*
X145238118Y-95523539D01*
X145315019Y-95579454D01*
X145375205Y-95607087D01*
X145406319Y-95611462D01*
X145484012Y-95629319D01*
X145570334Y-95680020D01*
X145661802Y-95759254D01*
X145754930Y-95862714D01*
X145846234Y-95986092D01*
X145932228Y-96125077D01*
X146009428Y-96275362D01*
X146074347Y-96432638D01*
X146077400Y-96441147D01*
X146087176Y-96452068D01*
X146102116Y-96437277D01*
X146124671Y-96392948D01*
X146155907Y-96318702D01*
X146224456Y-96170234D01*
X146305482Y-96030295D01*
X146395014Y-95903330D01*
X146489079Y-95793784D01*
X146583705Y-95706102D01*
X146674919Y-95644729D01*
X146758749Y-95614109D01*
X146787972Y-95611462D01*
X146849473Y-95603002D01*
X146899747Y-95571611D01*
X146920691Y-95551102D01*
X146995734Y-95485608D01*
X147074432Y-95449244D01*
X147171232Y-95435966D01*
X147196915Y-95435543D01*
X147286523Y-95428663D01*
X147355463Y-95405559D01*
X147378616Y-95392372D01*
X147427363Y-95367552D01*
X147482092Y-95354920D01*
X147557267Y-95351599D01*
X147581879Y-95351903D01*
X147713348Y-95343760D01*
X147812179Y-95316920D01*
X147906741Y-95287171D01*
X147983937Y-95282573D01*
X148056269Y-95303079D01*
X148082305Y-95315938D01*
X148139555Y-95339444D01*
X148185964Y-95338139D01*
X148199231Y-95333719D01*
X148280990Y-95315420D01*
X148375797Y-95313598D01*
X148466918Y-95327229D01*
X148536093Y-95354334D01*
X148628064Y-95389826D01*
X148701926Y-95396539D01*
X148788196Y-95405948D01*
X148860637Y-95438299D01*
X148871449Y-95445385D01*
X148938740Y-95480086D01*
X149015094Y-95493485D01*
X149045266Y-95494231D01*
X149166905Y-95503826D01*
X149266142Y-95535200D01*
X149354543Y-95591617D01*
X149425445Y-95635884D01*
X149496287Y-95650496D01*
X149502278Y-95650569D01*
X149598500Y-95667342D01*
X149687621Y-95712550D01*
X149749998Y-95772545D01*
X149775740Y-95831988D01*
X149787812Y-95910428D01*
X149785149Y-95989875D01*
X149766682Y-96052336D01*
X149766592Y-96052498D01*
X149758612Y-96089638D01*
X149774915Y-96139669D01*
X149783837Y-96157149D01*
X149816506Y-96253114D01*
X149811330Y-96351145D01*
X149777752Y-96437740D01*
X149744170Y-96531384D01*
X149740294Y-96610412D01*
X149732555Y-96698594D01*
X149702997Y-96786947D01*
X149657796Y-96859380D01*
X149636736Y-96880277D01*
X149614056Y-96921852D01*
X149606000Y-96992927D01*
X149606000Y-96993248D01*
X149593920Y-97086709D01*
X149561301Y-97170897D01*
X149545525Y-97191473D01*
X149545525Y-96305077D01*
X149448763Y-96311848D01*
X149388716Y-96313364D01*
X149359133Y-96305811D01*
X149352000Y-96289881D01*
X149362372Y-96233913D01*
X149389805Y-96159138D01*
X149428778Y-96078640D01*
X149469379Y-96011786D01*
X149529724Y-95924077D01*
X149294324Y-95924077D01*
X149203616Y-95923022D01*
X149129127Y-95920147D01*
X149078392Y-95915887D01*
X149058945Y-95910676D01*
X149058923Y-95910492D01*
X149071215Y-95888780D01*
X149101540Y-95852580D01*
X149109102Y-95844532D01*
X149159281Y-95792157D01*
X149091033Y-95779354D01*
X149027046Y-95775813D01*
X148939954Y-95781852D01*
X148844024Y-95795622D01*
X148753520Y-95815279D01*
X148708529Y-95828860D01*
X148653403Y-95837321D01*
X148623219Y-95819730D01*
X148619938Y-95781633D01*
X148645516Y-95728580D01*
X148664512Y-95704126D01*
X148680839Y-95681932D01*
X148671807Y-95675670D01*
X148631222Y-95681729D01*
X148627350Y-95682462D01*
X148571616Y-95695320D01*
X148497743Y-95715200D01*
X148443462Y-95731199D01*
X148364335Y-95754337D01*
X148314199Y-95764713D01*
X148285206Y-95762593D01*
X148269507Y-95748246D01*
X148264464Y-95737295D01*
X148269865Y-95701994D01*
X148302765Y-95654651D01*
X148309039Y-95647880D01*
X148365308Y-95588940D01*
X148306693Y-95603178D01*
X148126211Y-95662241D01*
X148006310Y-95719960D01*
X147950764Y-95747819D01*
X147918627Y-95754451D01*
X147903048Y-95743874D01*
X147887881Y-95689820D01*
X147906842Y-95629716D01*
X147917715Y-95600249D01*
X147914032Y-95591923D01*
X147885353Y-95602952D01*
X147835179Y-95632044D01*
X147772812Y-95673203D01*
X147707553Y-95720436D01*
X147674307Y-95746420D01*
X147588999Y-95815273D01*
X147550897Y-95768220D01*
X147526457Y-95723914D01*
X147522030Y-95685852D01*
X147525252Y-95660036D01*
X147514176Y-95654540D01*
X147485420Y-95671266D01*
X147435601Y-95712113D01*
X147369348Y-95771630D01*
X147306817Y-95828084D01*
X147266116Y-95861152D01*
X147240688Y-95874303D01*
X147223977Y-95871007D01*
X147210215Y-95855819D01*
X147188497Y-95806865D01*
X147182461Y-95768920D01*
X147179534Y-95750342D01*
X147168658Y-95747185D01*
X147145519Y-95762573D01*
X147105804Y-95799626D01*
X147045200Y-95861468D01*
X147023725Y-95883834D01*
X146956038Y-95953776D01*
X146909689Y-95998767D01*
X146879402Y-96022466D01*
X146859897Y-96028531D01*
X146845896Y-96020622D01*
X146838880Y-96011984D01*
X146817316Y-95971482D01*
X146812000Y-95948022D01*
X146803554Y-95927086D01*
X146777741Y-95938137D01*
X146733855Y-95981755D01*
X146671188Y-96058523D01*
X146660765Y-96072094D01*
X146545235Y-96240802D01*
X146454881Y-96409509D01*
X146390849Y-96574021D01*
X146354283Y-96730148D01*
X146346327Y-96873696D01*
X146368126Y-97000475D01*
X146391505Y-97058191D01*
X146438202Y-97130672D01*
X146502587Y-97205648D01*
X146572137Y-97269825D01*
X146623909Y-97304896D01*
X146659124Y-97320635D01*
X146687580Y-97320500D01*
X146722997Y-97301398D01*
X146760678Y-97274036D01*
X147029518Y-97081125D01*
X147288818Y-96912710D01*
X147551073Y-96761015D01*
X147759616Y-96652343D01*
X147862903Y-96602448D01*
X147978783Y-96549264D01*
X148101936Y-96494940D01*
X148227042Y-96441626D01*
X148348781Y-96391473D01*
X148461835Y-96346630D01*
X148560884Y-96309248D01*
X148640607Y-96281476D01*
X148695687Y-96265465D01*
X148720802Y-96263365D01*
X148721203Y-96263690D01*
X148707857Y-96275056D01*
X148665988Y-96300810D01*
X148601762Y-96337356D01*
X148521347Y-96381098D01*
X148504218Y-96390206D01*
X148283479Y-96510893D01*
X148060893Y-96639577D01*
X147843978Y-96771565D01*
X147640253Y-96902160D01*
X147457236Y-97026668D01*
X147302444Y-97140394D01*
X147300462Y-97141928D01*
X147193521Y-97227335D01*
X147094917Y-97311043D01*
X147009028Y-97388889D01*
X146940234Y-97456707D01*
X146892911Y-97510336D01*
X146871438Y-97545611D01*
X146870616Y-97550703D01*
X146881709Y-97597023D01*
X146910775Y-97662722D01*
X146951491Y-97736573D01*
X146997537Y-97807349D01*
X147042591Y-97863821D01*
X147052752Y-97874190D01*
X147176324Y-97969768D01*
X147330667Y-98050658D01*
X147509572Y-98114807D01*
X147706830Y-98160159D01*
X147916235Y-98184661D01*
X148001597Y-98188156D01*
X148126347Y-98190539D01*
X148074866Y-98150044D01*
X148036527Y-98116526D01*
X148020527Y-98090886D01*
X148030031Y-98071152D01*
X148068202Y-98055351D01*
X148138201Y-98041509D01*
X148243193Y-98027653D01*
X148277385Y-98023718D01*
X148355253Y-98012823D01*
X148431051Y-97998936D01*
X148460840Y-97992109D01*
X148536834Y-97972642D01*
X148475494Y-97935339D01*
X148435319Y-97907173D01*
X148414827Y-97885504D01*
X148414154Y-97882851D01*
X148431428Y-97870240D01*
X148476698Y-97851817D01*
X148539668Y-97831720D01*
X148626447Y-97803579D01*
X148716934Y-97769197D01*
X148769245Y-97746349D01*
X148873308Y-97696923D01*
X148804923Y-97678432D01*
X148748992Y-97660103D01*
X148725672Y-97641490D01*
X148735963Y-97618827D01*
X148780861Y-97588348D01*
X148836680Y-97558686D01*
X148919732Y-97513591D01*
X149004740Y-97462769D01*
X149068630Y-97420445D01*
X149120029Y-97382324D01*
X149142226Y-97361084D01*
X149138544Y-97351945D01*
X149117476Y-97350118D01*
X149057475Y-97344841D01*
X149008238Y-97332074D01*
X148982206Y-97315413D01*
X148980770Y-97310623D01*
X148995918Y-97291750D01*
X149034073Y-97262609D01*
X149054039Y-97249674D01*
X149107555Y-97212217D01*
X149173758Y-97159889D01*
X149230092Y-97111312D01*
X149332876Y-97018231D01*
X149269169Y-97017932D01*
X149211261Y-97014181D01*
X149183143Y-97001062D01*
X149184984Y-96974753D01*
X149216952Y-96931432D01*
X149275678Y-96870748D01*
X149335406Y-96810428D01*
X149388048Y-96754337D01*
X149424180Y-96712591D01*
X149429504Y-96705616D01*
X149464943Y-96656770D01*
X149384048Y-96662267D01*
X149312328Y-96662955D01*
X149274300Y-96651408D01*
X149269664Y-96625289D01*
X149298116Y-96582260D01*
X149359357Y-96519985D01*
X149364988Y-96514729D01*
X149425148Y-96456337D01*
X149476884Y-96401695D01*
X149510928Y-96360703D01*
X149515481Y-96353923D01*
X149545525Y-96305077D01*
X149545525Y-97191473D01*
X149513579Y-97233139D01*
X149498006Y-97245069D01*
X149459943Y-97291778D01*
X149441948Y-97351896D01*
X149408494Y-97454895D01*
X149340865Y-97550527D01*
X149261031Y-97623923D01*
X149181551Y-97706239D01*
X149129251Y-97791731D01*
X149064850Y-97889364D01*
X148975813Y-97956800D01*
X148896947Y-97986177D01*
X148843205Y-98018310D01*
X148803351Y-98076389D01*
X148738461Y-98160783D01*
X148640588Y-98224325D01*
X148567640Y-98251930D01*
X148496434Y-98273642D01*
X148645794Y-98372229D01*
X148750183Y-98449310D01*
X148861044Y-98545027D01*
X148969611Y-98650608D01*
X149067119Y-98757279D01*
X149144802Y-98856268D01*
X149173754Y-98900617D01*
X149264321Y-99082783D01*
X149332626Y-99288825D01*
X149379668Y-99522345D01*
X149402120Y-99724308D01*
X149411319Y-99810049D01*
X149423975Y-99886583D01*
X149437853Y-99941315D01*
X149442824Y-99953468D01*
X149472131Y-99992369D01*
X149522548Y-100042261D01*
X149580488Y-100090237D01*
X149711524Y-100208129D01*
X149835927Y-100356230D01*
X149947856Y-100525679D01*
X150041473Y-100707619D01*
X150110938Y-100893187D01*
X150111964Y-100896616D01*
X150163906Y-101137179D01*
X150178527Y-101379881D01*
X150178527Y-101379881D01*
G36*
X154499198Y-104390804D02*
X154492781Y-104512465D01*
X154476527Y-104614427D01*
X154472851Y-104628462D01*
X154406840Y-104798332D01*
X154309968Y-104958748D01*
X154188737Y-105101222D01*
X154049654Y-105217264D01*
X153995418Y-105251542D01*
X153844086Y-105319639D01*
X153773080Y-105337830D01*
X153773080Y-104310765D01*
X153767487Y-104285056D01*
X153741280Y-104228680D01*
X153698155Y-104169185D01*
X153680587Y-104150562D01*
X153630631Y-104109007D01*
X153579566Y-104086800D01*
X153508968Y-104076116D01*
X153504313Y-104075721D01*
X153433763Y-104073247D01*
X153382641Y-104082987D01*
X153332127Y-104109156D01*
X153320091Y-104116963D01*
X153245681Y-104187215D01*
X153201317Y-104274408D01*
X153188336Y-104369862D01*
X153208072Y-104464899D01*
X153254617Y-104542553D01*
X153337577Y-104614606D01*
X153432544Y-104650955D01*
X153534517Y-104650319D01*
X153598963Y-104630829D01*
X153678760Y-104577769D01*
X153737856Y-104499601D01*
X153771036Y-104407031D01*
X153773080Y-104310765D01*
X153773080Y-105337830D01*
X153673720Y-105363286D01*
X153495626Y-105381336D01*
X153321109Y-105372639D01*
X153162000Y-105336227D01*
X153010681Y-105274087D01*
X152883143Y-105196665D01*
X152764580Y-105094850D01*
X152756065Y-105086405D01*
X152631685Y-104935533D01*
X152540268Y-104767275D01*
X152482501Y-104586278D01*
X152459072Y-104397185D01*
X152470667Y-104204640D01*
X152517974Y-104013287D01*
X152576767Y-103874407D01*
X152650697Y-103758785D01*
X152751726Y-103643954D01*
X152869105Y-103540427D01*
X152992086Y-103458714D01*
X153013380Y-103447441D01*
X153081462Y-103411060D01*
X153119970Y-103384436D01*
X153135252Y-103361939D01*
X153134296Y-103340206D01*
X153133177Y-103316779D01*
X153132087Y-103256225D01*
X153131032Y-103160491D01*
X153130018Y-103031529D01*
X153129051Y-102871286D01*
X153128136Y-102681712D01*
X153127280Y-102464756D01*
X153126489Y-102222367D01*
X153125768Y-101956494D01*
X153125123Y-101669087D01*
X153124560Y-101362094D01*
X153124086Y-101037466D01*
X153123705Y-100697150D01*
X153123425Y-100343096D01*
X153123250Y-99977253D01*
X153123190Y-99675231D01*
X153122923Y-96050616D01*
X150978577Y-94771077D01*
X150711654Y-94611641D01*
X150453223Y-94456959D01*
X150205362Y-94308292D01*
X149970147Y-94166899D01*
X149749657Y-94034038D01*
X149545969Y-93910970D01*
X149361160Y-93798954D01*
X149197307Y-93699248D01*
X149056488Y-93613113D01*
X148940780Y-93541808D01*
X148852260Y-93486591D01*
X148793006Y-93448723D01*
X148765096Y-93429462D01*
X148764268Y-93428752D01*
X148695398Y-93342266D01*
X148657534Y-93239600D01*
X148652481Y-93130402D01*
X148682043Y-93024324D01*
X148686836Y-93014526D01*
X148754752Y-92916941D01*
X148842252Y-92852863D01*
X148950164Y-92821876D01*
X149069509Y-92822382D01*
X149080918Y-92823482D01*
X149091506Y-92824597D01*
X149102801Y-92826617D01*
X149116333Y-92830432D01*
X149133633Y-92836931D01*
X149156229Y-92847006D01*
X149185652Y-92861547D01*
X149223430Y-92881443D01*
X149271095Y-92907585D01*
X149330174Y-92940863D01*
X149402199Y-92982168D01*
X149488699Y-93032389D01*
X149591203Y-93092416D01*
X149711241Y-93163140D01*
X149850342Y-93245451D01*
X150010037Y-93340239D01*
X150191855Y-93448395D01*
X150397326Y-93570808D01*
X150627980Y-93708369D01*
X150885345Y-93861967D01*
X151170952Y-94032494D01*
X151486331Y-94220839D01*
X151833010Y-94427892D01*
X152009231Y-94533138D01*
X153836077Y-95624178D01*
X153840628Y-99508562D01*
X153845179Y-103392947D01*
X153967382Y-103456919D01*
X154122297Y-103559369D01*
X154258163Y-103692309D01*
X154370029Y-103849783D01*
X154452945Y-104025838D01*
X154462111Y-104052077D01*
X154483593Y-104146164D01*
X154496045Y-104263888D01*
X154499198Y-104390804D01*
X154499198Y-104390804D01*
X154499198Y-104390804D01*
G37*
X154499198Y-104390804D02*
X154492781Y-104512465D01*
X154476527Y-104614427D01*
X154472851Y-104628462D01*
X154406840Y-104798332D01*
X154309968Y-104958748D01*
X154188737Y-105101222D01*
X154049654Y-105217264D01*
X153995418Y-105251542D01*
X153844086Y-105319639D01*
X153773080Y-105337830D01*
X153773080Y-104310765D01*
X153767487Y-104285056D01*
X153741280Y-104228680D01*
X153698155Y-104169185D01*
X153680587Y-104150562D01*
X153630631Y-104109007D01*
X153579566Y-104086800D01*
X153508968Y-104076116D01*
X153504313Y-104075721D01*
X153433763Y-104073247D01*
X153382641Y-104082987D01*
X153332127Y-104109156D01*
X153320091Y-104116963D01*
X153245681Y-104187215D01*
X153201317Y-104274408D01*
X153188336Y-104369862D01*
X153208072Y-104464899D01*
X153254617Y-104542553D01*
X153337577Y-104614606D01*
X153432544Y-104650955D01*
X153534517Y-104650319D01*
X153598963Y-104630829D01*
X153678760Y-104577769D01*
X153737856Y-104499601D01*
X153771036Y-104407031D01*
X153773080Y-104310765D01*
X153773080Y-105337830D01*
X153673720Y-105363286D01*
X153495626Y-105381336D01*
X153321109Y-105372639D01*
X153162000Y-105336227D01*
X153010681Y-105274087D01*
X152883143Y-105196665D01*
X152764580Y-105094850D01*
X152756065Y-105086405D01*
X152631685Y-104935533D01*
X152540268Y-104767275D01*
X152482501Y-104586278D01*
X152459072Y-104397185D01*
X152470667Y-104204640D01*
X152517974Y-104013287D01*
X152576767Y-103874407D01*
X152650697Y-103758785D01*
X152751726Y-103643954D01*
X152869105Y-103540427D01*
X152992086Y-103458714D01*
X153013380Y-103447441D01*
X153081462Y-103411060D01*
X153119970Y-103384436D01*
X153135252Y-103361939D01*
X153134296Y-103340206D01*
X153133177Y-103316779D01*
X153132087Y-103256225D01*
X153131032Y-103160491D01*
X153130018Y-103031529D01*
X153129051Y-102871286D01*
X153128136Y-102681712D01*
X153127280Y-102464756D01*
X153126489Y-102222367D01*
X153125768Y-101956494D01*
X153125123Y-101669087D01*
X153124560Y-101362094D01*
X153124086Y-101037466D01*
X153123705Y-100697150D01*
X153123425Y-100343096D01*
X153123250Y-99977253D01*
X153123190Y-99675231D01*
X153122923Y-96050616D01*
X150978577Y-94771077D01*
X150711654Y-94611641D01*
X150453223Y-94456959D01*
X150205362Y-94308292D01*
X149970147Y-94166899D01*
X149749657Y-94034038D01*
X149545969Y-93910970D01*
X149361160Y-93798954D01*
X149197307Y-93699248D01*
X149056488Y-93613113D01*
X148940780Y-93541808D01*
X148852260Y-93486591D01*
X148793006Y-93448723D01*
X148765096Y-93429462D01*
X148764268Y-93428752D01*
X148695398Y-93342266D01*
X148657534Y-93239600D01*
X148652481Y-93130402D01*
X148682043Y-93024324D01*
X148686836Y-93014526D01*
X148754752Y-92916941D01*
X148842252Y-92852863D01*
X148950164Y-92821876D01*
X149069509Y-92822382D01*
X149080918Y-92823482D01*
X149091506Y-92824597D01*
X149102801Y-92826617D01*
X149116333Y-92830432D01*
X149133633Y-92836931D01*
X149156229Y-92847006D01*
X149185652Y-92861547D01*
X149223430Y-92881443D01*
X149271095Y-92907585D01*
X149330174Y-92940863D01*
X149402199Y-92982168D01*
X149488699Y-93032389D01*
X149591203Y-93092416D01*
X149711241Y-93163140D01*
X149850342Y-93245451D01*
X150010037Y-93340239D01*
X150191855Y-93448395D01*
X150397326Y-93570808D01*
X150627980Y-93708369D01*
X150885345Y-93861967D01*
X151170952Y-94032494D01*
X151486331Y-94220839D01*
X151833010Y-94427892D01*
X152009231Y-94533138D01*
X153836077Y-95624178D01*
X153840628Y-99508562D01*
X153845179Y-103392947D01*
X153967382Y-103456919D01*
X154122297Y-103559369D01*
X154258163Y-103692309D01*
X154370029Y-103849783D01*
X154452945Y-104025838D01*
X154462111Y-104052077D01*
X154483593Y-104146164D01*
X154496045Y-104263888D01*
X154499198Y-104390804D01*
X154499198Y-104390804D01*
G36*
X147122208Y-91382745D02*
X147114662Y-91567221D01*
X147074445Y-91747968D01*
X147001553Y-91919971D01*
X146895979Y-92078216D01*
X146827285Y-92154282D01*
X146674559Y-92280783D01*
X146505781Y-92373484D01*
X146394847Y-92409390D01*
X146394847Y-91402615D01*
X146365826Y-91308158D01*
X146309986Y-91230939D01*
X146234893Y-91174745D01*
X146148113Y-91143358D01*
X146057210Y-91140565D01*
X145969750Y-91170150D01*
X145952109Y-91181116D01*
X145871921Y-91248610D01*
X145825707Y-91322331D01*
X145808445Y-91410963D01*
X145808024Y-91430231D01*
X145825375Y-91529992D01*
X145872766Y-91613177D01*
X145943199Y-91675675D01*
X146029679Y-91713376D01*
X146125209Y-91722171D01*
X146222794Y-91697950D01*
X146245203Y-91687058D01*
X146314230Y-91630674D01*
X146366158Y-91551286D01*
X146393783Y-91462584D01*
X146394847Y-91402615D01*
X146394847Y-92409390D01*
X146325348Y-92431886D01*
X146137654Y-92455488D01*
X145947097Y-92443791D01*
X145758073Y-92396293D01*
X145574978Y-92312497D01*
X145552433Y-92299268D01*
X145440762Y-92232024D01*
X145379035Y-92279054D01*
X145352485Y-92296537D01*
X145295122Y-92332302D01*
X145209725Y-92384668D01*
X145099075Y-92451958D01*
X144965953Y-92532492D01*
X144813141Y-92624591D01*
X144643418Y-92726576D01*
X144459565Y-92836769D01*
X144264363Y-92953490D01*
X144066846Y-93071333D01*
X143868583Y-93189515D01*
X143641286Y-93325039D01*
X143389474Y-93475210D01*
X143117662Y-93637335D01*
X142830367Y-93808718D01*
X142532105Y-93986664D01*
X142227394Y-94168480D01*
X141920748Y-94351469D01*
X141616685Y-94532939D01*
X141319721Y-94710194D01*
X141034373Y-94880540D01*
X140945830Y-94933403D01*
X139075276Y-96050223D01*
X139070138Y-98181867D01*
X139065000Y-100313512D01*
X139010259Y-100385277D01*
X138924899Y-100467783D01*
X138823876Y-100516495D01*
X138713379Y-100530017D01*
X138599594Y-100506955D01*
X138555749Y-100487787D01*
X138470829Y-100431672D01*
X138412055Y-100359368D01*
X138409210Y-100354486D01*
X138361616Y-100271385D01*
X138361616Y-97949104D01*
X138361616Y-95626822D01*
X141674250Y-93648884D01*
X142005775Y-93451026D01*
X142328725Y-93258463D01*
X142641469Y-93072161D01*
X142942377Y-92893085D01*
X143229816Y-92722200D01*
X143502158Y-92560471D01*
X143757769Y-92408864D01*
X143995020Y-92268342D01*
X144212279Y-92139872D01*
X144407916Y-92024417D01*
X144580300Y-91922944D01*
X144727799Y-91836416D01*
X144848782Y-91765800D01*
X144941620Y-91712060D01*
X145004680Y-91676161D01*
X145036332Y-91659067D01*
X145039475Y-91657747D01*
X145066444Y-91649500D01*
X145081344Y-91635648D01*
X145086609Y-91607061D01*
X145084675Y-91554610D01*
X145080695Y-91503197D01*
X145084197Y-91309063D01*
X145124699Y-91120220D01*
X145200181Y-90942614D01*
X145308620Y-90782188D01*
X145336846Y-90749628D01*
X145482192Y-90616408D01*
X145644206Y-90515766D01*
X145818205Y-90447833D01*
X145999503Y-90412742D01*
X146183418Y-90410623D01*
X146365265Y-90441608D01*
X146540359Y-90505829D01*
X146704018Y-90603418D01*
X146825789Y-90707821D01*
X146948874Y-90857076D01*
X147039309Y-91022658D01*
X147097089Y-91199552D01*
X147122208Y-91382745D01*
X147122208Y-91382745D01*
X147122208Y-91382745D01*
G37*
X147122208Y-91382745D02*
X147114662Y-91567221D01*
X147074445Y-91747968D01*
X147001553Y-91919971D01*
X146895979Y-92078216D01*
X146827285Y-92154282D01*
X146674559Y-92280783D01*
X146505781Y-92373484D01*
X146394847Y-92409390D01*
X146394847Y-91402615D01*
X146365826Y-91308158D01*
X146309986Y-91230939D01*
X146234893Y-91174745D01*
X146148113Y-91143358D01*
X146057210Y-91140565D01*
X145969750Y-91170150D01*
X145952109Y-91181116D01*
X145871921Y-91248610D01*
X145825707Y-91322331D01*
X145808445Y-91410963D01*
X145808024Y-91430231D01*
X145825375Y-91529992D01*
X145872766Y-91613177D01*
X145943199Y-91675675D01*
X146029679Y-91713376D01*
X146125209Y-91722171D01*
X146222794Y-91697950D01*
X146245203Y-91687058D01*
X146314230Y-91630674D01*
X146366158Y-91551286D01*
X146393783Y-91462584D01*
X146394847Y-91402615D01*
X146394847Y-92409390D01*
X146325348Y-92431886D01*
X146137654Y-92455488D01*
X145947097Y-92443791D01*
X145758073Y-92396293D01*
X145574978Y-92312497D01*
X145552433Y-92299268D01*
X145440762Y-92232024D01*
X145379035Y-92279054D01*
X145352485Y-92296537D01*
X145295122Y-92332302D01*
X145209725Y-92384668D01*
X145099075Y-92451958D01*
X144965953Y-92532492D01*
X144813141Y-92624591D01*
X144643418Y-92726576D01*
X144459565Y-92836769D01*
X144264363Y-92953490D01*
X144066846Y-93071333D01*
X143868583Y-93189515D01*
X143641286Y-93325039D01*
X143389474Y-93475210D01*
X143117662Y-93637335D01*
X142830367Y-93808718D01*
X142532105Y-93986664D01*
X142227394Y-94168480D01*
X141920748Y-94351469D01*
X141616685Y-94532939D01*
X141319721Y-94710194D01*
X141034373Y-94880540D01*
X140945830Y-94933403D01*
X139075276Y-96050223D01*
X139070138Y-98181867D01*
X139065000Y-100313512D01*
X139010259Y-100385277D01*
X138924899Y-100467783D01*
X138823876Y-100516495D01*
X138713379Y-100530017D01*
X138599594Y-100506955D01*
X138555749Y-100487787D01*
X138470829Y-100431672D01*
X138412055Y-100359368D01*
X138409210Y-100354486D01*
X138361616Y-100271385D01*
X138361616Y-97949104D01*
X138361616Y-95626822D01*
X141674250Y-93648884D01*
X142005775Y-93451026D01*
X142328725Y-93258463D01*
X142641469Y-93072161D01*
X142942377Y-92893085D01*
X143229816Y-92722200D01*
X143502158Y-92560471D01*
X143757769Y-92408864D01*
X143995020Y-92268342D01*
X144212279Y-92139872D01*
X144407916Y-92024417D01*
X144580300Y-91922944D01*
X144727799Y-91836416D01*
X144848782Y-91765800D01*
X144941620Y-91712060D01*
X145004680Y-91676161D01*
X145036332Y-91659067D01*
X145039475Y-91657747D01*
X145066444Y-91649500D01*
X145081344Y-91635648D01*
X145086609Y-91607061D01*
X145084675Y-91554610D01*
X145080695Y-91503197D01*
X145084197Y-91309063D01*
X145124699Y-91120220D01*
X145200181Y-90942614D01*
X145308620Y-90782188D01*
X145336846Y-90749628D01*
X145482192Y-90616408D01*
X145644206Y-90515766D01*
X145818205Y-90447833D01*
X145999503Y-90412742D01*
X146183418Y-90410623D01*
X146365265Y-90441608D01*
X146540359Y-90505829D01*
X146704018Y-90603418D01*
X146825789Y-90707821D01*
X146948874Y-90857076D01*
X147039309Y-91022658D01*
X147097089Y-91199552D01*
X147122208Y-91382745D01*
X147122208Y-91382745D01*
X100671334Y-84177143D02*
X100623715Y-84224762D01*
X100480858Y-84272381D01*
X100385620Y-84272381D01*
X100242762Y-84224762D01*
X100147524Y-84129524D01*
X100099905Y-84034286D01*
X100052286Y-83843810D01*
X100052286Y-83700952D01*
X100099905Y-83510476D01*
X100147524Y-83415238D01*
X100242762Y-83320000D01*
X100385620Y-83272381D01*
X100480858Y-83272381D01*
X100623715Y-83320000D01*
X100671334Y-83367619D01*
X101623715Y-84272381D02*
X101052286Y-84272381D01*
X101338000Y-84272381D02*
X101338000Y-83272381D01*
X101242762Y-83415238D01*
X101147524Y-83510476D01*
X101052286Y-83558095D01*
X106640334Y-85828143D02*
X106592715Y-85875762D01*
X106449858Y-85923381D01*
X106354620Y-85923381D01*
X106211762Y-85875762D01*
X106116524Y-85780524D01*
X106068905Y-85685286D01*
X106021286Y-85494810D01*
X106021286Y-85351952D01*
X106068905Y-85161476D01*
X106116524Y-85066238D01*
X106211762Y-84971000D01*
X106354620Y-84923381D01*
X106449858Y-84923381D01*
X106592715Y-84971000D01*
X106640334Y-85018619D01*
X107021286Y-85018619D02*
X107068905Y-84971000D01*
X107164143Y-84923381D01*
X107402239Y-84923381D01*
X107497477Y-84971000D01*
X107545096Y-85018619D01*
X107592715Y-85113857D01*
X107592715Y-85209095D01*
X107545096Y-85351952D01*
X106973667Y-85923381D01*
X107592715Y-85923381D01*
X99782334Y-85574143D02*
X99734715Y-85621762D01*
X99591858Y-85669381D01*
X99496620Y-85669381D01*
X99353762Y-85621762D01*
X99258524Y-85526524D01*
X99210905Y-85431286D01*
X99163286Y-85240810D01*
X99163286Y-85097952D01*
X99210905Y-84907476D01*
X99258524Y-84812238D01*
X99353762Y-84717000D01*
X99496620Y-84669381D01*
X99591858Y-84669381D01*
X99734715Y-84717000D01*
X99782334Y-84764619D01*
X100115667Y-84669381D02*
X100734715Y-84669381D01*
X100401381Y-85050333D01*
X100544239Y-85050333D01*
X100639477Y-85097952D01*
X100687096Y-85145571D01*
X100734715Y-85240810D01*
X100734715Y-85478905D01*
X100687096Y-85574143D01*
X100639477Y-85621762D01*
X100544239Y-85669381D01*
X100258524Y-85669381D01*
X100163286Y-85621762D01*
X100115667Y-85574143D01*
X107616667Y-83145381D02*
X107616667Y-83859667D01*
X107569047Y-84002524D01*
X107473809Y-84097762D01*
X107330952Y-84145381D01*
X107235714Y-84145381D01*
X108616667Y-84145381D02*
X108045238Y-84145381D01*
X108330952Y-84145381D02*
X108330952Y-83145381D01*
X108235714Y-83288238D01*
X108140476Y-83383476D01*
X108045238Y-83431095D01*
X118065672Y-94492724D02*
X117560596Y-94997800D01*
X117425908Y-95065143D01*
X117291221Y-95065143D01*
X117156534Y-94997800D01*
X117089191Y-94930456D01*
X118301374Y-94863113D02*
X118368718Y-94863113D01*
X118469733Y-94896784D01*
X118638092Y-95065144D01*
X118671764Y-95166159D01*
X118671764Y-95233502D01*
X118638092Y-95334518D01*
X118570749Y-95401861D01*
X118436062Y-95469204D01*
X117627939Y-95469204D01*
X118065672Y-95906937D01*
X129230080Y-99797506D02*
X129226713Y-99726795D01*
X129171154Y-99671237D01*
X129081924Y-99649350D01*
X128977542Y-99679655D01*
X128891678Y-99728478D01*
X128738472Y-99844646D01*
X128637457Y-99945662D01*
X128521289Y-100098868D01*
X128472465Y-100184731D01*
X128442161Y-100289114D01*
X128464047Y-100378343D01*
X128501086Y-100415382D01*
X128590317Y-100437269D01*
X128642507Y-100422117D01*
X128878209Y-100186415D01*
X128804132Y-100112337D01*
X129411907Y-99911990D02*
X129652660Y-100152743D01*
X129253650Y-100292480D01*
X129309209Y-100348039D01*
X129312576Y-100418750D01*
X129297423Y-100470940D01*
X129248599Y-100556804D01*
X129080240Y-100725163D01*
X128994377Y-100773987D01*
X128942186Y-100789139D01*
X128871476Y-100785772D01*
X128760359Y-100674655D01*
X128756992Y-100603944D01*
X128772143Y-100551753D01*
X126850666Y-97418092D02*
X126847299Y-97347381D01*
X126791740Y-97291823D01*
X126702510Y-97269936D01*
X126598128Y-97300241D01*
X126512264Y-97349064D01*
X126359058Y-97465232D01*
X126258042Y-97566248D01*
X126141875Y-97719454D01*
X126093051Y-97805317D01*
X126062747Y-97909700D01*
X126084633Y-97998929D01*
X126121672Y-98035968D01*
X126210902Y-98057855D01*
X126263093Y-98042703D01*
X126498795Y-97807001D01*
X126424717Y-97732923D01*
X126983669Y-97618439D02*
X127035860Y-97603286D01*
X127106571Y-97606653D01*
X127199168Y-97699251D01*
X127202536Y-97769962D01*
X127187383Y-97822153D01*
X127138559Y-97908016D01*
X127071216Y-97975359D01*
X126951681Y-98057855D01*
X126325386Y-98239682D01*
X126566139Y-98480436D01*
X127751386Y-98184125D02*
X126508898Y-98759911D01*
X127362476Y-99276772D02*
X127569558Y-98810419D01*
X127140242Y-99054539D02*
X127847349Y-98347432D01*
X127995505Y-98495588D01*
X127998872Y-98566298D01*
X127983720Y-98618490D01*
X127934896Y-98704353D01*
X127833881Y-98805368D01*
X127748018Y-98854192D01*
X127695827Y-98869344D01*
X127625116Y-98865977D01*
X127476960Y-98717821D01*
X128199219Y-98699302D02*
X127751385Y-99665681D01*
X128458492Y-98958574D02*
X127492112Y-99406408D01*
X125100912Y-95668340D02*
X125097545Y-95597629D01*
X125041986Y-95542070D01*
X124952756Y-95520184D01*
X124848374Y-95550488D01*
X124762511Y-95599312D01*
X124609305Y-95715480D01*
X124508289Y-95816495D01*
X124392121Y-95969701D01*
X124343298Y-96055565D01*
X124312993Y-96159947D01*
X124334880Y-96249177D01*
X124371918Y-96286216D01*
X124461149Y-96308103D01*
X124513340Y-96292950D01*
X124749042Y-96057248D01*
X124674964Y-95983170D01*
X124816386Y-96730683D02*
X124594152Y-96508450D01*
X124705269Y-96619566D02*
X125412376Y-95912460D01*
X125274322Y-95976436D01*
X125169939Y-96006740D01*
X125099229Y-96003373D01*
X126001632Y-96434372D02*
X124759144Y-97010159D01*
X126042038Y-96542121D02*
X126264271Y-96764355D01*
X125446048Y-97360345D02*
X126153154Y-96653238D01*
X126356868Y-96856952D02*
X125909034Y-97823332D01*
X126616141Y-97116225D02*
X125649762Y-97564059D01*
X122640686Y-94554983D02*
X123347793Y-93847876D01*
X122972353Y-94482590D01*
X123607065Y-94107149D01*
X122899959Y-94814256D01*
X123866337Y-94366421D02*
X123940415Y-94440499D01*
X123943783Y-94511210D01*
X123913478Y-94615592D01*
X123797311Y-94768799D01*
X123561608Y-95004502D01*
X123408402Y-95120669D01*
X123304019Y-95150973D01*
X123233308Y-95147606D01*
X123159231Y-95073528D01*
X123155863Y-95002817D01*
X123186168Y-94898435D01*
X123302336Y-94745229D01*
X123538038Y-94509526D01*
X123691244Y-94393358D01*
X123795627Y-94363054D01*
X123866337Y-94366421D01*
X123507733Y-95354687D02*
X123529619Y-95443917D01*
X123622217Y-95536515D01*
X123692928Y-95539882D01*
X123745119Y-95524729D01*
X123830982Y-95475906D01*
X123898325Y-95408562D01*
X123947149Y-95322699D01*
X123962302Y-95270508D01*
X123958935Y-95199797D01*
X123918529Y-95092047D01*
X123915162Y-95021336D01*
X123930314Y-94969145D01*
X123979138Y-94883282D01*
X124046481Y-94815939D01*
X124132344Y-94767115D01*
X124184535Y-94751963D01*
X124255246Y-94755330D01*
X124347843Y-94847927D01*
X124369730Y-94937157D01*
X123862970Y-95777267D02*
X124570077Y-95070161D01*
X120844635Y-92758931D02*
X121551742Y-92051824D01*
X121176302Y-92686538D01*
X121811014Y-92311097D01*
X121103908Y-93018204D01*
X121289102Y-93203398D02*
X121996208Y-92496291D01*
X121489449Y-93336402D02*
X121511335Y-93425632D01*
X121603933Y-93518230D01*
X121674644Y-93521597D01*
X121726835Y-93506444D01*
X121812698Y-93457621D01*
X121880041Y-93390277D01*
X121928865Y-93304414D01*
X121944018Y-93252223D01*
X121940651Y-93181512D01*
X121900245Y-93073762D01*
X121896878Y-93003051D01*
X121912029Y-92950860D01*
X121960854Y-92864997D01*
X122028197Y-92797654D01*
X122114060Y-92748829D01*
X122166251Y-92733678D01*
X122236962Y-92737045D01*
X122329559Y-92829642D01*
X122351446Y-92918872D01*
X122625871Y-93125954D02*
X122699949Y-93200031D01*
X122703316Y-93270742D01*
X122673011Y-93375125D01*
X122556844Y-93528331D01*
X122321142Y-93764034D01*
X122167935Y-93880201D01*
X122063553Y-93910505D01*
X121992842Y-93907138D01*
X121918764Y-93833060D01*
X121915397Y-93762350D01*
X121945701Y-93657967D01*
X122061869Y-93504761D01*
X122297572Y-93269059D01*
X122450778Y-93152891D01*
X122555160Y-93122586D01*
X122625871Y-93125954D01*
X119193372Y-91040325D02*
X119215259Y-91129555D01*
X119307857Y-91222153D01*
X119378567Y-91225520D01*
X119430758Y-91210368D01*
X119516621Y-91161544D01*
X119583965Y-91094201D01*
X119632788Y-91008337D01*
X119647941Y-90956146D01*
X119644574Y-90885435D01*
X119604168Y-90777685D01*
X119600801Y-90706975D01*
X119615953Y-90654783D01*
X119664777Y-90568921D01*
X119732121Y-90501577D01*
X119817983Y-90452753D01*
X119870175Y-90437601D01*
X119940885Y-90440968D01*
X120033482Y-90533565D01*
X120055370Y-90622796D01*
X119838187Y-91617796D02*
X119785996Y-91632949D01*
X119696765Y-91611062D01*
X119659726Y-91574023D01*
X119637840Y-91484793D01*
X119668144Y-91380410D01*
X119716968Y-91294547D01*
X119833136Y-91141341D01*
X119934152Y-91040325D01*
X120087358Y-90924158D01*
X120173221Y-90875334D01*
X120277603Y-90845030D01*
X120366833Y-90866916D01*
X120403872Y-90903955D01*
X120425759Y-90993185D01*
X120410607Y-91045376D01*
X119937518Y-91851815D02*
X120644625Y-91144708D01*
X120159752Y-92074048D02*
X120397138Y-91503312D01*
X120866859Y-91366942D02*
X120240564Y-91548769D01*
X117425100Y-89272054D02*
X117446986Y-89361284D01*
X117539584Y-89453881D01*
X117610295Y-89457249D01*
X117662485Y-89442096D01*
X117748349Y-89393272D01*
X117815692Y-89325929D01*
X117864516Y-89240066D01*
X117879668Y-89187875D01*
X117876302Y-89117163D01*
X117835896Y-89009414D01*
X117832528Y-88938703D01*
X117847680Y-88886512D01*
X117896505Y-88800649D01*
X117963848Y-88733306D01*
X118049711Y-88684481D01*
X118101902Y-88669329D01*
X118172613Y-88672697D01*
X118265210Y-88765294D01*
X118287097Y-88854524D01*
X117780337Y-89694634D02*
X118487444Y-88987527D01*
X118580041Y-89080125D01*
X118601928Y-89169355D01*
X118571623Y-89273737D01*
X118522800Y-89359601D01*
X118406632Y-89512807D01*
X118305616Y-89613822D01*
X118152410Y-89729990D01*
X118066547Y-89778814D01*
X117962164Y-89809118D01*
X117872935Y-89787232D01*
X117780337Y-89694634D01*
X118352757Y-89862993D02*
X118537952Y-90048188D01*
X118113687Y-90027985D02*
X118950430Y-89450514D01*
X118372960Y-90287258D01*
X115638308Y-87485262D02*
X115660195Y-87574492D01*
X115752793Y-87667090D01*
X115823503Y-87670457D01*
X115875694Y-87655305D01*
X115961557Y-87606481D01*
X116028901Y-87539137D01*
X116077724Y-87453274D01*
X116092877Y-87401083D01*
X116089510Y-87330372D01*
X116049104Y-87222622D01*
X116045737Y-87151912D01*
X116060889Y-87099720D01*
X116109713Y-87013858D01*
X116177057Y-86946514D01*
X116262919Y-86897690D01*
X116315111Y-86882538D01*
X116385821Y-86885905D01*
X116478418Y-86978502D01*
X116500306Y-87067733D01*
X116283123Y-88062733D02*
X116230932Y-88077886D01*
X116141701Y-88055999D01*
X116104662Y-88018960D01*
X116082776Y-87929730D01*
X116113080Y-87825347D01*
X116161904Y-87739484D01*
X116278072Y-87586278D01*
X116379088Y-87485262D01*
X116532294Y-87369095D01*
X116618157Y-87320271D01*
X116722539Y-87289966D01*
X116811769Y-87311853D01*
X116848808Y-87348892D01*
X116870695Y-87438122D01*
X116855543Y-87490313D01*
X116567649Y-88481946D02*
X116382454Y-88296751D01*
X117089561Y-87589645D01*
X114497173Y-84997255D02*
X114737926Y-85238009D01*
X114338916Y-85377746D01*
X114394475Y-85433305D01*
X114397842Y-85504016D01*
X114382689Y-85556206D01*
X114333865Y-85642070D01*
X114165506Y-85810429D01*
X114079643Y-85859253D01*
X114027452Y-85874405D01*
X113956742Y-85871038D01*
X113845625Y-85759921D01*
X113842257Y-85689210D01*
X113857409Y-85637019D01*
X114849043Y-85349126D02*
X114271572Y-86185869D01*
X115108316Y-85608399D01*
X115200913Y-85700996D02*
X115441666Y-85941749D01*
X115042656Y-86081486D01*
X115098215Y-86137045D01*
X115101582Y-86207756D01*
X115086429Y-86259947D01*
X115037605Y-86345811D01*
X114869247Y-86514169D01*
X114783383Y-86562993D01*
X114731192Y-86578145D01*
X114660482Y-86574778D01*
X114549365Y-86463661D01*
X114545998Y-86392951D01*
X114561150Y-86340759D01*
X112852645Y-83420072D02*
X112849278Y-83349361D01*
X112793719Y-83293802D01*
X112704490Y-83271916D01*
X112600107Y-83302220D01*
X112514244Y-83351044D01*
X112361038Y-83467212D01*
X112260022Y-83568227D01*
X112143854Y-83721433D01*
X112095031Y-83807297D01*
X112064726Y-83911679D01*
X112086613Y-84000909D01*
X112123652Y-84037948D01*
X112212882Y-84059835D01*
X112265073Y-84044682D01*
X112500775Y-83808980D01*
X112426697Y-83734902D01*
X112364404Y-84278701D02*
X113071511Y-83571594D01*
X112586638Y-84500935D01*
X113293745Y-83793828D01*
X112771832Y-84686129D02*
X113478939Y-83979022D01*
X113571537Y-84071620D01*
X113593423Y-84160849D01*
X113563119Y-84265232D01*
X113514295Y-84351095D01*
X113398127Y-84504301D01*
X113297112Y-84605317D01*
X113143906Y-84721485D01*
X113058042Y-84770308D01*
X112953660Y-84800613D01*
X112864430Y-84778726D01*
X112771832Y-84686129D01*
X139706472Y-116133524D02*
X139201396Y-116638600D01*
X139066708Y-116705943D01*
X138932021Y-116705943D01*
X138797334Y-116638600D01*
X138729991Y-116571256D01*
X139975846Y-116402898D02*
X140413579Y-116840631D01*
X139908502Y-116874302D01*
X140009518Y-116975318D01*
X140043190Y-117076333D01*
X140043190Y-117143676D01*
X140009518Y-117244692D01*
X139841159Y-117413051D01*
X139740144Y-117446722D01*
X139672800Y-117446722D01*
X139571785Y-117413051D01*
X139369754Y-117211020D01*
X139336082Y-117110004D01*
X139336082Y-117042661D01*
X150870880Y-121438306D02*
X150867513Y-121367595D01*
X150811954Y-121312037D01*
X150722724Y-121290150D01*
X150618342Y-121320455D01*
X150532478Y-121369278D01*
X150379272Y-121485446D01*
X150278257Y-121586462D01*
X150162089Y-121739668D01*
X150113265Y-121825531D01*
X150082961Y-121929914D01*
X150104847Y-122019143D01*
X150141886Y-122056182D01*
X150231117Y-122078069D01*
X150283307Y-122062917D01*
X150519009Y-121827215D01*
X150444932Y-121753137D01*
X151052707Y-121552790D02*
X151293460Y-121793543D01*
X150894450Y-121933280D01*
X150950009Y-121988839D01*
X150953376Y-122059550D01*
X150938223Y-122111740D01*
X150889399Y-122197604D01*
X150721040Y-122365963D01*
X150635177Y-122414787D01*
X150582986Y-122429939D01*
X150512276Y-122426572D01*
X150401159Y-122315455D01*
X150397792Y-122244744D01*
X150412943Y-122192553D01*
X149074829Y-119642255D02*
X149071462Y-119571544D01*
X149015903Y-119515986D01*
X148926673Y-119494099D01*
X148822291Y-119524404D01*
X148736427Y-119573227D01*
X148583221Y-119689395D01*
X148482206Y-119790411D01*
X148366038Y-119943617D01*
X148317214Y-120029480D01*
X148286910Y-120133863D01*
X148308796Y-120223092D01*
X148345835Y-120260131D01*
X148435066Y-120282018D01*
X148487256Y-120266866D01*
X148722958Y-120031164D01*
X148648881Y-119957086D01*
X149207832Y-119842602D02*
X149260023Y-119827449D01*
X149330734Y-119830816D01*
X149423331Y-119923414D01*
X149426699Y-119994125D01*
X149411546Y-120046316D01*
X149362722Y-120132179D01*
X149295379Y-120199522D01*
X149175844Y-120282018D01*
X148549549Y-120463845D01*
X148790303Y-120704599D01*
X147278777Y-117846204D02*
X147275410Y-117775493D01*
X147219851Y-117719935D01*
X147130621Y-117698048D01*
X147026239Y-117728353D01*
X146940375Y-117777176D01*
X146787169Y-117893344D01*
X146686154Y-117994360D01*
X146569986Y-118147566D01*
X146521162Y-118233429D01*
X146490858Y-118337812D01*
X146512744Y-118427041D01*
X146549783Y-118464080D01*
X146639014Y-118485967D01*
X146691204Y-118470815D01*
X146926906Y-118235113D01*
X146852829Y-118161035D01*
X146994251Y-118908548D02*
X146772017Y-118686314D01*
X146883134Y-118797431D02*
X147590240Y-118090324D01*
X147452186Y-118154300D01*
X147347804Y-118184605D01*
X147277093Y-118181238D01*
X144281486Y-116195783D02*
X144988593Y-115488676D01*
X144613153Y-116123390D01*
X145247865Y-115747949D01*
X144540759Y-116455056D01*
X145507137Y-116007221D02*
X145581215Y-116081299D01*
X145584583Y-116152010D01*
X145554278Y-116256392D01*
X145438111Y-116409599D01*
X145202408Y-116645302D01*
X145049202Y-116761469D01*
X144944819Y-116791773D01*
X144874108Y-116788406D01*
X144800031Y-116714328D01*
X144796663Y-116643617D01*
X144826968Y-116539235D01*
X144943136Y-116386029D01*
X145178838Y-116150326D01*
X145332044Y-116034158D01*
X145436427Y-116003854D01*
X145507137Y-116007221D01*
X145148533Y-116995487D02*
X145170419Y-117084717D01*
X145263017Y-117177315D01*
X145333728Y-117180682D01*
X145385919Y-117165529D01*
X145471782Y-117116706D01*
X145539125Y-117049362D01*
X145587949Y-116963499D01*
X145603102Y-116911308D01*
X145599735Y-116840597D01*
X145559329Y-116732847D01*
X145555962Y-116662136D01*
X145571114Y-116609945D01*
X145619938Y-116524082D01*
X145687281Y-116456739D01*
X145773144Y-116407915D01*
X145825335Y-116392763D01*
X145896046Y-116396130D01*
X145988643Y-116488727D01*
X146010530Y-116577957D01*
X145503770Y-117418067D02*
X146210877Y-116710961D01*
X142485435Y-114399731D02*
X143192542Y-113692624D01*
X142817102Y-114327338D01*
X143451814Y-113951897D01*
X142744708Y-114659004D01*
X142929902Y-114844198D02*
X143637008Y-114137091D01*
X143130249Y-114977202D02*
X143152135Y-115066432D01*
X143244733Y-115159030D01*
X143315444Y-115162397D01*
X143367635Y-115147244D01*
X143453498Y-115098421D01*
X143520841Y-115031077D01*
X143569665Y-114945214D01*
X143584818Y-114893023D01*
X143581451Y-114822312D01*
X143541045Y-114714562D01*
X143537678Y-114643851D01*
X143552829Y-114591660D01*
X143601654Y-114505797D01*
X143668997Y-114438454D01*
X143754860Y-114389629D01*
X143807051Y-114374478D01*
X143877762Y-114377845D01*
X143970359Y-114470442D01*
X143992246Y-114559672D01*
X144266671Y-114766754D02*
X144340749Y-114840831D01*
X144344116Y-114911542D01*
X144313811Y-115015925D01*
X144197644Y-115169131D01*
X143961942Y-115404834D01*
X143808735Y-115521001D01*
X143704353Y-115551305D01*
X143633642Y-115547938D01*
X143559564Y-115473860D01*
X143556197Y-115403150D01*
X143586501Y-115298767D01*
X143702669Y-115145561D01*
X143938372Y-114909859D01*
X144091578Y-114793691D01*
X144195960Y-114763386D01*
X144266671Y-114766754D01*
X140834172Y-112681125D02*
X140856059Y-112770355D01*
X140948657Y-112862953D01*
X141019367Y-112866320D01*
X141071558Y-112851168D01*
X141157421Y-112802344D01*
X141224765Y-112735001D01*
X141273588Y-112649137D01*
X141288741Y-112596946D01*
X141285374Y-112526235D01*
X141244968Y-112418485D01*
X141241601Y-112347775D01*
X141256753Y-112295583D01*
X141305577Y-112209721D01*
X141372921Y-112142377D01*
X141458783Y-112093553D01*
X141510975Y-112078401D01*
X141581685Y-112081768D01*
X141674282Y-112174365D01*
X141696170Y-112263596D01*
X141478987Y-113258596D02*
X141426796Y-113273749D01*
X141337565Y-113251862D01*
X141300526Y-113214823D01*
X141278640Y-113125593D01*
X141308944Y-113021210D01*
X141357768Y-112935347D01*
X141473936Y-112782141D01*
X141574952Y-112681125D01*
X141728158Y-112564958D01*
X141814021Y-112516134D01*
X141918403Y-112485830D01*
X142007633Y-112507716D01*
X142044672Y-112544755D01*
X142066559Y-112633985D01*
X142051407Y-112686176D01*
X141578318Y-113492615D02*
X142285425Y-112785508D01*
X141800552Y-113714848D02*
X142037938Y-113144112D01*
X142507659Y-113007742D02*
X141881364Y-113189569D01*
X139065900Y-110912854D02*
X139087786Y-111002084D01*
X139180384Y-111094681D01*
X139251095Y-111098049D01*
X139303285Y-111082896D01*
X139389149Y-111034072D01*
X139456492Y-110966729D01*
X139505316Y-110880866D01*
X139520468Y-110828675D01*
X139517102Y-110757963D01*
X139476696Y-110650214D01*
X139473328Y-110579503D01*
X139488480Y-110527312D01*
X139537305Y-110441449D01*
X139604648Y-110374106D01*
X139690511Y-110325281D01*
X139742702Y-110310129D01*
X139813413Y-110313497D01*
X139906010Y-110406094D01*
X139927897Y-110495324D01*
X139421137Y-111335434D02*
X140128244Y-110628327D01*
X140220841Y-110720925D01*
X140242728Y-110810155D01*
X140212423Y-110914537D01*
X140163600Y-111000401D01*
X140047432Y-111153607D01*
X139946416Y-111254622D01*
X139793210Y-111370790D01*
X139707347Y-111419614D01*
X139602964Y-111449918D01*
X139513735Y-111428032D01*
X139421137Y-111335434D01*
X139993557Y-111503793D02*
X140178752Y-111688988D01*
X139754487Y-111668785D02*
X140591230Y-111091314D01*
X140013760Y-111928058D01*
X137279108Y-109126062D02*
X137300995Y-109215292D01*
X137393593Y-109307890D01*
X137464303Y-109311257D01*
X137516494Y-109296105D01*
X137602357Y-109247281D01*
X137669701Y-109179937D01*
X137718524Y-109094074D01*
X137733677Y-109041883D01*
X137730310Y-108971172D01*
X137689904Y-108863422D01*
X137686537Y-108792712D01*
X137701689Y-108740520D01*
X137750513Y-108654658D01*
X137817857Y-108587314D01*
X137903719Y-108538490D01*
X137955911Y-108523338D01*
X138026621Y-108526705D01*
X138119218Y-108619302D01*
X138141106Y-108708533D01*
X137923923Y-109703533D02*
X137871732Y-109718686D01*
X137782501Y-109696799D01*
X137745462Y-109659760D01*
X137723576Y-109570530D01*
X137753880Y-109466147D01*
X137802704Y-109380284D01*
X137918872Y-109227078D01*
X138019888Y-109126062D01*
X138173094Y-109009895D01*
X138258957Y-108961071D01*
X138363339Y-108930766D01*
X138452569Y-108952653D01*
X138489608Y-108989692D01*
X138511495Y-109078922D01*
X138496343Y-109131113D01*
X138208449Y-110122746D02*
X138023254Y-109937551D01*
X138730361Y-109230445D01*
X136137973Y-106638055D02*
X136378726Y-106878809D01*
X135979716Y-107018546D01*
X136035275Y-107074105D01*
X136038642Y-107144816D01*
X136023489Y-107197006D01*
X135974665Y-107282870D01*
X135806306Y-107451229D01*
X135720443Y-107500053D01*
X135668252Y-107515205D01*
X135597542Y-107511838D01*
X135486425Y-107400721D01*
X135483057Y-107330010D01*
X135498209Y-107277819D01*
X136489843Y-106989926D02*
X135912372Y-107826669D01*
X136749116Y-107249199D01*
X136841713Y-107341796D02*
X137082466Y-107582549D01*
X136683456Y-107722286D01*
X136739015Y-107777845D01*
X136742382Y-107848556D01*
X136727229Y-107900747D01*
X136678405Y-107986611D01*
X136510047Y-108154969D01*
X136424183Y-108203793D01*
X136371992Y-108218945D01*
X136301282Y-108215578D01*
X136190165Y-108104461D01*
X136186798Y-108033751D01*
X136201950Y-107981559D01*
X134493445Y-105060872D02*
X134490078Y-104990161D01*
X134434519Y-104934602D01*
X134345290Y-104912716D01*
X134240907Y-104943020D01*
X134155044Y-104991844D01*
X134001838Y-105108012D01*
X133900822Y-105209027D01*
X133784654Y-105362233D01*
X133735831Y-105448097D01*
X133705526Y-105552479D01*
X133727413Y-105641709D01*
X133764452Y-105678748D01*
X133853682Y-105700635D01*
X133905873Y-105685482D01*
X134141575Y-105449780D01*
X134067497Y-105375702D01*
X134005204Y-105919501D02*
X134712311Y-105212394D01*
X134227438Y-106141735D01*
X134934545Y-105434628D01*
X134412632Y-106326929D02*
X135119739Y-105619822D01*
X135212337Y-105712420D01*
X135234223Y-105801649D01*
X135203919Y-105906032D01*
X135155095Y-105991895D01*
X135038927Y-106145101D01*
X134937912Y-106246117D01*
X134784706Y-106362285D01*
X134698842Y-106411108D01*
X134594460Y-106441413D01*
X134505230Y-106419526D01*
X134412632Y-106326929D01*
%LPC*%
D14*
X98044000Y-80010000D03*
X155956000Y-129032000D03*
D15*
X102679500Y-84074000D03*
X104584500Y-84074000D03*
D16*
X104099360Y-86614000D03*
X105196640Y-86614000D03*
X102656640Y-86614000D03*
X101559360Y-86614000D03*
D14*
X155956000Y-80010000D03*
D17*
X102870000Y-81280000D03*
D18*
X102870000Y-78740000D03*
X105410000Y-81280000D03*
X105410000Y-78740000D03*
X107950000Y-81280000D03*
X107950000Y-78740000D03*
X110490000Y-81280000D03*
X110490000Y-78740000D03*
X113030000Y-81280000D03*
X113030000Y-78740000D03*
X115570000Y-81280000D03*
X115570000Y-78740000D03*
X118110000Y-81280000D03*
X118110000Y-78740000D03*
X120650000Y-81280000D03*
X120650000Y-78740000D03*
X123190000Y-81280000D03*
X123190000Y-78740000D03*
X125730000Y-81280000D03*
X125730000Y-78740000D03*
X128270000Y-81280000D03*
X128270000Y-78740000D03*
X130810000Y-81280000D03*
X130810000Y-78740000D03*
X133350000Y-81280000D03*
X133350000Y-78740000D03*
X135890000Y-81280000D03*
X135890000Y-78740000D03*
X138430000Y-81280000D03*
X138430000Y-78740000D03*
X140970000Y-81280000D03*
X140970000Y-78740000D03*
X143510000Y-81280000D03*
X143510000Y-78740000D03*
X146050000Y-81280000D03*
X146050000Y-78740000D03*
X148590000Y-81280000D03*
X148590000Y-78740000D03*
X151130000Y-81280000D03*
X151130000Y-78740000D03*
D19*
X111627969Y-85237369D03*
X113424021Y-87033421D03*
X115220072Y-88829472D03*
X117016123Y-90625523D03*
X118812174Y-92421574D03*
X120608226Y-94217626D03*
X122404277Y-96013677D03*
X124200328Y-97809728D03*
X125996379Y-99605779D03*
X127792431Y-101401831D03*
X133268769Y-106878169D03*
X135064821Y-108674221D03*
X136860872Y-110470272D03*
X138656923Y-112266323D03*
X140452974Y-114062374D03*
X142249026Y-115858426D03*
X144045077Y-117654477D03*
X145841128Y-119450528D03*
X147637179Y-121246579D03*
X149433231Y-123042631D03*
M02*
