%FSLAX46Y46*%
G04 Gerber Fmt 4.6, Leading zero omitted, Abs format (unit mm)*
G04 Created by KiCad (PCBNEW (2014-08-29 BZR 5106)-product) date Fri 05 Sep 2014 06:56:24 PM PDT*
%MOMM*%
G01*
G04 APERTURE LIST*
%ADD10C,0.100000*%
%ADD11C,6.352400*%
%ADD12R,1.452880X1.651000*%
%ADD13R,0.952500X0.850900*%
%ADD14R,1.879600X1.879600*%
%ADD15O,1.879600X1.879600*%
%ADD16C,1.676400*%
G04 APERTURE END LIST*
D10*
D11*
X98044000Y-80010000D03*
X155956000Y-129032000D03*
D12*
X102679500Y-84074000D03*
X104584500Y-84074000D03*
D13*
X104099360Y-86614000D03*
X105196640Y-86614000D03*
X102656640Y-86614000D03*
X101559360Y-86614000D03*
D11*
X155956000Y-80010000D03*
D14*
X102870000Y-81280000D03*
D15*
X102870000Y-78740000D03*
X105410000Y-81280000D03*
X105410000Y-78740000D03*
X107950000Y-81280000D03*
X107950000Y-78740000D03*
X110490000Y-81280000D03*
X110490000Y-78740000D03*
X113030000Y-81280000D03*
X113030000Y-78740000D03*
X115570000Y-81280000D03*
X115570000Y-78740000D03*
X118110000Y-81280000D03*
X118110000Y-78740000D03*
X120650000Y-81280000D03*
X120650000Y-78740000D03*
X123190000Y-81280000D03*
X123190000Y-78740000D03*
X125730000Y-81280000D03*
X125730000Y-78740000D03*
X128270000Y-81280000D03*
X128270000Y-78740000D03*
X130810000Y-81280000D03*
X130810000Y-78740000D03*
X133350000Y-81280000D03*
X133350000Y-78740000D03*
X135890000Y-81280000D03*
X135890000Y-78740000D03*
X138430000Y-81280000D03*
X138430000Y-78740000D03*
X140970000Y-81280000D03*
X140970000Y-78740000D03*
X143510000Y-81280000D03*
X143510000Y-78740000D03*
X146050000Y-81280000D03*
X146050000Y-78740000D03*
X148590000Y-81280000D03*
X148590000Y-78740000D03*
X151130000Y-81280000D03*
X151130000Y-78740000D03*
D16*
X111627969Y-85237369D03*
X113424021Y-87033421D03*
X115220072Y-88829472D03*
X117016123Y-90625523D03*
X118812174Y-92421574D03*
X120608226Y-94217626D03*
X122404277Y-96013677D03*
X124200328Y-97809728D03*
X125996379Y-99605779D03*
X127792431Y-101401831D03*
X133268769Y-106878169D03*
X135064821Y-108674221D03*
X136860872Y-110470272D03*
X138656923Y-112266323D03*
X140452974Y-114062374D03*
X142249026Y-115858426D03*
X144045077Y-117654477D03*
X145841128Y-119450528D03*
X147637179Y-121246579D03*
X149433231Y-123042631D03*
M02*
